<?xml version="1.0" encoding="UTF-8"?>
<svg id="Layer_2" data-name="Layer 2" xmlns="http://www.w3.org/2000/svg" viewBox="0 0 87.34 85.85">
  <defs>
    <style>
      .cls-1 {
        fill: #fff;
      }

      .cls-1, .cls-2 {
        stroke: #231f20;
        stroke-miterlimit: 10;
      }

      .cls-2 {
        fill: #7fc242;
      }
    </style>
  </defs>
  <g id="Layer_1-2" data-name="Layer 1">
    <rect class="cls-2" x="19.14" y="29.22" width="49.08" height="56.13" rx="4.39" ry="4.39"/>
    <path class="cls-2" d="M68.22,24.5c0-13.25-10.99-24-24.54-24s-24.54,10.75-24.54,24c0,.01,0,.02,0,.03,0,1.63,1.37,2.94,3,2.94h43.07c1.63,0,3-1.3,3-2.94,0-.01,0-.02,0-.03Z"/>
    <circle class="cls-1" cx="35.56" cy="14.67" r="2.75"/>
    <circle class="cls-1" cx="51.8" cy="14.67" r="2.75"/>
    <rect class="cls-2" x="6.48" y="33.9" width="6.67" height="30.62" rx="3.34" ry="3.34" transform="translate(25.92 1.68) rotate(30)"/>
    <rect class="cls-2" x="74.19" y="33.9" width="6.67" height="30.59" rx="3.34" ry="3.34" transform="translate(-14.21 45.36) rotate(-30)"/>
  </g>
</svg>