<svg width="70" height="70" viewBox="0 0 70 70" fill="none" xmlns="http://www.w3.org/2000/svg">
<rect x="27.5" y="0.5" width="14" height="69" rx="4.5" stroke="black"/>
<rect x="69.5" y="28.5" width="14" height="69" rx="4.5" transform="rotate(90 69.5 28.5)" stroke="black"/>
<rect x="64.397" y="54.4975" width="14" height="69" rx="4.5" transform="rotate(135 64.397 54.4975)" stroke="black"/>
<rect x="15.6066" y="64.397" width="14" height="69" rx="4.5" transform="rotate(-135 15.6066 64.397)" stroke="black"/>
<circle cx="34" cy="35" r="24.5" fill="white" stroke="black"/>
<circle cx="34" cy="35" r="19.5" stroke="black"/>
<path d="M26.4148 40H25.3068L28.5114 31.2727H29.6023L32.8068 40H31.6989L29.0909 32.6534H29.0227L26.4148 40ZM26.8239 36.5909H31.2898V37.5284H26.8239V36.5909ZM34.1662 40V31.2727H37.1151C37.7997 31.2727 38.3594 31.3963 38.794 31.6435C39.2315 31.8878 39.5554 32.2188 39.7656 32.6364C39.9759 33.054 40.081 33.5199 40.081 34.0341C40.081 34.5483 39.9759 35.0156 39.7656 35.4361C39.5582 35.8565 39.2372 36.1918 38.8026 36.4418C38.3679 36.6889 37.8111 36.8125 37.1321 36.8125H35.0185V35.875H37.098C37.5668 35.875 37.9432 35.794 38.2273 35.6321C38.5114 35.4702 38.7173 35.2514 38.8452 34.9759C38.9759 34.6974 39.0412 34.3835 39.0412 34.0341C39.0412 33.6847 38.9759 33.3722 38.8452 33.0966C38.7173 32.821 38.5099 32.6051 38.223 32.4489C37.9361 32.2898 37.5554 32.2102 37.081 32.2102H35.223V40H34.1662ZM42.8402 31.2727V40H41.7834V31.2727H42.8402Z" fill="black"/>
</svg>
