<svg width="60" height="46" viewBox="0 0 60 46" fill="none" xmlns="http://www.w3.org/2000/svg">
<path d="M30 0.5C38.2556 0.5 45.7129 1.33694 51.0918 2.68164C53.7848 3.3549 55.929 4.14863 57.3877 5.01074C58.8799 5.89273 59.5 6.75038 59.5 7.5C59.5 8.24962 58.8799 9.10727 57.3877 9.98926C55.929 10.8514 53.7848 11.6451 51.0918 12.3184C45.7129 13.6631 38.2556 14.5 30 14.5C21.7444 14.5 14.2871 13.6631 8.9082 12.3184C6.21517 11.6451 4.07102 10.8514 2.6123 9.98926C1.12011 9.10727 0.5 8.24962 0.5 7.5C0.5 6.75038 1.12011 5.89273 2.6123 5.01074C4.07102 4.14863 6.21517 3.3549 8.9082 2.68164C14.2871 1.33694 21.7444 0.5 30 0.5Z" fill="#D9D9D9" stroke="black"/>
<path d="M59.5 38.5C59.5 39.2061 58.9334 40.0516 57.458 40.9421C56.0113 41.8152 53.8558 42.6273 51.0919 43.3182C48.3343 44.0076 45.0513 44.5567 41.429 44.9318C37.8076 45.3068 33.9237 45.5 30 45.5C26.0762 45.5 22.1924 45.3068 18.571 44.9318C14.9487 44.5567 11.6657 44.0076 8.90806 43.3182C6.14424 42.6273 3.98874 41.8152 2.54198 40.9421C1.06655 40.0516 0.5 39.2061 0.5 38.5" stroke="black"/>
<mask id="path-3-inside-1_6_13" fill="white">
<path d="M0 7H60V39H0V7Z"/>
</mask>
<path d="M60 7H59V39H60H61V7H60ZM0 39H1V7H0H-1V39H0Z" fill="black" mask="url(#path-3-inside-1_6_13)"/>
<path d="M25.75 33H23.0568V24.2727H25.8693C26.7159 24.2727 27.4403 24.4474 28.0426 24.7969C28.6449 25.1435 29.1065 25.642 29.4276 26.2926C29.7486 26.9403 29.9091 27.7159 29.9091 28.6193C29.9091 29.5284 29.7472 30.3111 29.4233 30.9673C29.0994 31.6207 28.6278 32.1236 28.0085 32.4759C27.3892 32.8253 26.6364 33 25.75 33ZM24.1136 32.0625H25.6818C26.4034 32.0625 27.0014 31.9233 27.4759 31.6449C27.9503 31.3665 28.304 30.9702 28.5369 30.456C28.7699 29.9418 28.8864 29.3295 28.8864 28.6193C28.8864 27.9148 28.7713 27.3082 28.5412 26.7997C28.3111 26.2884 27.9673 25.8963 27.5099 25.6236C27.0526 25.348 26.483 25.2102 25.8011 25.2102H24.1136V32.0625ZM31.6818 33V24.2727H34.733C35.3409 24.2727 35.8423 24.3778 36.2372 24.5881C36.6321 24.7955 36.9261 25.0753 37.1193 25.4276C37.3125 25.777 37.4091 26.1648 37.4091 26.5909C37.4091 26.9659 37.3423 27.2756 37.2088 27.5199C37.0781 27.7642 36.9048 27.9574 36.6889 28.0994C36.4759 28.2415 36.2443 28.3466 35.9943 28.4148V28.5C36.2614 28.517 36.5298 28.6108 36.7997 28.7812C37.0696 28.9517 37.2955 29.196 37.4773 29.5142C37.6591 29.8324 37.75 30.2216 37.75 30.6818C37.75 31.1193 37.6506 31.5128 37.4517 31.8622C37.2528 32.2116 36.9389 32.4886 36.5099 32.6932C36.081 32.8977 35.5227 33 34.8352 33H31.6818ZM32.7386 32.0625H34.8352C35.5256 32.0625 36.0156 31.929 36.3054 31.6619C36.598 31.392 36.7443 31.0653 36.7443 30.6818C36.7443 30.3864 36.669 30.1136 36.5185 29.8636C36.3679 29.6108 36.1534 29.4091 35.875 29.2585C35.5966 29.1051 35.267 29.0284 34.8864 29.0284H32.7386V32.0625ZM32.7386 28.108H34.6989C35.017 28.108 35.304 28.0455 35.5597 27.9205C35.8182 27.7955 36.0227 27.6193 36.1733 27.392C36.3267 27.1648 36.4034 26.8977 36.4034 26.5909C36.4034 26.2074 36.2699 25.8821 36.0028 25.6151C35.7358 25.3452 35.3125 25.2102 34.733 25.2102H32.7386V28.108Z" fill="black"/>
</svg>
