<?xml version="1.0" encoding="UTF-8"?>
<svg id="Layer_2" data-name="Layer 2" xmlns="http://www.w3.org/2000/svg" viewBox="0 0 86.26 85.14">
  <defs>
    <style>
      .cls-1 {
        fill: #231f20;
      }

      .cls-2 {
        fill: #83a8aa;
      }

      .cls-3 {
        fill: #b0aeae;
      }
    </style>
  </defs>
  <g id="Layer_1-2" data-name="Layer 1">
    <path class="cls-2" d="M65.48,11.83H21.48c-5.08,0-9.19,4.12-9.19,9.2v43.99c0,5.08,4.11,9.2,9.19,9.2h44c5.08,0,9.19-4.12,9.19-9.2V21.03c0-5.08-4.11-9.2-9.19-9.2ZM68.56,27.73v31.76c0,5.08-4.12,9.2-9.2,9.2h-31.76c-.23,0-.45,0-.67-.03-4.77-.34-8.53-4.32-8.53-9.17v-31.76c0-.12,0-.24.01-.35.17-4.7,3.87-8.49,8.52-8.82.22-.02.44-.03.67-.03h31.76c4.96,0,9.01,3.93,9.19,8.85.01.11.01.23.01.35Z"/>
    <path class="cls-3" d="M26.52,43.85l8.08,13.07c.31.51.31,1.15,0,1.66h0c-.62,1-2.07,1-2.68,0l-7.77-12.56-1.35-2.17c-.32-.51-.32-1.15,0-1.66l9.11-14.73c.62-1,2.07-1,2.69,0h0c.31.51.31,1.15,0,1.66l-8.08,13.07c-.31.51-.31,1.15,0,1.66Z"/>
    <path class="cls-3" d="M60.44,42.19l-8.08-13.07c-.31-.51-.31-1.15,0-1.66h0c.62-1,2.07-1,2.68,0l7.77,12.56,1.35,2.17c.32.51.32,1.15,0,1.66l-9.11,14.73c-.62,1-2.07,1-2.69,0h0c-.31-.51-.31-1.15,0-1.66l8.08-13.07c.31-.51.31-1.15,0-1.66Z"/>
    <rect class="cls-3" x="41.96" y="26.75" width="3.03" height="32.55" rx="1.52" ry="1.52" transform="translate(12.1 -9.49) rotate(14.44)"/>
    <path class="cls-1" d="M2.84,40.39h9.45v5.26H2.84c-1.58,0-2.84-1.17-2.84-2.63,0-.73.31-1.38.83-1.86.51-.47,1.22-.77,2.01-.77Z"/>
    <path class="cls-1" d="M86.05,43.02c0,.73-.29,1.39-.77,1.86-.47.48-1.13.77-1.86.77h-8.75v-5.26h8.75c1.46,0,2.63,1.18,2.63,2.63Z"/>
    <path class="cls-1" d="M2.84,27.38h9.45v5.26H2.84c-1.58,0-2.84-1.18-2.84-2.63,0-.72.31-1.38.83-1.86.51-.48,1.22-.77,2.01-.77Z"/>
    <path class="cls-1" d="M86.26,30.01c0,.72-.3,1.38-.78,1.86-.48.48-1.15.77-1.89.77h-8.91v-5.26h8.91c1.49,0,2.68,1.18,2.68,2.63Z"/>
    <path class="cls-1" d="M2.63,53.41h9.66v5.26H2.63c-1.45,0-2.63-1.18-2.63-2.63,0-.73.29-1.38.77-1.86.48-.47,1.14-.77,1.86-.77Z"/>
    <path class="cls-1" d="M86.05,56.04c0,.73-.33,1.38-.84,1.86-.52.47-1.23.77-2.02.77h-8.52v-5.26h8.52c1.57,0,2.86,1.18,2.86,2.63Z"/>
    <path class="cls-1" d="M45.2,2.63v9.2h-5.25V2.63c0-1.46,1.17-2.63,2.62-2.63.73,0,1.39.29,1.86.77.48.47.77,1.13.77,1.86Z"/>
    <path class="cls-1" d="M39.95,74.22h5.25v8.29c0,1.46-1.17,2.63-2.63,2.63-.72,0-1.38-.29-1.85-.77-.48-.47-.77-1.13-.77-1.86v-8.29Z"/>
    <path class="cls-1" d="M32.19,2.63v9.2h-5.26V2.63c0-1.46,1.18-2.63,2.63-2.63.73,0,1.38.29,1.86.77.47.47.77,1.13.77,1.86Z"/>
    <path class="cls-1" d="M26.93,74.22h5.26v8.29c0,1.46-1.18,2.63-2.63,2.63-.73,0-1.38-.29-1.86-.77-.47-.47-.77-1.13-.77-1.86v-8.29Z"/>
    <path class="cls-1" d="M58.22,2.41v9.42h-5.26V2.41c0-1.33,1.18-2.41,2.63-2.41.72,0,1.38.27,1.86.7.48.44.77,1.04.77,1.7Z"/>
    <path class="cls-1" d="M52.96,74.22h5.26v8c0,1.61-1.18,2.92-2.63,2.92-.72,0-1.38-.33-1.86-.86-.48-.53-.77-1.26-.77-2.07v-8Z"/>
  </g>
</svg>