<svg width="50" height="35" viewBox="0 0 50 35" fill="none" xmlns="http://www.w3.org/2000/svg">
<rect x="0.5" y="0.5" width="49" height="34" rx="9.5" stroke="black"/>
<rect x="5.5" y="5.5" width="39" height="24" rx="9.5" stroke="black"/>
<path d="M22.3977 13.2727H23.4545V19.5114C23.4545 20.0682 23.3523 20.5412 23.1477 20.9304C22.9432 21.3196 22.6548 21.6151 22.2827 21.8168C21.9105 22.0185 21.4716 22.1193 20.9659 22.1193C20.4886 22.1193 20.0639 22.0327 19.6918 21.8594C19.3196 21.6832 19.027 21.4332 18.8139 21.1094C18.6009 20.7855 18.4943 20.4006 18.4943 19.9545H19.5341C19.5341 20.2017 19.5952 20.4176 19.7173 20.6023C19.8423 20.7841 20.0128 20.9261 20.2287 21.0284C20.4446 21.1307 20.6903 21.1818 20.9659 21.1818C21.2699 21.1818 21.5284 21.1179 21.7415 20.9901C21.9545 20.8622 22.1165 20.6747 22.2273 20.4276C22.3409 20.1776 22.3977 19.8722 22.3977 19.5114V13.2727ZM30.3452 15.4545C30.294 15.0227 30.0866 14.6875 29.723 14.4489C29.3594 14.2102 28.9134 14.0909 28.3849 14.0909C27.9986 14.0909 27.6605 14.1534 27.3707 14.2784C27.0838 14.4034 26.8594 14.5753 26.6974 14.794C26.5384 15.0128 26.4588 15.2614 26.4588 15.5398C26.4588 15.7727 26.5142 15.973 26.625 16.1406C26.7386 16.3054 26.8835 16.4432 27.0597 16.554C27.2358 16.6619 27.4205 16.7514 27.6136 16.8224C27.8068 16.8906 27.9844 16.946 28.1463 16.9886L29.0327 17.2273C29.2599 17.2869 29.5128 17.3693 29.7912 17.4744C30.0724 17.5795 30.3409 17.723 30.5966 17.9048C30.8551 18.0838 31.0682 18.3139 31.2358 18.5952C31.4034 18.8764 31.4872 19.2216 31.4872 19.6307C31.4872 20.1023 31.3636 20.5284 31.1165 20.9091C30.8722 21.2898 30.5142 21.5923 30.0426 21.8168C29.5739 22.0412 29.0043 22.1534 28.3338 22.1534C27.7088 22.1534 27.1676 22.0526 26.7102 21.8509C26.2557 21.6491 25.8977 21.3679 25.6364 21.0071C25.3778 20.6463 25.2315 20.2273 25.1974 19.75H26.2884C26.3168 20.0795 26.4276 20.3523 26.6207 20.5682C26.8168 20.7812 27.0639 20.9403 27.3622 21.0455C27.6634 21.1477 27.9872 21.1989 28.3338 21.1989C28.7372 21.1989 29.0994 21.1335 29.4205 21.0028C29.7415 20.8693 29.9957 20.6847 30.1832 20.4489C30.3707 20.2102 30.4645 19.9318 30.4645 19.6136C30.4645 19.3239 30.3835 19.0881 30.2216 18.9062C30.0597 18.7244 29.8466 18.5767 29.5824 18.4631C29.3182 18.3494 29.0327 18.25 28.7259 18.1648L27.652 17.858C26.9702 17.6619 26.4304 17.3821 26.0327 17.0185C25.6349 16.6548 25.4361 16.179 25.4361 15.5909C25.4361 15.1023 25.5682 14.6761 25.8324 14.3125C26.0994 13.946 26.4574 13.6619 26.9062 13.4602C27.358 13.2557 27.8622 13.1534 28.419 13.1534C28.9815 13.1534 29.4815 13.2543 29.919 13.456C30.3565 13.6548 30.7031 13.9276 30.9588 14.2741C31.2173 14.6207 31.3537 15.0142 31.3679 15.4545H30.3452Z" fill="black"/>
</svg>
