<?xml version="1.0" encoding="UTF-8"?>
<svg version="1.1" xmlns="http://www.w3.org/2000/svg" width="382" height="582">
<path d="M0 0 C2.4764053 0.01072142 4.95208317 0.00002542 7.4284668 -0.01269531 C22.19664901 -0.02767606 36.87400786 0.79757209 51.10620117 5.01074219 C52.0261084 5.27387207 52.94601563 5.53700195 53.89379883 5.80810547 C68.33844153 10.01059292 81.80154975 15.09284056 95.04370117 22.26074219 C96.09170898 22.82664062 97.1397168 23.39253906 98.21948242 23.97558594 C106.2443294 28.49288391 113.68411342 33.74603454 121.04370117 39.26074219 C121.93444336 39.92332031 122.82518555 40.58589844 123.74291992 41.26855469 C136.3601352 51.12273507 148.82724621 63.15514579 158.04370117 76.26074219 C158.41865723 76.7916748 158.79361328 77.32260742 159.17993164 77.86962891 C168.24809407 90.81031622 176.5932171 104.37603154 182.04370117 119.26074219 C182.39295654 120.19031738 182.39295654 120.19031738 182.74926758 121.13867188 C188.99996545 137.94529164 193.76374214 156.26337588 194.04370117 174.26074219 C194.06271484 175.08896484 194.08172852 175.9171875 194.10131836 176.77050781 C194.79465534 209.57330329 188.46084194 240.2411866 173.04370117 269.26074219 C172.27026367 270.75734375 172.27026367 270.75734375 171.48120117 272.28417969 C165.14953334 284.29370182 157.27058433 295.06322238 148.41088867 305.31542969 C127.12353758 329.98303116 115.09353288 354.6706835 114.66870117 387.57324219 C114.31664606 402.53177848 113.177156 416.73408379 103.60620117 428.94824219 C103.02999023 429.69460938 102.4537793 430.44097656 101.86010742 431.20996094 C100.07080609 433.23013986 98.25674647 434.7286339 96.04370117 436.26074219 C96.73281189 440.49722956 96.73281189 440.49722956 97.60620117 444.69824219 C98.83264685 451.88170972 97.27097737 457.04644738 94.73120117 463.69824219 C93.97783739 467.60203632 94.57254516 468.64231343 96.28979492 472.05371094 C98.23238335 477.74056306 98.27207195 485.25192388 96.00073242 490.81542969 C95.60241211 491.53988281 95.2040918 492.26433594 94.79370117 493.01074219 C93.34863565 495.72024003 92.89952973 496.69486927 93.66870117 499.71386719 C94.42062243 501.41613338 95.19694742 503.10782115 95.99682617 504.78808594 C98.31693461 510.26804356 97.65242211 515.33738946 95.48120117 520.76074219 C90.14581407 531.48767836 82.3163223 539.10767125 71.04370117 543.26074219 C70.32053711 543.42316406 69.59737305 543.58558594 68.85229492 543.75292969 C62.38153944 545.35145812 60.09922094 548.27424182 56.59057617 553.83496094 C54.73398356 556.74643571 52.57420042 558.92003039 50.04370117 561.26074219 C49.59124023 561.77894531 49.1387793 562.29714844 48.67260742 562.83105469 C41.32647386 571.00156733 30.58271323 576.47829054 20.04370117 579.26074219 C18.99956055 579.60492187 17.95541992 579.94910156 16.87963867 580.30371094 C3.35159458 583.67883395 -10.24276371 581.37879308 -22.95629883 576.26074219 C-23.74133789 575.95007813 -24.52637695 575.63941406 -25.33520508 575.31933594 C-36.71018739 570.19484896 -51.16215729 559.21584688 -55.77661133 547.10839844 C-56.84650607 545.00561858 -56.84650607 545.00561858 -59.46020508 544.42480469 C-60.46954102 544.24691406 -61.47887695 544.06902344 -62.51879883 543.88574219 C-72.32064333 541.70494903 -80.57717741 535.71628592 -86.24145508 527.36621094 C-89.28136652 522.19073447 -90.11236572 518.33288639 -90.14379883 512.38574219 C-90.15797852 511.17144531 -90.1721582 509.95714844 -90.18676758 508.70605469 C-89.96492381 505.38967837 -89.27418676 503.26552666 -87.95629883 500.26074219 C-88.21064692 496.53030345 -89.27367715 493.31551202 -90.51879883 489.82324219 C-92.42593799 484.2051672 -92.69488514 479.78547016 -90.39379883 474.26074219 C-88.37326977 469.3237891 -89.11246134 465.44479216 -91.01879883 460.51074219 C-92.99626351 453.65553127 -92.53948584 446.8801589 -89.95629883 440.26074219 C-89.95629883 438.94074219 -89.95629883 437.62074219 -89.95629883 436.26074219 C-91.47781818 434.70513451 -91.47781818 434.70513451 -93.51879883 433.32324219 C-102.74646826 425.60079543 -106.38315753 414.34083468 -107.74487305 402.70898438 C-108.16357273 397.86057743 -108.25883762 392.99879503 -108.39379883 388.13574219 C-109.03304563 365.85630895 -113.20118594 344.91983059 -125.95629883 326.26074219 C-126.53895508 325.40609375 -127.12161133 324.55144531 -127.72192383 323.67089844 C-131.86026196 317.80825275 -136.36573184 312.32962388 -141.02709961 306.88427734 C-144.52670139 302.79226648 -147.8180536 298.63269561 -150.95629883 294.26074219 C-151.74648616 293.17858149 -152.53686911 292.09656361 -153.32739258 291.01464844 C-154.20427934 289.80543679 -155.08057717 288.59579787 -155.95629883 287.38574219 C-156.56163452 286.55635132 -156.56163452 286.55635132 -157.17919922 285.71020508 C-184.23215274 248.03183021 -192.68528484 197.98012727 -185.44140625 152.56640625 C-178.13185923 112.34964505 -156.72032869 73.47040617 -124.95629883 47.26074219 C-124.05266602 46.48085938 -123.1490332 45.70097656 -122.21801758 44.89746094 C-116.29820189 39.83759253 -110.29045935 35.27854671 -103.72973633 31.05371094 C-102.08469397 29.99022581 -100.45649326 28.89852354 -98.87036133 27.74902344 C-83.49039567 16.65477944 -64.07524618 10.10359447 -45.95629883 5.26074219 C-44.98176758 4.98230469 -44.00723633 4.70386719 -43.00317383 4.41699219 C-28.91590623 0.56801197 -14.52412974 -0.07441667 0 0 Z " fill="#E3E2E2" transform="translate(186.956298828125,-0.2607421875)"/>
<path d="M0 0 C2.4764053 0.01072142 4.95208317 0.00002542 7.4284668 -0.01269531 C22.19664901 -0.02767606 36.87400786 0.79757209 51.10620117 5.01074219 C52.0261084 5.27387207 52.94601563 5.53700195 53.89379883 5.80810547 C68.33844153 10.01059292 81.80154975 15.09284056 95.04370117 22.26074219 C96.09170898 22.82664062 97.1397168 23.39253906 98.21948242 23.97558594 C106.2443294 28.49288391 113.68411342 33.74603454 121.04370117 39.26074219 C121.93444336 39.92332031 122.82518555 40.58589844 123.74291992 41.26855469 C136.3601352 51.12273507 148.82724621 63.15514579 158.04370117 76.26074219 C158.41865723 76.7916748 158.79361328 77.32260742 159.17993164 77.86962891 C168.24809407 90.81031622 176.5932171 104.37603154 182.04370117 119.26074219 C182.39295654 120.19031738 182.39295654 120.19031738 182.74926758 121.13867188 C188.99996545 137.94529164 193.76374214 156.26337588 194.04370117 174.26074219 C194.06271484 175.08896484 194.08172852 175.9171875 194.10131836 176.77050781 C194.79465534 209.57330329 188.46084194 240.2411866 173.04370117 269.26074219 C172.27026367 270.75734375 172.27026367 270.75734375 171.48120117 272.28417969 C165.14953334 284.29370182 157.27058433 295.06322238 148.41088867 305.31542969 C127.12353758 329.98303116 115.09353288 354.6706835 114.66870117 387.57324219 C114.31664606 402.53177848 113.177156 416.73408379 103.60620117 428.94824219 C103.02999023 429.69460938 102.4537793 430.44097656 101.86010742 431.20996094 C100.07080609 433.23013986 98.25674647 434.7286339 96.04370117 436.26074219 C96.73281189 440.49722956 96.73281189 440.49722956 97.60620117 444.69824219 C98.83264685 451.88170972 97.27097737 457.04644738 94.73120117 463.69824219 C93.97783739 467.60203632 94.57254516 468.64231343 96.28979492 472.05371094 C98.23238335 477.74056306 98.27207195 485.25192388 96.00073242 490.81542969 C95.60241211 491.53988281 95.2040918 492.26433594 94.79370117 493.01074219 C93.34863565 495.72024003 92.89952973 496.69486927 93.66870117 499.71386719 C94.42062243 501.41613338 95.19694742 503.10782115 95.99682617 504.78808594 C98.31693461 510.26804356 97.65242211 515.33738946 95.48120117 520.76074219 C90.14581407 531.48767836 82.3163223 539.10767125 71.04370117 543.26074219 C70.32053711 543.42316406 69.59737305 543.58558594 68.85229492 543.75292969 C62.38153944 545.35145812 60.09922094 548.27424182 56.59057617 553.83496094 C54.73398356 556.74643571 52.57420042 558.92003039 50.04370117 561.26074219 C49.59124023 561.77894531 49.1387793 562.29714844 48.67260742 562.83105469 C41.32647386 571.00156733 30.58271323 576.47829054 20.04370117 579.26074219 C18.99956055 579.60492187 17.95541992 579.94910156 16.87963867 580.30371094 C3.35159458 583.67883395 -10.24276371 581.37879308 -22.95629883 576.26074219 C-23.74133789 575.95007813 -24.52637695 575.63941406 -25.33520508 575.31933594 C-36.71018739 570.19484896 -51.16215729 559.21584688 -55.77661133 547.10839844 C-56.84650607 545.00561858 -56.84650607 545.00561858 -59.46020508 544.42480469 C-60.46954102 544.24691406 -61.47887695 544.06902344 -62.51879883 543.88574219 C-72.32064333 541.70494903 -80.57717741 535.71628592 -86.24145508 527.36621094 C-89.28136652 522.19073447 -90.11236572 518.33288639 -90.14379883 512.38574219 C-90.15797852 511.17144531 -90.1721582 509.95714844 -90.18676758 508.70605469 C-89.96492381 505.38967837 -89.27418676 503.26552666 -87.95629883 500.26074219 C-88.21064692 496.53030345 -89.27367715 493.31551202 -90.51879883 489.82324219 C-92.42593799 484.2051672 -92.69488514 479.78547016 -90.39379883 474.26074219 C-88.37326977 469.3237891 -89.11246134 465.44479216 -91.01879883 460.51074219 C-92.99626351 453.65553127 -92.53948584 446.8801589 -89.95629883 440.26074219 C-89.95629883 438.94074219 -89.95629883 437.62074219 -89.95629883 436.26074219 C-91.47781818 434.70513451 -91.47781818 434.70513451 -93.51879883 433.32324219 C-102.74646826 425.60079543 -106.38315753 414.34083468 -107.74487305 402.70898438 C-108.16357273 397.86057743 -108.25883762 392.99879503 -108.39379883 388.13574219 C-109.03304563 365.85630895 -113.20118594 344.91983059 -125.95629883 326.26074219 C-126.53895508 325.40609375 -127.12161133 324.55144531 -127.72192383 323.67089844 C-131.86026196 317.80825275 -136.36573184 312.32962388 -141.02709961 306.88427734 C-144.52670139 302.79226648 -147.8180536 298.63269561 -150.95629883 294.26074219 C-151.74648616 293.17858149 -152.53686911 292.09656361 -153.32739258 291.01464844 C-154.20427934 289.80543679 -155.08057717 288.59579787 -155.95629883 287.38574219 C-156.56163452 286.55635132 -156.56163452 286.55635132 -157.17919922 285.71020508 C-184.23215274 248.03183021 -192.68528484 197.98012727 -185.44140625 152.56640625 C-178.13185923 112.34964505 -156.72032869 73.47040617 -124.95629883 47.26074219 C-124.05266602 46.48085938 -123.1490332 45.70097656 -122.21801758 44.89746094 C-116.29820189 39.83759253 -110.29045935 35.27854671 -103.72973633 31.05371094 C-102.08469397 29.99022581 -100.45649326 28.89852354 -98.87036133 27.74902344 C-83.49039567 16.65477944 -64.07524618 10.10359447 -45.95629883 5.26074219 C-44.98176758 4.98230469 -44.00723633 4.70386719 -43.00317383 4.41699219 C-28.91590623 0.56801197 -14.52412974 -0.07441667 0 0 Z M-101.95629883 51.26074219 C-102.7580957 51.87175781 -103.55989258 52.48277344 -104.38598633 53.11230469 C-128.50892199 71.84033461 -147.33748317 95.90736368 -158.95629883 124.26074219 C-159.47450195 125.5253125 -159.47450195 125.5253125 -160.00317383 126.81542969 C-172.27853767 158.63694979 -174.79028702 197.71578561 -163.95629883 230.26074219 C-163.74553711 230.93830566 -163.53477539 231.61586914 -163.31762695 232.31396484 C-156.14747573 255.29633979 -144.85642832 275.05833604 -129.20678711 293.23193359 C-105.36104926 321.0449862 -92.63169699 349.63650635 -91.34570312 386.5612793 C-90.80015809 405.35577063 -90.80015809 405.35577063 -81.95629883 421.26074219 C-75.71443803 426.40051394 -70.40092774 426.95870266 -62.49145508 426.78417969 C-61.41754013 426.77947662 -60.34362518 426.77477356 -59.23716736 426.76992798 C-55.83037491 426.74868891 -52.42517179 426.69208567 -49.01879883 426.63574219 C-46.70305823 426.61922547 -44.38730106 426.60487989 -42.0715332 426.59277344 C-37.86112784 426.55886578 -33.65087759 426.52441516 -29.44091797 426.45361328 C-28.59678848 426.44075287 -27.752659 426.42789246 -26.88294983 426.41464233 C-24.94912621 426.46975541 -24.94912621 426.46975541 -23.95629883 425.26074219 C-21.45629883 425.13574219 -21.45629883 425.13574219 -18.95629883 425.26074219 C-18.62629883 425.59074219 -18.29629883 425.92074219 -17.95629883 426.26074219 C-15.15375974 426.36196515 -12.37642211 426.40042404 -9.57348633 426.39355469 C-8.72585724 426.39451141 -7.87822815 426.39546814 -7.00491333 426.39645386 C-5.20420254 426.39713612 -3.40348931 426.39527862 -1.6027832 426.39111328 C1.13620655 426.38580516 3.87502933 426.39103604 6.61401367 426.39746094 C8.36401403 426.39679939 10.11401429 426.39551664 11.86401367 426.39355469 C13.08473068 426.39659103 13.08473068 426.39659103 14.33010864 426.39968872 C17.96768654 426.38493267 21.45845294 426.25964778 25.05493164 425.68994141 C26.04122559 425.54830566 27.02751953 425.40666992 28.04370117 425.26074219 C28.37370117 425.59074219 28.70370117 425.92074219 29.04370117 426.26074219 C30.56586406 426.3799824 32.09346098 426.43083389 33.62011719 426.45361328 C34.59525772 426.46967621 35.57039825 426.48573914 36.5750885 426.50228882 C41.06405047 426.54671273 45.55286146 426.58784893 50.04199219 426.61083984 C52.40569943 426.62735455 54.76935766 426.6545846 57.1328125 426.69287109 C60.54217429 426.74783382 63.95036127 426.76954955 67.36010742 426.78417969 C68.93399986 426.81818375 68.93399986 426.81818375 70.53968811 426.85287476 C79.08382168 426.82845543 83.87005341 424.43438995 89.85620117 418.44824219 C97.34209047 407.54023206 97.22686572 394.0863388 97.35620117 381.32324219 C98.18746258 347.19377556 112.39232764 320.33208789 134.51269531 295.13085938 C140.68319523 288.0974144 146.02355502 280.80420802 151.01098633 272.88867188 C151.87824417 271.52156188 152.77590043 270.17380201 153.68041992 268.83105469 C174.05240515 237.46377881 181.57848509 193.29053535 174.29370117 156.76074219 C173.60944774 153.57545589 172.85168311 150.41669975 172.04370117 147.26074219 C171.73174805 145.99617187 171.41979492 144.73160156 171.09838867 143.42871094 C163.61912951 115.42862727 149.38428681 91.82246541 129.49975586 70.8046875 C128.54909363 69.79664124 127.60413849 68.78317337 126.66577148 67.76367188 C99.94129016 38.78186142 58.31644694 19.92561269 19.04370117 17.26074219 C14.06452229 17.09863619 9.08761889 17.06385285 4.10620117 17.07324219 C3.41606934 17.07451111 2.7259375 17.07578003 2.01489258 17.0770874 C-35.57384442 17.20878294 -72.09146587 27.73378374 -101.95629883 51.26074219 Z " fill="#36241C" transform="translate(186.956298828125,-0.2607421875)"/>
<path d="M0 0 C4.93806246 1.02876301 7.38259115 3.76654797 10.28125 7.796875 C11.02959291 8.98410689 11.76894832 10.17704336 12.5 11.375 C12.88873291 11.99391113 13.27746582 12.61282227 13.67797852 13.25048828 C15.35337102 15.92426225 16.99481197 18.61637412 18.62109375 21.3203125 C19.70491718 23.11489254 20.84517527 24.87526556 22 26.625 C22.66 26.625 23.32 26.625 24 26.625 C25.6451648 24.17379468 27.18019045 21.72167823 28.6875 19.1875 C38.67816423 2.78591788 38.67816423 2.78591788 43 0.625 C45.8125 0.25 45.8125 0.25 49 0.625 C53.10567272 4.09604192 55.28527548 7.67080462 57.5625 12.5 C59.8755011 17.32247819 62.26350615 22.02769034 65 26.625 C70.62392907 24.83654746 74.78513141 21.10558422 79.296875 17.4375 C82.66552633 14.83882612 84.53138762 13.68868566 88.8515625 13.1015625 C89.89054688 13.27429688 90.92953125 13.44703125 92 13.625 C94 16.625 94 16.625 93.83276367 18.734375 C92.64465618 22.85844206 91.17675829 26.85562636 89.67578125 30.875 C89.33755341 31.78936325 88.99932556 32.7037265 88.65084839 33.64579773 C87.54185766 36.64028698 86.42731675 39.63267534 85.3125 42.625 C84.54383318 44.69629864 83.77536161 46.76766975 83.00708008 48.83911133 C77.55330239 63.52640468 72.03905642 78.19077567 66.46801758 92.83398438 C66.19506866 93.55189651 65.92211975 94.26980865 65.64089966 95.00947571 C64.91797854 96.90989282 64.19379038 98.80982782 63.46948242 100.7097168 C62.64900945 102.8660988 61.85929859 105.02723035 61.09742737 107.20523071 C59.51938516 111.68981637 57.8872178 115.97777395 55.67797852 120.19140625 C45.55415072 140.72228806 47.75484788 163.94428827 47.91845703 186.23846436 C47.95046786 191.93115926 47.93083905 197.62367479 47.91601562 203.31640625 C47.89448315 214.41967258 47.92873912 225.52196752 48 236.625 C44.55657399 237.24440513 41.2545607 237.75027842 37.75463867 237.75439453 C36.97751022 237.75754669 36.20038177 237.76069885 35.39970398 237.76394653 C34.58073135 237.7619223 33.76175873 237.75989807 32.91796875 237.7578125 C31.63579216 237.75924759 31.63579216 237.75924759 30.32771301 237.76071167 C28.53170701 237.76138922 26.7356985 237.75956472 24.93969727 237.75537109 C22.17914419 237.74998369 19.41875139 237.75534731 16.65820312 237.76171875 C14.91145797 237.76105854 13.16471292 237.75977856 11.41796875 237.7578125 C10.58887497 237.75983673 9.75978119 237.76186096 8.90556335 237.76394653 C3.11497274 237.73997274 3.11497274 237.73997274 2 236.625 C0.33382885 236.58436168 -1.33388095 236.582279 -3 236.625 C-3.89544144 226.03472955 -4.08447636 215.55957393 -3.98527336 204.93746185 C-3.94198838 199.34275207 -3.95500112 193.7477801 -3.95516109 188.15293503 C-3.95217945 183.29510136 -3.9317682 178.43855957 -3.87329102 173.58105469 C-3.61820873 151.10457299 -3.93438766 131.9858541 -13.75479126 111.34422302 C-15.79914395 106.8798704 -17.39068911 102.26011694 -19 97.625 C-19.44738615 96.36309304 -19.89523828 95.10135109 -20.34375 93.83984375 C-21.11540044 91.65263186 -21.88623215 89.46513094 -22.65625 87.27734375 C-23.66170366 84.54449731 -24.70774721 81.85234196 -25.80200195 79.15551758 C-28.14822256 73.30481598 -30.33892785 67.40130909 -32.51171875 61.484375 C-32.92541214 60.35856018 -33.33910553 59.23274536 -33.76533508 58.07281494 C-34.63259269 55.70999476 -35.49896906 53.34685095 -36.36450195 50.98339844 C-37.68935071 47.3699523 -39.02141072 43.75921386 -40.35351562 40.1484375 C-41.19836415 37.843914 -42.04278031 35.53923194 -42.88671875 33.234375 C-43.28461105 32.15927673 -43.68250336 31.08417847 -44.092453 29.97650146 C-44.45986099 28.96815247 -44.82726898 27.95980347 -45.20581055 26.92089844 C-45.69068184 25.60046539 -45.69068184 25.60046539 -46.18534851 24.25335693 C-47.0776934 21.37433333 -47.65500403 18.61940848 -48 15.625 C-46.9375 13.6875 -46.9375 13.6875 -45 12.625 C-38.65567417 12.68347305 -34.5617478 16.50496076 -29.75 20.1875 C-28.14365423 21.40115523 -26.53442106 22.61100137 -24.921875 23.81640625 C-24.21643555 24.35467041 -23.51099609 24.89293457 -22.78417969 25.44750977 C-21.07807604 26.80860664 -21.07807604 26.80860664 -19 26.625 C-18.69296143 26.05056152 -18.38592285 25.47612305 -18.06958008 24.88427734 C-16.65761708 22.25232529 -15.2351667 19.62618063 -13.8125 17 C-13.32974609 16.09636719 -12.84699219 15.19273437 -12.34960938 14.26171875 C-5.18112245 1.07940051 -5.18112245 1.07940051 0 0 Z " fill="#45403E" transform="translate(166,188.375)"/>
<path d="M0 0 C0.64437012 0.19932129 1.28874023 0.39864258 1.95263672 0.60400391 C20.79210492 6.54248224 38.24293114 15.07560777 54 27 C54.93457031 27.69222656 55.86914062 28.38445313 56.83203125 29.09765625 C69.08296354 38.63024075 81.03022707 50.3265789 90 63 C90.38172363 63.5377002 90.76344727 64.07540039 91.15673828 64.62939453 C105.7639057 85.38215635 115.03757774 107.08304881 120 132 C120.18836426 132.91773193 120.37672852 133.83546387 120.57080078 134.78100586 C122.08190052 142.81584633 122.30949156 150.65077589 122.25 158.8125 C122.24723053 159.473638 122.24446106 160.134776 122.24160767 160.81594849 C122.19454693 170.39244572 121.81471045 179.58188246 120 189 C119.72542969 190.74023438 119.72542969 190.74023438 119.4453125 192.515625 C114.6523292 220.32676269 100.89975972 246.67908377 82.51171875 267.8671875 C67.62284935 285.09397855 54.67774289 302.98729754 48 325 C47.6184375 326.20011719 47.236875 327.40023438 46.84375 328.63671875 C43.79723184 339.13620694 43.59289478 349.49926522 43.35351562 360.37988281 C42.68590341 387.50340455 42.68590341 387.50340455 33.4140625 396.546875 C28.60852188 400.71949076 25.54000584 401.13643457 19.375 401.0625 C18.66859375 401.05798828 17.9621875 401.05347656 17.234375 401.04882812 C15.48954725 401.03703875 13.744763 401.01910324 12 401 C12.85078125 400.61521484 12.85078125 400.61521484 13.71875 400.22265625 C20.1803984 396.75947825 25.71497021 391.55701172 28.296875 384.6328125 C30.78760916 375.30639683 31.09163163 365.77560162 31.4375 356.1875 C32.792906 321.52232416 46.56656151 294.36605827 68.3671875 267.91015625 C86.97974529 245.3167835 102.24086811 220.35915168 107 191 C107.20367187 189.80890625 107.40734375 188.6178125 107.6171875 187.390625 C109.37093367 175.61890413 109.29092701 163.87761055 109 152 C108.95552734 150.17275391 108.95552734 150.17275391 108.91015625 148.30859375 C107.34792119 118.47371449 94.38374785 87.54542624 75 65 C74.01901564 63.81008996 73.03992889 62.61861358 72.0625 61.42578125 C48.0668561 32.424793 10.50135474 10.356934 -27.3828125 6.3671875 C-29.29611068 6.19443966 -31.21023534 6.0306537 -33.125 5.875 C-34.14053955 5.7915332 -35.1560791 5.70806641 -36.20239258 5.62207031 C-56.47718274 4.04451618 -76.46438621 5.12377778 -96 11 C-97.07048584 11.31710938 -97.07048584 11.31710938 -98.16259766 11.640625 C-138.06705139 23.65299173 -169.89020584 49.20177241 -191 85 C-191.36657715 85.62036133 -191.7331543 86.24072266 -192.11083984 86.87988281 C-198.0587432 97.09434224 -202.47844597 107.7236725 -206 119 C-206.25974609 119.81807129 -206.51949219 120.63614258 -206.78710938 121.47900391 C-210.77745606 134.65791881 -211.47076795 147.64509628 -211.5 161.3125 C-211.50458221 162.10548492 -211.50916443 162.89846985 -211.5138855 163.71548462 C-211.60537145 203.65246392 -195.84862408 237.81779607 -169.94018555 267.7199707 C-144.57508117 297.04064691 -134.17286821 328.31143461 -133.5703125 366.875 C-133.29980138 376.86136871 -132.26135837 386.36673419 -125.76171875 394.33984375 C-122.83217729 397.10049812 -119.70400555 398.46730805 -116 400 C-116 400.33 -116 400.66 -116 401 C-129.78522779 401.86038176 -129.78522779 401.86038176 -134.125 398.875 C-142.2858236 391.5138551 -144.17683771 381.49304662 -145 371 C-145.12834324 368.17976583 -145.21386408 365.36067352 -145.2902832 362.53857422 C-145.60012531 351.42533244 -146.53179344 340.84009638 -149 330 C-149.26554687 328.81535156 -149.53109375 327.63070313 -149.8046875 326.41015625 C-155.45294681 304.1920035 -169.65878901 285.42623763 -184.203125 268.1953125 C-213.808888 232.92270112 -227.29984045 190.47718116 -223.73193359 144.54931641 C-219.24575827 100.30306392 -197.08636364 60.51004603 -163 32 C-117.67238605 -4.62604486 -55.93747578 -17.38036098 0 0 Z " fill="#FAFAFA" transform="translate(241,24)"/>
<path d="M0 0 C2.89586354 2.70087152 4.89664388 5.24328824 6.76171875 8.73046875 C7.24060547 9.61541016 7.71949219 10.50035156 8.21289062 11.41210938 C8.69951172 12.32798828 9.18613281 13.24386719 9.6875 14.1875 C10.66922071 16.01504994 11.65222415 17.8419116 12.63671875 19.66796875 C13.06686279 20.47516357 13.49700684 21.2823584 13.94018555 22.11401367 C14.86051344 23.95052623 14.86051344 23.95052623 16 25 C22.5350121 25.81687651 25.68401155 24.40794824 30.921875 20.5078125 C32.88828848 19.08105385 34.82008283 18.05580845 37 17 C34.30307793 25.22862804 31.36295146 33.36049945 28.40429688 41.49804688 C26.53621726 46.65826 24.71994107 51.82235592 23.02734375 57.04296875 C21.42465563 61.89011353 19.55137025 66.55098283 17.55273438 71.24609375 C14.16172956 79.3357532 11.12008359 87.57413396 7.98730469 95.76611328 C6.74195591 99.02102446 5.49222019 102.27422896 4.2421875 105.52734375 C3.44765303 107.60146153 2.65337294 109.67567677 1.859375 111.75 C1.48649353 112.71977783 1.11361206 113.68955566 0.72943115 114.6887207 C0.38527161 115.59066162 0.04111206 116.49260254 -0.31347656 117.421875 C-0.61594299 118.21174805 -0.91840942 119.00162109 -1.2300415 119.81542969 C-2.13479708 122.27358601 -2.13479708 122.27358601 -3 126 C-8.28 126 -13.56 126 -19 126 C-19.11581341 113.04806907 -19.20467496 100.09626117 -19.25906086 87.14391804 C-19.28516251 81.12969496 -19.32057192 75.11582594 -19.37719727 69.10180664 C-19.43149528 63.29869796 -19.46141626 57.49592999 -19.47438622 51.6925869 C-19.48362995 49.47775088 -19.50168078 47.26293367 -19.52865028 45.04824257 C-19.56491019 41.94752223 -19.56994649 38.84821244 -19.56762695 35.74731445 C-19.58560333 34.83021698 -19.60357971 33.91311951 -19.62210083 32.9682312 C-19.58770726 28.72345966 -19.54489721 26.0017279 -16.46452332 22.89079285 C-15.24458427 21.95485039 -15.24458427 21.95485039 -14 21 C-13.01 21.33 -12.02 21.66 -11 22 C-8.81417632 18.91997572 -7.80304871 16.35540883 -7.1875 12.6875 C-6.17325591 7.43106974 -3.45087486 3.98261344 0 0 Z " fill="#E7E7E7" transform="translate(211,198)"/>
<path d="M0 0 C0.80103149 0.00202423 1.60206299 0.00404846 2.42736816 0.00613403 C3.24483521 0.00517731 4.06230225 0.00422058 4.90454102 0.00323486 C6.63627194 0.00255308 8.3680054 0.00440724 10.09973145 0.00857544 C12.75978298 0.01392374 15.41966566 0.00863041 18.07971191 0.00222778 C19.75809771 0.00288857 21.43648339 0.00416973 23.11486816 0.00613403 C23.91589966 0.0041098 24.71693115 0.00208557 25.54223633 0 C31.15616738 0.02399575 31.15616738 0.02399575 32.27111816 1.13894653 C32.36637184 4.06089318 32.39664553 6.95914983 32.38464355 9.88137817 C32.38478958 10.79835983 32.38493561 11.71534149 32.38508606 12.66011047 C32.38438656 15.70646489 32.37659244 18.75275898 32.36877441 21.79910278 C32.36691037 23.90517646 32.3654864 26.01125057 32.36448669 28.11732483 C32.36066047 33.67237537 32.3508293 39.22739994 32.33978271 44.78244019 C32.32957083 50.44619394 32.32498955 56.10995186 32.31994629 61.77371216 C32.30920712 72.89547022 32.29160949 84.01720216 32.27111816 95.13894653 C19.40111816 95.13894653 6.53111816 95.13894653 -6.72888184 95.13894653 C-6.7514313 82.90013995 -6.76979601 70.66134706 -6.78069401 58.42252445 C-6.78592323 52.74018141 -6.79302157 47.05785327 -6.80432129 41.3755188 C-6.8151488 35.89665517 -6.82115838 30.41780591 -6.82375908 24.93893242 C-6.82561358 22.84365042 -6.82923465 20.74836925 -6.83461189 18.65309334 C-6.84182052 15.7291707 -6.84287285 12.8053082 -6.84240723 9.88137817 C-6.8460025 9.00600403 -6.84959778 8.13062988 -6.853302 7.22872925 C-6.84081075 0.02923982 -6.84081075 0.02923982 0 0 Z " fill="#75726E" transform="translate(175.7288818359375,330.8610534667969)"/>
<path d="M0 0 C1.5 1.125 1.5 1.125 3 3 C2.93425781 3.87785156 2.86851562 4.75570312 2.80078125 5.66015625 C3.07439312 10.24717876 5.0074154 12.69723694 7.6875 16.3125 C8.12255859 16.94478516 8.55761719 17.57707031 9.00585938 18.22851562 C11.98131031 22.34125003 12.76890399 22.9537808 18 24 C18 57.66 18 91.32 18 126 C13.38 126 8.76 126 4 126 C-4.93693522 103.03049225 -13.63068598 79.99511019 -21.92631531 56.78613281 C-23.96119772 51.09581607 -26.0301568 45.41853496 -28.125 39.75 C-28.38410156 39.04842773 -28.64320313 38.34685547 -28.91015625 37.62402344 C-29.86578847 35.04252506 -30.82457689 32.46237703 -31.80102539 29.88867188 C-32.0664917 29.18806641 -32.33195801 28.48746094 -32.60546875 27.765625 C-32.84418701 27.13946289 -33.08290527 26.51330078 -33.32885742 25.86816406 C-34.37657249 22.95178875 -35.19011005 19.9903629 -36 17 C-29.41935484 20.61290323 -29.41935484 20.61290323 -26.5625 23.25 C-22.79765489 25.82111373 -20.50777248 25.50894205 -16 25 C-13.27218073 22.86225605 -11.79560744 20.14348589 -10.1171875 17.1484375 C-9.58996094 16.21515625 -9.06273437 15.281875 -8.51953125 14.3203125 C-7.97683594 13.34835938 -7.43414062 12.37640625 -6.875 11.375 C-5.7903983 9.44456138 -4.70452942 7.51483398 -3.6171875 5.5859375 C-3.13878418 4.7304834 -2.66038086 3.8750293 -2.16748047 2.99365234 C-1 1 -1 1 0 0 Z " fill="#E8E8E8" transform="translate(166,198)"/>
<path d="M0 0 C5.33602286 -0.13632697 5.33602286 -0.13632697 8.11953735 2.09048462 C10.00205074 5.85551139 10.41438526 9.00384233 9.61953735 13.09048462 C6.27234997 19.53691959 1.78766608 23.00264195 -4.99527359 25.46049881 C-9.53619933 26.65986654 -14.1093671 26.50592578 -18.77841187 26.47866821 C-20.45319107 26.48655365 -20.45319107 26.48655365 -22.1618042 26.49459839 C-25.83639704 26.50775393 -29.51055322 26.49907447 -33.18515015 26.48892212 C-35.75050947 26.49094441 -38.31586823 26.49385713 -40.88122559 26.49761963 C-46.25261451 26.50203723 -51.62384093 26.49591967 -56.99520874 26.4815979 C-63.18233962 26.46529028 -69.36917356 26.47055091 -75.55629718 26.48707712 C-81.53426789 26.50239854 -87.51209482 26.500691 -93.4900856 26.49193192 C-96.02170987 26.48993727 -98.55334177 26.4923632 -101.08495712 26.49937057 C-104.63141369 26.50703204 -108.17730931 26.49531371 -111.72372437 26.47866821 C-113.27797119 26.48777725 -113.27797119 26.48777725 -114.86361694 26.49707031 C-124.14436935 26.41681261 -132.03473846 25.02499925 -139.00546265 18.59048462 C-140.38046265 17.09048462 -140.38046265 17.09048462 -142.38046265 14.09048462 C-141.92763246 7.63765443 -141.92763246 7.63765443 -139.38046265 5.09048462 C-136.6204834 4.74954224 -136.6204834 4.74954224 -133.03720093 4.61978149 C-132.38109738 4.59340449 -131.72499384 4.56702749 -131.04900837 4.53985119 C-128.84983986 4.45380476 -126.65043516 4.38153886 -124.45077515 4.30923462 C-122.88979604 4.2510289 -121.3288476 4.19199547 -119.76792908 4.13218689 C-115.55532709 3.97324582 -111.34238369 3.82628792 -107.12926865 3.68167496 C-102.76069213 3.52984515 -98.39250762 3.36745723 -94.02426147 3.20645142 C-84.31479836 2.85087921 -74.6047749 2.51254603 -64.89458466 2.17751312 C-60.92384428 2.04006252 -56.95318194 1.90040322 -52.98251343 1.76089478 C-39.84873296 1.30026426 -26.71459321 0.84977815 -13.5796814 0.42251587 C-12.55290787 0.38830032 -11.52613434 0.35408478 -10.46824646 0.3188324 C-6.97887447 0.20745791 -3.48861807 0.13260711 0 0 Z " fill="#808080" transform="translate(256.3804626464844,501.9095153808594)"/>
<path d="M0 0 C1.134375 0.020625 2.26875 0.04125 3.4375 0.0625 C3.4375 0.7225 3.4375 1.3825 3.4375 2.0625 C4.15550781 2.33835938 4.87351563 2.61421875 5.61328125 2.8984375 C32.81101958 14.10857031 55.23552935 40.48431147 69.8125 65.3125 C70.15869385 65.89104736 70.5048877 66.46959473 70.86157227 67.06567383 C72.95506378 70.71813723 73.99400265 73.88095354 74.4375 78.0625 C75.0975 78.0625 75.7575 78.0625 76.4375 78.0625 C89.55816987 111.82635714 91.90014223 150.6383066 77.1796875 184.46484375 C73.80115399 191.4415912 70.20145242 198.28669246 66.4375 205.0625 C66.10298828 205.67963867 65.76847656 206.29677734 65.42382812 206.93261719 C63.32783478 210.73134775 60.99919437 214.01533321 58.1875 217.3125 C51.78190909 224.99079452 45.97552092 233.00884093 40.6640625 241.48046875 C40.25929688 242.00253906 39.85453125 242.52460938 39.4375 243.0625 C38.7775 243.0625 38.1175 243.0625 37.4375 243.0625 C37.210625 243.866875 36.98375 244.67125 36.75 245.5 C34.76125308 250.89802736 31.81382144 255.70612447 28.91796875 260.6640625 C25.68346905 266.34695564 23.28876274 271.87841678 21.39453125 278.140625 C20.4375 281.0625 20.4375 281.0625 18.95703125 284.3046875 C17.03577558 288.70298852 16.18041589 293.2352804 15.3125 297.9375 C15.05049805 299.31699829 15.05049805 299.31699829 14.78320312 300.72436523 C13.73428873 306.54011332 13.13656778 312.22338499 12.9375 318.125 C12.5685255 328.32774002 10.19335958 337.23992575 3.4375 345.0625 C2.7775 345.0625 2.1175 345.0625 1.4375 345.0625 C1.4375 345.7225 1.4375 346.3825 1.4375 347.0625 C-10.42404744 353.09578092 -21.52182998 353.28541744 -34.5625 353.0625 C-34.5625 358.0125 -34.5625 362.9625 -34.5625 368.0625 C-34.8925 368.0625 -35.2225 368.0625 -35.5625 368.0625 C-35.5625 335.0625 -35.5625 302.0625 -35.5625 268.0625 C-35.2325 268.0625 -34.9025 268.0625 -34.5625 268.0625 C-34.5625 294.1325 -34.5625 320.2025 -34.5625 347.0625 C-17.42501945 345.2219038 -17.42501945 345.2219038 -2.5625 337.0625 C3.12374283 328.13605176 4.5723413 319.08452443 5.25 308.75 C7.30593447 282.74319527 17.5233742 258.64056762 33.4375 238.0625 C34.81792502 236.17061316 36.19291406 234.27474824 37.5625 232.375 C39.82690335 229.24985853 42.12870494 226.16931515 44.5 223.125 C47.70721821 218.90128641 50.24710067 214.32618247 52.82421875 209.69921875 C54.4375 207.0625 54.4375 207.0625 55.89428711 205.65869141 C57.63929408 203.85377833 58.60863588 202.12406933 59.7421875 199.88671875 C60.15847412 199.06534424 60.57476074 198.24396973 61.00366211 197.39770508 C61.65153687 196.08709106 61.65153687 196.08709106 62.3125 194.75 C62.98067749 193.4055481 62.98067749 193.4055481 63.66235352 192.03393555 C67.170056 184.85608344 69.98823113 177.67129429 72.4375 170.0625 C72.73140625 169.27101562 73.0253125 168.47953125 73.328125 167.6640625 C77.62475913 155.99575217 77.84762104 143.60231922 77.8125 131.3125 C77.81118576 130.18432358 77.81118576 130.18432358 77.80984497 129.03335571 C77.7702006 118.7136112 77.4580967 108.95655544 74.11767578 99.09423828 C73.33802344 96.76535572 72.65329076 94.41600321 71.96484375 92.05859375 C68.19832721 79.57936428 62.97409463 68.32073239 56.4375 57.0625 C55.50744141 55.45761719 55.50744141 55.45761719 54.55859375 53.8203125 C50.44101355 47.07550596 45.54041278 41.08035277 40.4375 35.0625 C39.93605469 34.42570312 39.43460937 33.78890625 38.91796875 33.1328125 C34.49468849 27.60052537 29.0138824 23.3830751 23.4375 19.0625 C22.11878906 18.03769531 22.11878906 18.03769531 20.7734375 16.9921875 C14.59875201 12.34751257 8.15164115 8.46204268 1.40625 4.7265625 C-1.5625 3.0625 -1.5625 3.0625 -4.5625 1.0625 C-3.5625 0.0625 -3.5625 0.0625 0 0 Z " fill="#999897" transform="translate(250.5625,56.9375)"/>
<path d="M0 0 C1.09601186 0.00460896 2.19202372 0.00921793 3.32124805 0.01396656 C4.579081 0.00709324 5.83691395 0.00021992 7.13286304 -0.00686169 C8.52930758 0.01083411 9.92574611 0.02900816 11.32217884 0.04761219 C12.79058248 0.04902234 14.25898965 0.04823133 15.72739124 0.04539967 C19.71706351 0.04396277 23.70598693 0.07339585 27.69548488 0.10826945 C31.86347631 0.13948792 36.03148417 0.14246011 40.19957447 0.14839649 C48.09385958 0.16394828 55.98779922 0.20499458 63.88193208 0.25514394 C72.86848075 0.31099606 81.85504577 0.33851347 90.84172475 0.36362112 C109.32930193 0.41590945 127.81655736 0.50387745 146.30386829 0.61523914 C147.96499034 4.52648666 148.75995275 7.32804525 148.30386829 11.61523914 C147.29581165 13.75366688 147.29581165 13.75366688 145.30386829 15.61523914 C142.46176867 16.08423312 139.97663109 16.28920011 137.12027454 16.33789539 C136.26655262 16.36851566 135.4128307 16.39913593 134.53323841 16.43068409 C131.64457181 16.53066185 128.75580908 16.6037703 125.86636829 16.67773914 C122.7186164 16.77948377 119.57113452 16.88798266 116.42360401 16.99634266 C114.13743764 17.07435673 111.851188 17.14996089 109.56486988 17.22339344 C100.0982667 17.53206488 90.63952539 17.95050288 81.17886829 18.40039539 C79.6928654 18.47030631 78.20685768 18.54011492 76.72084522 18.60982227 C67.91188837 19.023402 67.91188837 19.023402 59.10345936 19.44803333 C50.2111614 19.88031568 41.31874245 20.25988569 32.42048359 20.54658985 C30.97460332 20.59348484 29.52877792 20.64209503 28.08300495 20.69218922 C23.59785826 20.84589152 19.11407637 20.9647454 14.62683392 21.03584385 C13.21361239 21.0624868 11.80054185 21.09930672 10.38786983 21.14687443 C-0.49528172 21.49909858 -0.49528172 21.49909858 -3.44159985 19.3305254 C-5.43423486 16.46649434 -6.22623609 13.50379598 -6.13363171 10.05273914 C-6.13234264 9.32957508 -6.13105358 8.60641102 -6.12972546 7.86133289 C-5.34538479 3.79830694 -4.22214447 0.963465 0 0 Z " fill="#807F7F" transform="translate(118.6961317062378,441.3847608566284)"/>
<path d="M0 0 C1.9752113 -0.04765419 3.9504706 -0.0933776 5.92578125 -0.13671875 C6.81724854 -0.17482666 7.70871582 -0.21293457 8.62719727 -0.25219727 C14.53376591 -0.33099821 14.53376591 -0.33099821 17.76171875 2.53125 C19.66852032 6.18156351 19.21136296 8.31786478 18.17578125 12.23828125 C15.64841859 14.76564391 14.71335714 14.521285 11.20605469 14.6171875 C10.15720093 14.65069305 9.10834717 14.68419861 8.02770996 14.71871948 C6.87516724 14.74579987 5.72262451 14.77288025 4.53515625 14.80078125 C3.33040649 14.83696564 2.12565674 14.87315002 0.88439941 14.91043091 C-1.73032554 14.98785998 -4.34487973 15.06185396 -6.95983887 15.12994385 C-11.100125 15.23777295 -15.24000836 15.35745511 -19.37988281 15.47998047 C-20.07438412 15.50051672 -20.76888542 15.52105297 -21.48443222 15.54221153 C-22.89689238 15.58399278 -24.30935143 15.62581154 -25.72180939 15.66766739 C-27.86885525 15.73086276 -30.01593543 15.7927671 -32.1630249 15.85446167 C-43.69852422 16.18860264 -55.22853189 16.62705943 -66.75952148 17.09155273 C-100.6330551 18.4545047 -100.6330551 18.4545047 -116.36901855 18.64569092 C-117.77663291 18.6654583 -119.18416072 18.69340438 -120.59143066 18.73028564 C-122.4641505 18.7769225 -124.33765779 18.78806016 -126.2109375 18.796875 C-127.23405029 18.81032959 -128.25716309 18.82378418 -129.3112793 18.83764648 C-131.82421875 18.23828125 -131.82421875 18.23828125 -133.65551758 15.86743164 C-134.92669404 13.0077493 -135.2306854 11.32742778 -134.82421875 8.23828125 C-134.16421875 7.24828125 -133.50421875 6.25828125 -132.82421875 5.23828125 C-129.90132594 4.83789551 -127.17106509 4.63057892 -124.234375 4.54296875 C-122.9152562 4.48678123 -122.9152562 4.48678123 -121.56948853 4.42945862 C-118.67559976 4.30997802 -115.78140228 4.21145386 -112.88671875 4.11328125 C-110.88838429 4.03503734 -108.89009301 3.95568314 -106.8918457 3.87524414 C-93.05163577 3.33185538 -79.20504688 2.89459861 -65.35766602 2.57958984 C-57.74507377 2.39651585 -50.17716564 2.01993332 -42.58178711 1.48120117 C-31.9865343 0.79623746 -21.36051035 0.60716088 -10.74755859 0.34228516 C-7.16409438 0.24729102 -3.58249728 0.12533674 0 0 Z " fill="#838281" transform="translate(247.82421875,472.76171875)"/>
<path d="M0 0 C0.10861833 2.70942393 0.18758577 5.414439 0.25 8.125 C0.28351563 8.88554688 0.31703125 9.64609375 0.3515625 10.4296875 C0.37089844 11.55117188 0.37089844 11.55117188 0.390625 12.6953125 C0.4220459 13.7164917 0.4220459 13.7164917 0.45410156 14.75830078 C-0.28957247 18.42949162 -1.41446077 20.26295115 -4 23 C-7.43571073 23.87868798 -10.79139117 23.76934408 -14.3203125 23.69140625 C-15.33415009 23.69003159 -16.34798767 23.68865692 -17.39254761 23.6872406 C-19.53947466 23.67817901 -21.6863823 23.65453659 -23.83300781 23.61743164 C-27.09252192 23.56304194 -30.34945668 23.55590018 -33.609375 23.55664062 C-35.7005426 23.54187796 -37.79169307 23.52438555 -39.8828125 23.50390625 C-40.84671906 23.50056778 -41.81062561 23.49722931 -42.80374146 23.49378967 C-51.93310235 23.30536071 -59.77496137 21.82311258 -66.625 15.5 C-68 14 -68 14 -70 11 C-69.54716981 4.54716981 -69.54716981 4.54716981 -67 2 C-64.84161377 1.68356323 -64.84161377 1.68356323 -62.12988281 1.58935547 C-61.1141217 1.54946503 -60.0983606 1.50957458 -59.05181885 1.46847534 C-57.39421539 1.41833786 -57.39421539 1.41833786 -55.703125 1.3671875 C-54.56276794 1.32562531 -53.42241089 1.28406311 -52.24749756 1.24124146 C-49.82319404 1.15457799 -47.3987226 1.07251102 -44.97412109 0.99462891 C-41.30657892 0.87681747 -37.63967073 0.74642026 -33.97265625 0.61328125 C-22.64740277 0.21316333 -11.33370328 -0.16566666 0 0 Z " fill="#FAFAFA" transform="translate(184,505)"/>
<path d="M0 0 C2.4803772 -0.36076355 2.4803772 -0.36076355 5.64306641 -0.34057617 C6.82413971 -0.34034958 8.00521301 -0.34012299 9.22207642 -0.33988953 C11.14242203 -0.31666374 11.14242203 -0.31666374 13.1015625 -0.29296875 C14.40829926 -0.28872391 15.71503601 -0.28447906 17.06137085 -0.28010559 C20.53691786 -0.26864632 24.01208927 -0.23917049 27.48748779 -0.20599365 C31.0332735 -0.17531569 34.57911985 -0.16160516 38.125 -0.14648438 C45.08348771 -0.11430135 52.04172583 -0.06309229 59 0 C59.76443715 2.9067675 60.16170668 5.48734074 60.1875 8.5 C60.20167969 9.2528125 60.21585938 10.005625 60.23046875 10.78125 C59.95633577 13.42036074 59.62325593 14.87906962 58 17 C54.03730424 17.86298866 50.14328171 18.16739309 46.09765625 18.31640625 C44.97029053 18.35870361 43.8429248 18.40100098 42.68139648 18.44458008 C36.45464169 18.64747575 30.22783785 18.83357625 24 19 C22.26314941 19.05317383 22.26314941 19.05317383 20.49121094 19.10742188 C17.30662054 19.19859624 14.12294722 19.26086076 10.9375 19.3125 C9.97529541 19.342229 9.01309082 19.37195801 8.02172852 19.40258789 C1.58697928 19.45823661 1.58697928 19.45823661 -1.1015625 17.359375 C-2.22182893 14.41745794 -2.36319553 12.08452254 -2.3125 8.9375 C-2.30863281 7.89464844 -2.30476563 6.85179687 -2.30078125 5.77734375 C-2 3 -2 3 0 0 Z " fill="#FAFAFA" transform="translate(125,443)"/>
<path d="M0 0 C25.41 0 50.82 0 77 0 C72.34651001 9.30697998 64.48498898 14.21908715 55 18 C41.4635756 21.17094503 25.73758203 20.34642557 13.53125 13.64453125 C8.46994305 10.49808543 3.74184992 6.66828865 0 2 C0 1.34 0 0.68 0 0 Z " fill="#4B3C35" transform="translate(151,544)"/>
<path d="M0 0 C4.95 0 9.9 0 15 0 C15 23.76 15 47.52 15 72 C10.05 72 5.1 72 0 72 C0 48.24 0 24.48 0 0 Z " fill="#DFDFDF" transform="translate(192,332)"/>
<path d="M0 0 C4.62 0 9.24 0 14 0 C14 23.76 14 47.52 14 72 C9.38 72 4.76 72 0 72 C0 48.24 0 24.48 0 0 Z " fill="#DEDEDE" transform="translate(170,332)"/>
<path d="M0 0 C4.10803709 -0.11929181 8.21470425 -0.20042808 12.32421875 -0.24353027 C13.28021973 -0.26117432 14.2362207 -0.27881836 15.22119141 -0.29699707 C17.80078125 -0.29431152 17.80078125 -0.29431152 21.69921875 0.06896973 C24.17264141 3.77910371 24.08425361 5.67957235 23.69921875 10.06896973 C22.57666016 12.25354004 22.57666016 12.25354004 20.69921875 14.06896973 C17.85302734 14.61486816 17.85302734 14.61486816 14.34765625 14.67834473 C13.03619629 14.71105469 11.72473633 14.74376465 10.37353516 14.77746582 C8.94044097 14.7924235 7.50733437 14.80623039 6.07421875 14.81896973 C4.6059385 14.84343492 3.13767625 14.86900362 1.66943359 14.89562988 C-1.40719823 14.94717542 -4.48362094 14.98461052 -7.56054688 15.01330566 C-11.50621403 15.05299436 -15.44930014 15.13869071 -19.39382935 15.23937988 C-22.42533003 15.312475 -25.45690622 15.36276038 -28.48895264 15.40698242 C-29.94357477 15.43158543 -31.39808607 15.46402193 -32.85235596 15.50439453 C-34.88415379 15.55779064 -36.91678623 15.57592602 -38.94921875 15.59240723 C-40.68437744 15.62213623 -40.68437744 15.62213623 -42.45458984 15.65246582 C-45.30078125 15.06896973 -45.30078125 15.06896973 -47.17822266 12.70031738 C-48.39493625 9.8482645 -48.70379459 8.13187113 -48.30078125 5.06896973 C-47.64078125 4.07896973 -46.98078125 3.08896973 -46.30078125 2.06896973 C-43.25180606 1.65762439 -40.38740143 1.43741214 -37.32421875 1.33850098 C-36.41414063 1.29812714 -35.5040625 1.2577533 -34.56640625 1.21615601 C-31.6032619 1.08930347 -28.63984831 0.98432952 -25.67578125 0.88146973 C-23.65834563 0.80296847 -21.64093012 0.72394841 -19.62353516 0.64440918 C-13.08329837 0.39524501 -6.54198974 0.19610697 0 0 Z " fill="#F5F5F4" transform="translate(161.30078125,475.9310302734375)"/>
<path d="M0 0 C2.64 0.33 5.28 0.66 8 1 C8 34 8 67 8 101 C5.36 101 2.72 101 0 101 C0 67.67 0 34.34 0 0 Z " fill="#8C8C8B" transform="translate(184,223)"/>
<path d="M0 0 C1.66015625 1.1796875 1.66015625 1.1796875 3.91015625 4.1171875 C4.72818256 9.207129 3.84545942 11.98961991 0.91015625 16.1171875 C-5.58281594 21.33192649 -11.97178367 22.92562993 -20.19140625 22.515625 C-23.69832217 22.03354222 -26.21998539 21.21140847 -29.08984375 19.1171875 C-31.47298013 15.54248293 -31.73822293 14.33165215 -31.08984375 10.1171875 C-27.99244982 4.27638752 -23.24862686 1.71006965 -17.1015625 -0.21875 C-11.44160207 -1.4667309 -5.47896436 -2.3144784 0 0 Z " fill="#FDFDFD" transform="translate(165.08984375,51.8828125)"/>
<path d="M0 0 C12.21 0 24.42 0 37 0 C37 0.33 37 0.66 37 1 C32.05 1 27.1 1 22 1 C22 24.76 22 48.52 22 73 C19.36 73 16.72 73 14 73 C14 49.24 14 25.48 14 1 C9.38 1 4.76 1 0 1 C0 0.67 0 0.34 0 0 Z " fill="#7F7E7D" transform="translate(170,331)"/>
<path d="M0 0 C0.33 0 0.66 0 1 0 C1 32.67 1 65.34 1 99 C-15.17 99 -31.34 99 -48 99 C-48 98.67 -48 98.34 -48 98 C-32.16 98 -16.32 98 0 98 C0 93.05 0 88.1 0 83 C-2.2275 83.061875 -4.455 83.12375 -6.75 83.1875 C-16.99866841 83.27472271 -26.86884764 81.69392688 -35 75 C-37.3125 72.375 -37.3125 72.375 -39 70 C-39.5053125 69.57460938 -40.010625 69.14921875 -40.53125 68.7109375 C-44.74139459 63.80656693 -44.28397254 54.24739582 -44 48 C-42.09578163 50.85632756 -41.70654247 51.96487365 -41.1875 55.1875 C-40.08689178 60.20953455 -38.65312182 64.27647541 -35 68 C-23.10886914 75.48279097 -14.96538278 75.21234827 0 76 C0 50.92 0 25.84 0 0 Z " fill="#9F9D9C" transform="translate(161,327)"/>
<path d="M0 0 C5.93923939 0 9.69224771 3.3076409 14 7 C14.556875 7.47695312 15.11375 7.95390625 15.6875 8.4453125 C17.28269184 10.33485522 17.53984508 11.55996955 17.8125 14 C17.90144531 14.680625 17.99039062 15.36125 18.08203125 16.0625 C18 18 18 18 16 21 C12.9499373 21.74695413 11.89292139 21.953411 9 21 C4.05528011 17.13770636 -0.11124136 12.59293207 -3 7 C-2.76271993 3.5989856 -2.430466 2.430466 0 0 Z " fill="#FCFCFD" transform="translate(265,92)"/>
<path d="M0 0 C1.77537895 0.01665459 1.77537895 0.01665459 3.58662415 0.03364563 C4.24055145 0.0329155 4.89447876 0.03218536 5.56822205 0.03143311 C7.72795314 0.03491448 9.88552235 0.073794 12.0448761 0.11299133 C13.54273297 0.12231769 15.04060509 0.12943464 16.53848267 0.13442993 C20.47951931 0.15351425 24.41963346 0.20262571 28.36030579 0.25794983 C32.38198873 0.30911241 36.40382085 0.33193747 40.42573547 0.35713196 C48.31613262 0.41074454 56.20578021 0.49607295 64.09565735 0.60127258 C64.09565735 0.93127258 64.09565735 1.26127258 64.09565735 1.60127258 C35.38565735 2.09627258 35.38565735 2.09627258 6.09565735 2.60127258 C4.74733631 5.29791466 4.92655053 7.46714779 4.90815735 10.47627258 C4.88688782 12.0502179 4.88688782 12.0502179 4.8651886 13.65596008 C5.09060797 16.5367433 5.60601418 18.16367467 7.09565735 20.60127258 C4.02195618 20.95593041 1.15958538 21.09171201 -1.90434265 20.60127258 C-5.29379985 17.37715476 -6.14438021 14.58040882 -6.34184265 10.03877258 C-6.33322359 5.20347967 -5.0968468 1.05517654 0 0 Z " fill="#B8B5B3" transform="translate(118.90434265136719,441.3987274169922)"/>
<path d="M0 0 C2.375 1.5 2.375 1.5 4 3 C3.125 9.875 3.125 9.875 2 11 C1.71390984 14.29684855 1.55109853 17.59381125 1.37890625 20.8984375 C1 24 1 24 -1 27 C-4.82053924 25.72648692 -5.23021375 24.37362475 -7.1875 20.9375 C-7.71730469 20.01839844 -8.24710938 19.09929687 -8.79296875 18.15234375 C-9.19128906 17.44207031 -9.58960938 16.73179687 -10 16 C-9.34 16 -8.68 16 -8 16 C-8.10699219 15.09636719 -8.21398437 14.19273437 -8.32421875 13.26171875 C-8.44410156 12.08222656 -8.56398437 10.90273437 -8.6875 9.6875 C-8.81511719 8.51574219 -8.94273437 7.34398437 -9.07421875 6.13671875 C-9 3 -9 3 -7.703125 1.10546875 C-5.05542911 -0.6131045 -3.07875927 -0.37699093 0 0 Z " fill="#A09F9E" transform="translate(191,189)"/>
<path d="M0 0 C4.95 0 9.9 0 15 0 C15 5.28 15 10.56 15 16 C10.05 16 5.1 16 0 16 C0 10.72 0 5.44 0 0 Z " fill="#C7C7C6" transform="translate(192,409)"/>
<path d="M0 0 C4.62 0 9.24 0 14 0 C14 5.28 14 10.56 14 16 C9.38 16 4.76 16 0 16 C0 10.72 0 5.44 0 0 Z " fill="#C8C7C7" transform="translate(170,409)"/>
<path d="M0 0 C7.59 0 15.18 0 23 0 C22 7 22 7 20.5 9.4375 C16.69645533 11.81471542 13.3591241 11.85473022 9 11 C5.70984081 9.45428763 2.58492672 7.58492672 0 5 C0 3.35 0 1.7 0 0 Z " fill="#857F7D" transform="translate(161,545)"/>
<path d="M0 0 C0.33 0 0.66 0 1 0 C1 31.02 1 62.04 1 94 C-4.28 94 -9.56 94 -15 94 C-15 93.67 -15 93.34 -15 93 C-10.05 93 -5.1 93 0 93 C0 87.72 0 82.44 0 77 C-4.95 77 -9.9 77 -15 77 C-15 75.35 -15 73.7 -15 72 C-10.05 72 -5.1 72 0 72 C0 48.24 0 24.48 0 0 Z " fill="#837F7C" transform="translate(207,332)"/>
<path d="M0 0 C2.64 0 5.28 0 8 0 C8 7.26 8 14.52 8 22 C5.36 22 2.72 22 0 22 C0 14.74 0 7.48 0 0 Z " fill="#6F6D6C" transform="translate(184,404)"/>
<path d="M0 0 C3.46743174 0.0912482 4.74723773 0.7542589 7.25 3.1875 C9.20937803 6.33650041 9.92280166 8.29447991 10 12 C8.5625 14.875 8.5625 14.875 7 17 C3.26441176 16.78653782 1.97142307 15.97452926 -0.875 13.4375 C-2.92394296 10.78479328 -3.28244732 9.07238733 -2.9375 5.75 C-2 2 -2 2 0 0 Z " fill="#FDFDFD" transform="translate(292,132)"/>
<path d="M0 0 C1.670625 0.061875 1.670625 0.061875 3.375 0.125 C3.34019531 0.86105469 3.30539063 1.59710938 3.26953125 2.35546875 C3.08273386 9.08906982 3.35709528 12.88354678 8.0625 17.9375 C8.495625 18.329375 8.92875 18.72125 9.375 19.125 C3.00929392 18.86517526 -0.28086208 16.73276634 -4.625 12.125 C-6.625 9.125 -6.625 9.125 -6.375 5.5625 C-5.34972937 0.86334293 -4.86191106 0.16765211 0 0 Z " fill="#B3B1B0" transform="translate(120.625,506.875)"/>
<path d="M0 0 C7.35678392 -0.48241206 7.35678392 -0.48241206 10 1.5 C11.41824696 5.04561739 11.6656658 8.27799767 11 12 C9.25364203 15.14344435 7.53137274 17.46862726 5 20 C4.01 20 3.02 20 2 20 C2.02320313 18.97519531 2.04640625 17.95039062 2.0703125 16.89453125 C2.08908036 15.53386149 2.10727947 14.1731838 2.125 12.8125 C2.14175781 12.13896484 2.15851563 11.46542969 2.17578125 10.77148438 C2.21538674 6.71192193 1.80020002 3.65001185 0 0 Z " fill="#89898A" transform="translate(255,503)"/>
<path d="M0 0 C1.134375 0.020625 2.26875 0.04125 3.4375 0.0625 C3.4375 0.7225 3.4375 1.3825 3.4375 2.0625 C4.51257813 2.47435547 4.51257813 2.47435547 5.609375 2.89453125 C14.0761121 6.39115334 21.42594866 11.21088432 28.4375 17.0625 C27.9425 18.5475 27.9425 18.5475 27.4375 20.0625 C23.70576493 19.45200878 21.52105513 17.79760133 18.5625 15.5 C13.08143655 11.40028273 7.37756949 8.03687981 1.40625 4.7265625 C-1.5625 3.0625 -1.5625 3.0625 -4.5625 1.0625 C-3.5625 0.0625 -3.5625 0.0625 0 0 Z " fill="#ACABAB" transform="translate(250.5625,56.9375)"/>
<path d="M0 0 C2.1640625 -0.29296875 2.1640625 -0.29296875 4.625 -0.1875 C5.44226563 -0.16042969 6.25953125 -0.13335937 7.1015625 -0.10546875 C8.04128906 -0.05326172 8.04128906 -0.05326172 9 0 C8.89300781 0.60328125 8.78601563 1.2065625 8.67578125 1.828125 C8.49595703 3.02695312 8.49595703 3.02695312 8.3125 4.25 C8.12107422 5.43335938 8.12107422 5.43335938 7.92578125 6.640625 C8.01976347 9.62827019 9.04542563 10.80926883 11 13 C7.62104609 13.28527753 4.36999296 13.43413758 1 13 C-1.48736357 10.43947868 -1.8961092 8.8726827 -2.3125 5.375 C-2 3 -2 3 0 0 Z " fill="#B4B2B1" transform="translate(115,478)"/>
<path d="M0 0 C3.25 -0.3125 3.25 -0.3125 7 0 C9.5 2.0625 9.5 2.0625 11 5 C10.68421053 11.31578947 10.68421053 11.31578947 9 13 C6.66702567 13.04092937 4.33294775 13.04241723 2 13 C1.93941406 12.31292969 1.87882812 11.62585938 1.81640625 10.91796875 C1.73261719 10.01691406 1.64882813 9.11585938 1.5625 8.1875 C1.48128906 7.29417969 1.40007812 6.40085937 1.31640625 5.48046875 C1.06510233 2.87256441 1.06510233 2.87256441 0 0 Z " fill="#AEADAD" transform="translate(256,473)"/>
<path d="M0 0 C11.22 0 22.44 0 34 0 C33.67 1.32 33.34 2.64 33 4 C33 3.01 33 2.02 33 1 C25.41 1 17.82 1 10 1 C10.66 2.98 11.32 4.96 12 7 C12.34976758 8.32911682 12.69096017 9.66082739 13 11 C8.64645044 10.50441205 6.69933969 9.19912401 3.6875 6.0625 C2.99011719 5.35222656 2.29273438 4.64195312 1.57421875 3.91015625 C0 2 0 2 0 0 Z " fill="#574841" transform="translate(151,544)"/>
<path d="M0 0 C2.97 0 5.94 0 9 0 C9.22245393 1.60226955 9.42746669 3.20696767 9.625 4.8125 C9.74101562 5.70582031 9.85703125 6.59914063 9.9765625 7.51953125 C10 10 10 10 8 13 C4.875 13.1875 4.875 13.1875 2 13 C1.93941406 12.31292969 1.87882812 11.62585938 1.81640625 10.91796875 C1.73261719 10.01691406 1.64882813 9.11585938 1.5625 8.1875 C1.48128906 7.29417969 1.40007812 6.40085937 1.31640625 5.48046875 C1.06510233 2.87256441 1.06510233 2.87256441 0 0 Z " fill="#9D9E9D" transform="translate(257,443)"/>
<path d="M0 0 C3.82516038 3.46766876 6.45754712 7.45579194 9.25 11.75 C9.70890625 12.44738281 10.1678125 13.14476562 10.640625 13.86328125 C11.76465406 15.57274211 12.88291224 17.28599512 14 19 C13.67 19.66 13.34 20.32 13 21 C8.47190438 19.44114741 6.35397979 15.92824503 3.6875 12.1875 C2.98657227 11.26227539 2.98657227 11.26227539 2.27148438 10.31835938 C0.17674388 7.40676291 -1.04919909 5.70085495 -0.79296875 2.05078125 C-0.53128906 1.37402344 -0.26960937 0.69726562 0 0 Z " fill="#878584" transform="translate(169,202)"/>
<path d="M0 0 C4.95 0 9.9 0 15 0 C15 1.65 15 3.3 15 5 C10.05 5 5.1 5 0 5 C0 3.35 0 1.7 0 0 Z " fill="#908E8C" transform="translate(192,404)"/>
<path d="M0 0 C1.90421837 2.85632756 2.29345753 3.96487365 2.8125 7.1875 C3.84601003 12.12896982 5.69172628 16.1560115 9 20 C11.62459397 21.55761769 11.62459397 21.55761769 14 22 C14 22.33 14 22.66 14 23 C13.195625 23.12375 12.39125 23.2475 11.5625 23.375 C10.716875 23.58125 9.87125 23.7875 9 24 C8.67 24.66 8.34 25.32 8 26 C1.37615767 19.66415082 0.31272898 13.65665971 -0.109375 4.671875 C-0.12203896 3.1142081 -0.07073235 1.55611165 0 0 Z " fill="#B3B2B2" transform="translate(117,375)"/>
<path d="M0 0 C4.62 0 9.24 0 14 0 C14 1.65 14 3.3 14 5 C9.38 5 4.76 5 0 5 C0 3.35 0 1.7 0 0 Z " fill="#91908F" transform="translate(170,404)"/>
<path d="M0 0 C0.33 0.66 0.66 1.32 1 2 C0.13549805 4.23071289 0.13549805 4.23071289 -1.23828125 6.97265625 C-1.72876953 7.95427734 -2.21925781 8.93589844 -2.72460938 9.94726562 C-3.24861328 10.97529297 -3.77261719 12.00332031 -4.3125 13.0625 C-4.82490234 14.09439453 -5.33730469 15.12628906 -5.86523438 16.18945312 C-9.73776786 23.86888393 -9.73776786 23.86888393 -12 25 C-10.44342875 19.24540327 -8.65999566 14.00920245 -5.8359375 8.75390625 C-4.84623009 6.87999091 -4.84623009 6.87999091 -4.5 4.125 C-4 2 -4 2 -1.9375 0.6875 C-1.298125 0.460625 -0.65875 0.23375 0 0 Z " fill="#CBCBCB" transform="translate(318,239)"/>
<path d="M0 0 C0.33 0 0.66 0 1 0 C1.22520096 13.179453 1.11865386 25.96649546 -1 39 C-1.33 39 -1.66 39 -2 39 C-2.33 36.03 -2.66 33.06 -3 30 C-2.34 30 -1.68 30 -1 30 C-0.67 20.1 -0.34 10.2 0 0 Z " fill="#B8B1AF" transform="translate(380,174)"/>
<path d="M0 0 C0.66 0.33 1.32 0.66 2 1 C-0.77603494 6.11374857 -4.15757888 9.77171925 -9 13 C-9 8.86218946 -7.28490393 7.79080004 -4.5 4.8125 C-3.6646875 3.91144531 -2.829375 3.01039062 -1.96875 2.08203125 C-0.99421875 1.05142578 -0.99421875 1.05142578 0 0 Z " fill="#695E58" transform="translate(54,54)"/>
<path d="M0 0 C0.33 0 0.66 0 1 0 C0.56179109 4.55737263 0.14958831 7.57653445 -3 11 C-3.66 10.67 -4.32 10.34 -5 10 C-5 6.62972148 -4.50175992 5.93297304 -2.5625 3.3125 C-1.88380859 2.37857422 -1.88380859 2.37857422 -1.19140625 1.42578125 C-0.79824219 0.95527344 -0.40507812 0.48476562 0 0 Z " fill="#949393" transform="translate(203,210)"/>
<path d="M0 0 C0.556875 0.28875 1.11375 0.5775 1.6875 0.875 C4.08494645 2.0413253 6.51596939 3.0339881 9 4 C9 4.33 9 4.66 9 5 C8.195625 5.12375 7.39125 5.2475 6.5625 5.375 C5.2940625 5.684375 5.2940625 5.684375 4 6 C3.67 6.66 3.34 7.32 3 8 C0.37613513 4.93882432 0 4.26826873 0 0 Z " fill="#A3A2A2" transform="translate(122,393)"/>
<path d="M0 0 C0.99 0.33 1.98 0.66 3 1 C1.02 4.63 -0.96 8.26 -3 12 C-4 10 -4 10 -3.22265625 7.6171875 C-2.83980469 6.71226562 -2.45695312 5.80734375 -2.0625 4.875 C-1.68222656 3.96492187 -1.30195313 3.05484375 -0.91015625 2.1171875 C-0.60980469 1.41851562 -0.30945313 0.71984375 0 0 Z " fill="#C4C3C3" transform="translate(310,252)"/>
<path d="M0 0 C5.75 3.625 5.75 3.625 8 7 C7.01 7.33 6.02 7.66 5 8 C2.5 5.6875 2.5 5.6875 0 3 C0 2.01 0 1.02 0 0 Z " fill="#9D9B9A" transform="translate(279,75)"/>
<path d="M0 0 C6.875 3.75 6.875 3.75 8 6 C6.02 6.33 4.04 6.66 2 7 C1.34 4.69 0.68 2.38 0 0 Z " fill="#E3E2E2" transform="translate(130,215)"/>
<path d="M0 0 C0.66 0.33 1.32 0.66 2 1 C-3 7.57142857 -3 7.57142857 -8 9 C-7.04270084 7.87411986 -6.08412105 6.7493285 -5.125 5.625 C-4.59132812 4.99851562 -4.05765625 4.37203125 -3.5078125 3.7265625 C-2.38567993 2.44163349 -1.20628025 1.20628025 0 0 Z " fill="#50433E" transform="translate(64,45)"/>
<path d="M0 0 C2.79872437 2.52788007 4.45773019 4.20411134 5 8 C4.01 7.34 3.02 6.68 2 6 C1.01 6.495 1.01 6.495 0 7 C-1.125 2.25 -1.125 2.25 0 0 Z " fill="#B4B2B2" transform="translate(169,202)"/>
<path d="M0 0 C1.32 1.32 2.64 2.64 4 4 C3.67 4.66 3.34 5.32 3 6 C1.68 5.34 0.36 4.68 -1 4 C-0.67 2.68 -0.34 1.36 0 0 Z " fill="#8E8C8A" transform="translate(179,217)"/>
</svg>
