<?xml version="1.0" encoding="UTF-8"?>
<svg id="Layer_2" data-name="Layer 2" xmlns="http://www.w3.org/2000/svg" viewBox="0 0 94.04 94.03">
  <defs>
    <style>
      .cls-1 {
        fill: #bababa;
        stroke: #231f20;
        stroke-miterlimit: 10;
      }
    </style>
  </defs>
  <g id="Layer_1-2" data-name="Layer 1">
    <path class="cls-1" d="M93.54,51.63v-9.25c0-1.47-1.19-2.66-2.66-2.66h-9.17c-1.18,0-2.22-.78-2.54-1.91-.71-2.48-1.7-4.85-2.93-7.06-.57-1.02-.39-2.28.44-3.11l6.5-6.5c1.04-1.04,1.04-2.72,0-3.76l-6.54-6.54c-1.04-1.04-2.72-1.04-3.76,0l-6.5,6.5c-.82.82-2.09,1-3.11.44-2.21-1.23-4.58-2.22-7.06-2.93-1.13-.32-1.91-1.36-1.91-2.54V3.16c0-1.47-1.19-2.66-2.66-2.66h-9.25c-1.47,0-2.66,1.19-2.66,2.66v9.16c0,1.18-.78,2.22-1.91,2.54-2.48.71-4.85,1.7-7.06,2.93-1.02.57-2.28.39-3.11-.44l-6.5-6.5c-1.04-1.04-2.72-1.04-3.76,0l-6.54,6.54c-1.04,1.04-1.04,2.72,0,3.76l6.5,6.5c.82.82,1,2.09.44,3.11-1.23,2.21-2.22,4.58-2.93,7.06-.32,1.13-1.36,1.91-2.54,1.91H3.16c-1.47,0-2.66,1.19-2.66,2.66v9.25c0,1.47,1.19,2.66,2.66,2.66h9.17c1.18,0,2.22.78,2.54,1.91.71,2.49,1.7,4.86,2.93,7.07.57,1.02.39,2.28-.44,3.11l-6.5,6.5c-1.04,1.04-1.04,2.72,0,3.76l6.54,6.54c1.04,1.04,2.72,1.04,3.75,0l6.5-6.5c.82-.82,2.09-1,3.11-.44,2.21,1.23,4.58,2.22,7.06,2.93,1.13.32,1.91,1.36,1.91,2.54v9.17c0,1.47,1.19,2.66,2.66,2.66h9.25c1.47,0,2.66-1.19,2.66-2.66v-9.17c0-1.18.78-2.22,1.91-2.54,2.48-.71,4.85-1.7,7.06-2.93,1.02-.57,2.28-.39,3.11.44l6.5,6.5c1.04,1.04,2.72,1.04,3.75,0l6.54-6.54c1.04-1.04,1.04-2.72,0-3.76l-6.5-6.5c-.82-.82-1-2.09-.44-3.11,1.23-2.22,2.22-4.59,2.93-7.07.32-1.13,1.36-1.91,2.54-1.91h9.17c1.47,0,2.66-1.19,2.66-2.66ZM63.25,52.94c-.12.46-.27.91-.44,1.35-1.55,4.17-4.61,7.6-8.51,9.63-.14.09-.29.16-.44.23-2.37,1.16-5.03,1.81-7.85,1.81-2.21,0-4.32-.4-6.27-1.13-.06-.02-.12-.04-.17-.07-4.73-1.81-8.48-5.57-10.29-10.3-.03-.06-.05-.11-.07-.17-.73-1.95-1.13-4.07-1.13-6.27,0-2.81.65-5.47,1.81-7.84.07-.15.14-.3.23-.45,2.02-3.9,5.45-6.96,9.62-8.51.44-.17.89-.32,1.35-.44,1.56-.45,3.21-.69,4.92-.69,2.27,0,4.44.42,6.44,1.2.64.24,1.25.52,1.85.84,3.25,1.69,5.91,4.35,7.6,7.6.32.6.6,1.22.84,1.86.78,1.99,1.2,4.16,1.2,6.43,0,1.71-.24,3.36-.69,4.92Z"/>
  </g>
</svg>