<?xml version="1.0" encoding="UTF-8"?>
<svg version="1.1" xmlns="http://www.w3.org/2000/svg" width="324" height="279">
<path d="M0 0 C8.66308001 0.6745841 16.26136603 1.74375132 24 6 C24 6.66 24 7.32 24 8 C24.66 8 25.32 8 26 8 C30.76744186 12.30232558 30.76744186 12.30232558 32 16 C32.66 16 33.32 16 34 16 C34 16.66 34 17.32 34 18 C34.66 18 35.32 18 36 18 C36 18.66 36 19.32 36 20 C36.66 20 37.32 20 38 20 C42.99440178 25.47773098 44.07500112 32.82477506 45 40 C44.65868166 43.63214237 43.12659614 45.18140441 40.5 47.625 C37.88193354 50.03610916 37.88193354 50.03610916 36 53 C35.34 53 34.68 53 34 53 C34 53.66 34 54.32 34 55 C31.625 57.625 31.625 57.625 29 60 C28.34 60 27.68 60 27 60 C26.67 60.99 26.34 61.98 26 63 C25.34 63 24.68 63 24 63 C24 63.66 24 64.32 24 65 C22.34614767 66.34919532 20.678298 67.68133728 19 69 C18.34 69.99 17.68 70.98 17 72 C16.34 72 15.68 72 15 72 C15 72.66 15 73.32 15 74 C13.625 75.625 13.625 75.625 12 77 C11.34 77 10.68 77 10 77 C10 77.66 10 78.32 10 79 C7.625 81.625 7.625 81.625 5 84 C4.34 84 3.68 84 3 84 C3 84.66 3 85.32 3 86 C2.34 86 1.68 86 1 86 C0.6596875 86.8353125 0.6596875 86.8353125 0.3125 87.6875 C-1.90488879 91.59432787 -5.12030041 94.30880747 -8.625 97.0625 C-11.05671298 98.88763608 -11.05671298 98.88763608 -12.6875 101.25 C-13.120625 101.8275 -13.55375 102.405 -14 103 C-14.66 103 -15.32 103 -16 103 C-16 103.66 -16 104.32 -16 105 C-16.66 105 -17.32 105 -18 105 C-18.33 105.99 -18.66 106.98 -19 108 C-19.66 108 -20.32 108 -21 108 C-21 108.66 -21 109.32 -21 110 C-23.375 112.625 -23.375 112.625 -26 115 C-26.66 115 -27.32 115 -28 115 C-28 115.66 -28 116.32 -28 117 C-28.66 117 -29.32 117 -30 117 C-30.3403125 117.8353125 -30.3403125 117.8353125 -30.6875 118.6875 C-32.90488879 122.59432787 -36.12030041 125.30880747 -39.625 128.0625 C-42.05671298 129.88763608 -42.05671298 129.88763608 -43.6875 132.25 C-44.120625 132.8275 -44.55375 133.405 -45 134 C-45.66 134 -46.32 134 -47 134 C-47 134.66 -47 135.32 -47 136 C-47.66 136 -48.32 136 -49 136 C-49.33 136.99 -49.66 137.98 -50 139 C-52.37845592 141.57666058 -54.79784831 143.84222307 -57.5625 146 C-60.14477053 148.11878607 -61.94890086 150.37202922 -64 153 C-66.625 155.8125 -66.625 155.8125 -69 158 C-69.66 158 -70.32 158 -71 158 C-71 158.66 -71 159.32 -71 160 C-71.66 160 -72.32 160 -73 160 C-73.268125 160.639375 -73.53625 161.27875 -73.8125 161.9375 C-75 164 -75 164 -78 165 C-78.28875 165.5775 -78.5775 166.155 -78.875 166.75 C-83.22401598 175.44803197 -93.59455744 178.36328293 -102.0625 181.6875 C-103.34483521 182.19579346 -103.34483521 182.19579346 -104.65307617 182.71435547 C-112.34169488 185.75650988 -120.04179166 188.77042978 -127.74853516 191.76635742 C-132.01851144 193.42819585 -136.27959576 195.10145365 -140.5078125 196.8671875 C-141.18094482 197.1461084 -141.85407715 197.4250293 -142.54760742 197.71240234 C-144.28369904 198.43590468 -146.0151388 199.17054306 -147.74609375 199.90625 C-151.55663406 201.18710389 -155.00415442 201.61737278 -159 202 C-158.42541431 197.88169397 -157.49512752 194.31942328 -155.92578125 190.47265625 C-155.29965942 188.92408936 -155.29965942 188.92408936 -154.66088867 187.34423828 C-153.99343628 185.71977783 -153.99343628 185.71977783 -153.3125 184.0625 C-152.39837563 181.81122304 -151.4843129 179.55992105 -150.5703125 177.30859375 C-150.12719727 176.22304199 -149.68408203 175.13749023 -149.22753906 174.01904297 C-147.93357411 170.83663035 -146.6661239 167.6446845 -145.40673828 164.44848633 C-143.17879166 158.79996858 -140.78792276 153.26628976 -138.21875 147.765625 C-136.37036145 143.57120483 -134.8417165 139.26351983 -133.30859375 134.9453125 C-131.91156423 131.80095353 -130.34199071 129.5135821 -128 127 C-127.34 127 -126.68 127 -126 127 C-126 126.34 -126 125.68 -126 125 C-125.34 125 -124.68 125 -124 125 C-123.731875 124.360625 -123.46375 123.72125 -123.1875 123.0625 C-122 121 -122 121 -119 120 C-118.29848848 118.6846659 -117.63474075 117.34882408 -117 116 C-115.5 114.25 -115.5 114.25 -114 113 C-113.34 113 -112.68 113 -112 113 C-111.505 111.515 -111.505 111.515 -111 110 C-110.34 110 -109.68 110 -109 110 C-109 109.34 -109 108.68 -109 108 C-106.625 105.375 -106.625 105.375 -104 103 C-103.34 103 -102.68 103 -102 103 C-102 102.34 -102 101.68 -102 101 C-101.34 101 -100.68 101 -100 101 C-100 100.34 -100 99.68 -100 99 C-99.34 99 -98.68 99 -98 99 C-97.505 97.515 -97.505 97.515 -97 96 C-95.29296875 94.3515625 -95.29296875 94.3515625 -93.1875 92.625 C-90.85417994 90.65096993 -88.91541723 88.89427153 -87 86.5 C-85.26751624 84.3343953 -83.69256448 82.82384076 -81.58935547 81.05639648 C-76.53130004 76.674999 -71.84265994 71.94060442 -67.14068985 67.18528938 C-65.53768243 65.56466763 -63.93096443 63.94780739 -62.32321167 62.33189392 C-57.75898035 57.74338186 -53.20068102 53.14900822 -48.64648438 48.55053711 C-45.84691951 45.72427042 -43.04256668 42.90282959 -40.23516464 40.08434868 C-39.16871037 39.01167792 -38.10415845 37.93711241 -37.04153824 36.86064339 C-35.56488797 35.36488533 -34.08227947 33.87528917 -32.59814453 32.38696289 C-31.75623566 31.53759659 -30.91432678 30.68823029 -30.04690552 29.81312561 C-28 28 -28 28 -26 28 C-25.731875 27.360625 -25.46375 26.72125 -25.1875 26.0625 C-24 24 -24 24 -21 23 C-20.31044731 21.67835734 -19.64755297 20.34272014 -19 19 C-17.71816519 17.53657192 -16.3806979 16.12054571 -15 14.75 C-14.29875 14.04359375 -13.5975 13.3371875 -12.875 12.609375 C-11 11 -11 11 -9 11 C-8.34 9.68 -7.68 8.36 -7 7 C-6.34 7 -5.68 7 -5 7 C-4.67 6.01 -4.34 5.02 -4 4 C-3.34 4 -2.68 4 -2 4 C-1.34 2.68 -0.68 1.36 0 0 Z " fill="#13FD06" transform="translate(276,6)"/>
<path d="M0 0 C1.18660525 1.14638135 2.35513456 2.31193209 3.5 3.5 C4.03367187 3.97824219 4.56734375 4.45648438 5.1171875 4.94921875 C6.78517511 6.81981502 7.37552745 8.42818898 8.125 10.8125 C8.36476563 11.55113281 8.60453125 12.28976563 8.8515625 13.05078125 C14.33023766 33.7443314 9.32487519 57.17764515 6.26611328 77.90698242 C1.1289898 107.04882462 1.1289898 107.04882462 7.375 134.75 C8.07625 135.6575 8.7775 136.565 9.5 137.5 C10.03625 138.345625 10.5725 139.19125 11.125 140.0625 C20.15047845 149.32549104 34.13151045 150.59558237 46.38623047 150.80249023 C55.96481941 150.83267641 65.08711802 150.32884754 74.5 148.5 C76.27905047 148.21185125 78.0591131 147.9299201 79.83984375 147.65234375 C104.73882276 143.87175376 104.73882276 143.87175376 128.7265625 136.47265625 C134.47484438 134.4567095 140.48486043 133.29967749 146.42333984 131.97558594 C149.7957678 131.20324998 153.14654107 130.35059676 156.5 129.5 C156.06303463 134.96206707 155.00321584 138.25926504 151.5 142.5 C146.40330858 146.60315917 141.74442097 148.78472715 135.5 150.625 C134.67419434 150.87797852 133.84838867 151.13095703 132.99755859 151.39160156 C126.59634016 153.30149349 120.18027471 154.72159329 113.6015625 155.859375 C110.57828724 156.38335425 110.57828724 156.38335425 108.1796875 157.45703125 C101.59992056 160.01796095 94.27196667 160.7764738 87.34326172 161.99755859 C85.54399751 162.31551203 83.7459456 162.64047385 81.94970703 162.97509766 C57.49370476 167.48156404 29.66051658 169.55811629 7.5 156.5 C6.448125 155.943125 5.39625 155.38625 4.3125 154.8125 C-3.93506065 148.03117235 -9.75314104 136.98329061 -11.5 126.5 C-11.75576297 122.4750421 -11.73417841 118.46904077 -11.6875 114.4375 C-11.6865332 112.8915918 -11.6865332 112.8915918 -11.68554688 111.31445312 C-11.6103246 97.7828015 -10.37402488 84.46309625 -8.5625 71.0625 C-8.38186312 69.69083722 -8.20185603 68.31909137 -8.02246094 66.94726562 C-7.30185174 61.44994858 -6.56891721 55.95465005 -5.79296875 50.46484375 C-3.24285051 32.30497219 -3.24285051 32.30497219 -6.5 14.5 C-10.36069211 9.95800928 -15.8988434 8.84705024 -21.65332031 8.29248047 C-23.96039788 8.19442711 -26.2533807 8.17210276 -28.5625 8.1875 C-29.41666504 8.19023926 -30.27083008 8.19297852 -31.15087891 8.19580078 C-41.70360796 8.36155045 -52.08242179 9.91821112 -62.5 11.5 C-88.04893847 15.34816656 -88.04893847 15.34816656 -99.5 7.5 C-99.83 6.51 -100.16 5.52 -100.5 4.5 C-99.79915283 4.35900879 -99.09830566 4.21801758 -98.3762207 4.07275391 C-95.18730697 3.42837432 -91.99991257 2.77676271 -88.8125 2.125 C-87.70970703 1.90328125 -86.60691406 1.6815625 -85.47070312 1.453125 C-84.40400391 1.23398438 -83.33730469 1.01484375 -82.23828125 0.7890625 C-81.25899658 0.59006348 -80.27971191 0.39106445 -79.27075195 0.18603516 C-76.54336486 -0.48926291 -74.10251591 -1.45343204 -71.5 -2.5 C-63.54574704 -4.43602116 -55.32520125 -5.18965171 -47.19458008 -5.98754883 C-45.19947569 -6.18630695 -43.20615135 -6.40267349 -41.21289062 -6.61914062 C-27.89689731 -7.94218297 -10.82434612 -9.32861829 0 0 Z " fill="#838383" transform="translate(108.5,106.5)"/>
<path d="M0 0 C2.80368235 4.20552352 3.50593959 7.965203 3 13 C1.27161896 16.26451227 -1.1611034 18.56818695 -3.82788086 21.0925293 C-4.56590942 21.83377045 -5.30393799 22.5750116 -6.06433105 23.3387146 C-8.50584169 25.77766472 -10.98409547 28.17524347 -13.46484375 30.57421875 C-15.17579103 32.26717048 -16.88438213 33.96250646 -18.5907135 35.66011047 C-23.0895392 40.12263617 -27.6208211 44.55076033 -32.15930176 48.97290039 C-36.75287804 53.46132032 -41.31288902 57.98356428 -45.87695312 62.50195312 C-52.57085016 69.11653305 -59.27410852 75.72133261 -66.00756836 82.2956543 C-66.70038406 82.97478378 -67.39319977 83.65391327 -68.10700989 84.35362244 C-72.01728044 88.16161731 -76.01597319 91.82382521 -80.15852642 95.37823486 C-83.48641404 98.30906818 -86.58886831 101.46651253 -89.7109375 104.61328125 C-90.75225327 105.65671944 -90.75225327 105.65671944 -91.81460571 106.72123718 C-94.00379169 108.91596006 -96.18945315 111.11415381 -98.375 113.3125 C-99.86304757 114.80557147 -101.35132683 116.29841207 -102.83984375 117.79101562 C-106.09485993 121.05580518 -109.34766685 124.32277692 -112.59848022 127.5917511 C-113.73072085 128.72942796 -114.865038 129.865038 -116 131 C-116.5878125 129.824375 -116.5878125 129.824375 -117.1875 128.625 C-119.24274669 125.64843582 -120.59679258 125.01176437 -124 124 C-119.81258558 119.00552457 -115.4509281 114.30691829 -110.83642578 109.70703125 C-110.14614288 109.01499603 -109.45585999 108.32296082 -108.74465942 107.60995483 C-106.48070509 105.34162883 -104.21314726 103.07694592 -101.9453125 100.8125 C-100.35864916 99.2251622 -98.77213423 97.63767605 -97.1857605 96.05004883 C-93.86716248 92.72998012 -90.54677197 89.4117174 -87.22509766 86.09472656 C-82.98297841 81.85829952 -78.74535848 77.61740486 -74.50908089 73.37513733 C-71.2353844 70.09781429 -67.95929374 66.82289285 -64.6824913 63.54867554 C-63.11976751 61.98661546 -61.55777689 60.42382151 -59.99655533 58.86026001 C-57.80757938 56.66872358 -55.61538712 54.4804536 -53.42236328 52.29296875 C-52.78729858 51.65587982 -52.15223389 51.01879089 -51.4979248 50.36239624 C-47.72287398 46.60484942 -43.82305564 43.05139723 -39.79391289 39.56820488 C-37.6496014 37.69368814 -35.61384734 35.73416439 -33.60351562 33.71704102 C-32.8433313 32.95678116 -32.08314697 32.1965213 -31.29992676 31.41322327 C-30.51001343 30.61814865 -29.7201001 29.82307404 -28.90625 29.00390625 C-28.07411987 28.17036118 -27.24198975 27.3368161 -26.38464355 26.47801208 C-23.75405065 23.84186738 -21.12697559 21.20224895 -18.5 18.5625 C-16.70596145 16.76344021 -14.91169285 14.9646098 -13.1171875 13.16601562 C-8.74212875 8.77999188 -4.36994488 4.39111858 0 0 Z " fill="#F7FF00" transform="translate(276,11)"/>
<path d="M0 0 C3.12613393 2.96160056 5.04783565 5.09567131 7 9 C-31.61 47.61 -70.22 86.22 -110 126 C-111.32 124.35 -112.64 122.7 -114 121 C-116.11660427 119.68834743 -116.11660427 119.68834743 -118 119 C-116.66861209 116.04632534 -115.21591034 113.96639873 -112.92807007 111.68083191 C-112.29740631 111.04597366 -111.66674255 110.41111542 -111.01696777 109.75701904 C-110.32607056 109.07174133 -109.63517334 108.38646362 -108.92333984 107.68041992 C-108.19462677 106.9498085 -107.4659137 106.21919708 -106.71511841 105.46644592 C-104.30191869 103.04953847 -101.88158553 100.63991457 -99.4609375 98.23046875 C-97.77865747 96.54938124 -96.09674739 94.86792345 -94.41519165 93.18611145 C-90.88583658 89.65832155 -87.35314504 86.13391882 -83.81787109 82.61206055 C-79.30042911 78.1115496 -74.78953821 73.60454359 -70.28093529 69.09517956 C-66.80497575 65.61949295 -63.32640773 62.14642693 -59.84697342 58.67421913 C-58.18391365 57.01432883 -56.52144766 55.35384339 -54.85960007 53.69273949 C-52.52657102 51.36189569 -50.19026703 49.03438432 -47.85302734 46.70776367 C-47.17427551 46.02855865 -46.49552368 45.34935364 -45.79620361 44.64956665 C-41.90340322 40.78240427 -37.89737236 37.10695968 -33.7451725 33.52002239 C-31.81055116 31.83499254 -29.96465681 30.08548204 -28.15429688 28.26782227 C-27.19420715 27.30761925 -27.19420715 27.30761925 -26.21472168 26.32801819 C-25.55605103 25.66418625 -24.89738037 25.00035431 -24.21875 24.31640625 C-23.51979614 23.61603745 -22.82084229 22.91566864 -22.10070801 22.19407654 C-19.89808461 19.98591542 -17.69898919 17.77427963 -15.5 15.5625 C-13.99502492 14.05250186 -12.48981865 12.5427341 -10.984375 11.03320312 C-7.32024171 7.35812359 -3.6592652 3.67992644 0 0 Z " fill="#F9FF00" transform="translate(281,26)"/>
<path d="M0 0 C2.9066939 0.68337374 5.40716803 1.87179208 8.04278564 3.26126099 C-7.95381945 19.3045244 -23.95610082 35.34210597 -39.96521568 51.37288666 C-47.39788437 58.81588118 -54.82866281 66.26074487 -62.25506592 73.70999146 C-68.72564136 80.20046082 -75.19968909 86.68744264 -81.67798388 93.1702075 C-85.1101242 96.60496199 -88.54046405 100.04147329 -91.96665573 103.48216248 C-95.18801794 106.7170455 -98.41398318 109.94726365 -101.64362144 113.17388344 C-102.83138153 114.36219616 -104.01741389 115.55223855 -105.20162773 116.74408531 C-106.81225246 118.36458526 -108.4288413 119.97888411 -110.04714966 121.59170532 C-110.95235037 122.49874962 -111.85755108 123.40579391 -112.79018211 124.3403244 C-114.95721436 126.26126099 -114.95721436 126.26126099 -116.95721436 126.26126099 C-117.98333384 124.61054703 -118.98029579 122.94156093 -119.95721436 121.26126099 C-121.5396671 119.50976934 -121.5396671 119.50976934 -122.95721436 118.26126099 C-122.23184605 117.53728056 -121.50647774 116.81330013 -120.75912857 116.06738091 C-118.20473386 113.50915202 -115.66265239 110.93972451 -113.12658691 108.36334229 C-112.1724079 107.39450742 -111.21819796 106.42570302 -110.26396179 105.45692444 C-109.760688 104.94589613 -109.25741421 104.43486782 -108.73888969 103.90835381 C-97.12166738 92.11381365 -85.47537402 80.34832587 -73.81275558 68.5986805 C-67.07489406 61.80917745 -60.34677168 55.01051384 -53.64031982 48.18997192 C-47.77941668 42.22941676 -41.90115981 36.28663461 -36.00138307 30.36454475 C-32.88213437 27.23226755 -29.77226787 24.09181322 -26.68309784 20.9298439 C-23.77918363 17.95803855 -20.8526354 15.01056839 -17.9070797 12.08004951 C-16.83128241 11.00150284 -15.76401724 9.91436671 -14.70619392 8.81818581 C-5.70614904 -0.49192818 -5.70614904 -0.49192818 0 0 Z " fill="#FAFE00" transform="translate(305.95721435546875,45.738739013671875)"/>
<path d="M0 0 C3.81684226 1.55500981 6.19195732 4.03595495 9 7 C-30.66666667 46.66666667 -70.33333333 86.33333333 -110 126 C-110.433125 125.030625 -110.86625 124.06125 -111.3125 123.0625 C-112.7014861 119.72268235 -112.7014861 119.72268235 -116 119 C-116.33 118.01 -116.66 117.02 -117 116 C-116.54912018 115.61999061 -116.09824036 115.23998121 -115.63369751 114.84845638 C-109.49496252 109.5846398 -103.79044784 103.92519965 -98.0859375 98.19946289 C-97.01109459 97.12433735 -95.93603033 96.04943306 -94.86076355 94.97473145 C-91.96445903 92.07871194 -89.0712319 89.17963607 -86.17857742 86.27997136 C-83.14681636 83.24192735 -80.11219268 80.20674539 -77.07788086 77.17124939 C-71.34229103 71.43256075 -65.60925347 65.69132945 -59.87714481 59.94916385 C-53.34702794 53.40784066 -46.81404598 46.86938208 -40.28083038 40.33115399 C-26.85071271 26.89060477 -13.42416932 13.4464902 0 0 Z " fill="#FAFE00" transform="translate(290,37)"/>
<path d="M0 0 C3.3125 0.125 3.3125 0.125 7 1 C8.8125 4 8.8125 4 10 7 C10.66 7.33 11.32 7.66 12 8 C12 8.66 12 9.32 12 10 C12.61101562 10.09667969 13.22203125 10.19335938 13.8515625 10.29296875 C16.48055842 11.15814741 16.96725793 11.9812392 18.375 14.3125 C20.7280779 17.89327072 23.42189343 19.64170249 27 22 C27.875 24.25 27.875 24.25 28 26 C28.66 26 29.32 26 30 26 C31.70884005 27.62339805 33.37446717 29.29319053 35 31 C35.66 31.66 36.32 32.32 37 33 C37.125 36.125 37.125 36.125 37 39 C34.37519322 40.10197584 31.74775364 41.19697241 29.1171875 42.28515625 C25.88358073 43.62493468 22.6642381 44.99644619 19.4453125 46.37109375 C17.46369876 47.20610208 15.4819268 48.04073502 13.5 48.875 C12.53239746 49.29257568 11.56479492 49.71015137 10.56787109 50.14038086 C9.64828613 50.52460205 8.72870117 50.90882324 7.78125 51.3046875 C6.95689453 51.65515137 6.13253906 52.00561523 5.28320312 52.36669922 C2.71635792 53.07867489 1.45705072 52.97335848 -1 52 C-2.38671875 50.36328125 -2.38671875 50.36328125 -3.6875 48.3125 C-7.0014029 43.58443803 -11.07094934 40.89170972 -16 38 C-15.3264527 33.83212062 -13.98645318 30.20804943 -12.3828125 26.30859375 C-11.99607864 25.36790794 -11.99607864 25.36790794 -11.60153198 24.40821838 C-11.05743856 23.08866606 -10.51101842 21.77007098 -9.96240234 20.45239258 C-9.12742532 18.44333562 -8.30354498 16.42997259 -7.48046875 14.41601562 C-6.94858183 13.12993304 -6.4160512 11.84411645 -5.8828125 10.55859375 C-5.40215332 9.39642334 -4.92149414 8.23425293 -4.42626953 7.03686523 C-3.17127673 4.36468867 -1.87686678 2.26119744 0 0 Z " fill="#AC924E" transform="translate(149,138)"/>
<path d="M0 0 C8.98017101 0.74454887 14.45614783 2.79345979 21 9 C21.9075 9.845625 22.815 10.69125 23.75 11.5625 C25.46702351 13.42260881 27.08525288 15.29479409 28.6875 17.25 C30.7042322 20.01742194 30.7042322 20.01742194 33 21 C33.6328125 23.14453125 33.6328125 23.14453125 34.125 25.8125 C34.37636719 27.12154297 34.37636719 27.12154297 34.6328125 28.45703125 C35 31 35 31 35 35 C27.35837213 34.69708862 21.96199329 32.89404297 16 28.25 C15.46093018 27.83186035 14.92186035 27.4137207 14.36645508 26.98291016 C10.80286507 24.04805724 8.45625738 20.87495776 6 17 C5.45730469 16.4946875 4.91460937 15.989375 4.35546875 15.46875 C2.41384544 13.36485846 2.01180676 11.2528266 1.3125 8.5 C1.06113281 7.5409375 0.80976563 6.581875 0.55078125 5.59375 C0 3 0 3 0 0 Z " fill="#A19949" transform="translate(280,10)"/>
<path d="M0 0 C1.98 0 3.96 0 6 0 C5.401875 0.226875 4.80375 0.45375 4.1875 0.6875 C1.83396517 1.86525302 1.83396517 1.86525302 0.62333679 4.30679321 C-1.05953403 7.09877029 -2.85754885 9.10494607 -5.16088867 11.40380859 C-5.99573288 12.24172943 -6.83057709 13.07965027 -7.6907196 13.94296265 C-8.59071182 14.83576935 -9.49070404 15.72857605 -10.41796875 16.6484375 C-11.34918045 17.57919098 -12.28039215 18.50994446 -13.23982239 19.46890259 C-15.20961847 21.43713802 -17.18271469 23.40198189 -19.15844727 25.36425781 C-21.67037977 27.85928347 -24.17576305 30.36075735 -26.67887402 32.86462975 C-28.62188146 34.80736288 -30.56750311 36.74746044 -32.51397133 38.68672562 C-33.88180032 40.04989235 -35.2481938 41.41449904 -36.61454773 42.77914429 C-40.30681653 46.4437197 -43.99842567 50.05545487 -47.94970703 53.44091797 C-52.67189503 57.5038962 -57.02061028 61.92361655 -61.39722252 66.35262299 C-62.92122172 67.89427769 -64.44896433 69.43213511 -65.97773743 70.96905518 C-70.31773396 75.33328805 -74.65185021 79.70332712 -78.98168945 84.07763672 C-81.64504116 86.76782193 -84.31328732 89.45307228 -86.98456764 92.13538361 C-87.99552881 93.15252796 -89.00459187 94.17156271 -90.01166344 95.19255829 C-91.41810853 96.61830079 -92.83135922 98.03732 -94.24487305 99.45605469 C-95.0445903 100.26322937 -95.84430756 101.07040405 -96.66825867 101.90203857 C-98.98672905 103.98805959 -101.30726596 105.44573372 -104 107 C-105.76679963 108.64117346 -107.48373659 110.33692034 -109.16015625 112.0703125 C-110.12814222 113.05870442 -111.09624463 114.04698231 -112.06445312 115.03515625 C-113.57001455 116.58431073 -115.07299785 118.13587271 -116.57348633 119.68994141 C-118.03343519 121.1981668 -119.50247825 122.69706656 -120.97265625 124.1953125 C-121.84156494 125.09266113 -122.71047363 125.99000977 -123.60571289 126.91455078 C-125.88266922 128.89780366 -127.05364375 129.65096026 -130 130 C-129.34 129.01 -128.68 128.02 -128 127 C-127.34 127 -126.68 127 -126 127 C-126 126.34 -126 125.68 -126 125 C-125.34 125 -124.68 125 -124 125 C-123.5978125 124.0409375 -123.5978125 124.0409375 -123.1875 123.0625 C-122 121 -122 121 -119 120 C-118.29848848 118.6846659 -117.63474075 117.34882408 -117 116 C-115.5 114.25 -115.5 114.25 -114 113 C-113.34 113 -112.68 113 -112 113 C-111.505 111.515 -111.505 111.515 -111 110 C-110.34 110 -109.68 110 -109 110 C-109 109.34 -109 108.68 -109 108 C-106.625 105.375 -106.625 105.375 -104 103 C-103.34 103 -102.68 103 -102 103 C-102 102.34 -102 101.68 -102 101 C-101.34 101 -100.68 101 -100 101 C-100 100.34 -100 99.68 -100 99 C-99.34 99 -98.68 99 -98 99 C-97.505 97.515 -97.505 97.515 -97 96 C-95.29296875 94.3515625 -95.29296875 94.3515625 -93.1875 92.625 C-90.85417994 90.65096993 -88.91541723 88.89427153 -87 86.5 C-85.26751624 84.3343953 -83.69256448 82.82384076 -81.58935547 81.05639648 C-76.53130004 76.674999 -71.84265994 71.94060442 -67.14068985 67.18528938 C-65.53768243 65.56466763 -63.93096443 63.94780739 -62.32321167 62.33189392 C-57.75898035 57.74338186 -53.20068102 53.14900822 -48.64648438 48.55053711 C-45.84691951 45.72427042 -43.04256668 42.90282959 -40.23516464 40.08434868 C-39.16871037 39.01167792 -38.10415845 37.93711241 -37.04153824 36.86064339 C-35.56488797 35.36488533 -34.08227947 33.87528917 -32.59814453 32.38696289 C-31.75623566 31.53759659 -30.91432678 30.68823029 -30.04690552 29.81312561 C-28 28 -28 28 -26 28 C-25.731875 27.360625 -25.46375 26.72125 -25.1875 26.0625 C-24 24 -24 24 -21 23 C-20.31044731 21.67835734 -19.64755297 20.34272014 -19 19 C-17.71816519 17.53657192 -16.3806979 16.12054571 -15 14.75 C-13.948125 13.69039062 -13.948125 13.69039062 -12.875 12.609375 C-11 11 -11 11 -9 11 C-8.34 9.68 -7.68 8.36 -7 7 C-6.34 7 -5.68 7 -5 7 C-4.67 6.01 -4.34 5.02 -4 4 C-3.34 4 -2.68 4 -2 4 C-1.34 2.68 -0.68 1.36 0 0 Z " fill="#36FF2B" transform="translate(276,6)"/>
<path d="M0 0 C2.72870404 2.72870404 2.88749276 5.1208197 3.6875 8.875 C3.95949219 10.10992187 4.23148438 11.34484375 4.51171875 12.6171875 C5.19400503 17.34406686 5.19400503 17.34406686 4 20 C2.40625 21.8515625 2.40625 21.8515625 0.5 23.625 C-2.11806646 26.03610916 -2.11806646 26.03610916 -4 29 C-4.66 29 -5.32 29 -6 29 C-6 29.66 -6 30.32 -6 31 C-8.375 33.625 -8.375 33.625 -11 36 C-11.66 36 -12.32 36 -13 36 C-13.33 36.99 -13.66 37.98 -14 39 C-14.66 39 -15.32 39 -16 39 C-16 39.66 -16 40.32 -16 41 C-17.65385233 42.34919532 -19.321702 43.68133728 -21 45 C-21.66 45.99 -22.32 46.98 -23 48 C-23.66 48 -24.32 48 -25 48 C-25 48.66 -25 49.32 -25 50 C-26.375 51.625 -26.375 51.625 -28 53 C-28.66 53 -29.32 53 -30 53 C-30 53.66 -30 54.32 -30 55 C-32.375 57.625 -32.375 57.625 -35 60 C-35.66 60 -36.32 60 -37 60 C-37 60.66 -37 61.32 -37 62 C-37.66 62 -38.32 62 -39 62 C-39.226875 62.556875 -39.45375 63.11375 -39.6875 63.6875 C-41.90488879 67.59432787 -45.12030041 70.30880747 -48.625 73.0625 C-51.05671298 74.88763608 -51.05671298 74.88763608 -52.6875 77.25 C-53.120625 77.8275 -53.55375 78.405 -54 79 C-54.66 79 -55.32 79 -56 79 C-56 79.66 -56 80.32 -56 81 C-56.66 81 -57.32 81 -58 81 C-58.33 81.99 -58.66 82.98 -59 84 C-59.66 84 -60.32 84 -61 84 C-61 84.66 -61 85.32 -61 86 C-63.375 88.625 -63.375 88.625 -66 91 C-66.66 91 -67.32 91 -68 91 C-68 91.66 -68 92.32 -68 93 C-68.66 93 -69.32 93 -70 93 C-70.3403125 93.8353125 -70.3403125 93.8353125 -70.6875 94.6875 C-72.90488879 98.59432787 -76.12030041 101.30880747 -79.625 104.0625 C-82.05671298 105.88763608 -82.05671298 105.88763608 -83.6875 108.25 C-84.120625 108.8275 -84.55375 109.405 -85 110 C-85.66 110 -86.32 110 -87 110 C-87 110.66 -87 111.32 -87 112 C-87.66 112 -88.32 112 -89 112 C-89.495 113.485 -89.495 113.485 -90 115 C-92.37845592 117.57666058 -94.79784831 119.84222307 -97.5625 122 C-100.14477053 124.11878607 -101.94890086 126.37202922 -104 129 C-106.625 131.8125 -106.625 131.8125 -109 134 C-109.66 134 -110.32 134 -111 134 C-111 134.66 -111 135.32 -111 136 C-111.66 136 -112.32 136 -113 136 C-113.268125 136.639375 -113.53625 137.27875 -113.8125 137.9375 C-115 140 -115 140 -118 141 C-118.28875 141.5775 -118.5775 142.155 -118.875 142.75 C-123.22401598 151.44803197 -133.59455744 154.36328293 -142.0625 157.6875 C-143.34483521 158.19579346 -143.34483521 158.19579346 -144.65307617 158.71435547 C-152.34169488 161.75650988 -160.04179166 164.77042978 -167.74853516 167.76635742 C-172.01851144 169.42819585 -176.27959576 171.10145365 -180.5078125 172.8671875 C-181.18094482 173.1461084 -181.85407715 173.4250293 -182.54760742 173.71240234 C-184.28369904 174.43590468 -186.0151388 175.17054306 -187.74609375 175.90625 C-191.55663406 177.18710389 -195.00415442 177.61737278 -199 178 C-198.505 176.02 -198.505 176.02 -198 174 C-198 174.99 -198 175.98 -198 177 C-197.26587891 176.69819824 -196.53175781 176.39639648 -195.77539062 176.08544922 C-183.59064816 171.08222763 -171.41897986 166.0859313 -159.0546875 161.5390625 C-151.06776548 158.55371941 -143.21109559 155.21758457 -135.33325195 151.95800781 C-133 151 -133 151 -130.70062828 150.25940704 C-127.34394224 148.69405498 -125.03700966 146.47827247 -122.45669556 143.89147949 C-121.92085606 143.36596449 -121.38501656 142.8404495 -120.83293951 142.2990098 C-119.04241899 140.53914575 -117.26272326 138.76873419 -115.48291016 136.99804688 C-114.20033704 135.73263853 -112.91719058 134.46781107 -111.6335144 133.20352173 C-108.15092987 129.76880128 -104.67850982 126.32398692 -101.20931673 122.87574577 C-99.04167676 120.72134829 -96.87254044 118.56846785 -94.70301437 116.41596985 C-87.915116 109.67982008 -81.13404638 102.93689274 -74.36171305 96.18509436 C-66.54457511 88.39200218 -58.70488131 80.62256406 -50.84510195 72.87248564 C-44.76966013 66.87894231 -38.71545582 60.86447507 -32.676844 54.83382845 C-29.07004323 51.23277937 -25.45475451 47.64135224 -21.8169136 44.07164001 C-18.39609225 40.71380681 -15.00236878 37.33078625 -11.62761307 33.9266777 C-10.38545692 32.68275866 -9.13385653 31.44818802 -7.87230682 30.2239418 C-1.09815769 24.09997261 -1.09815769 24.09997261 2.5039711 16.07493591 C2.26933677 13.53962267 1.79184794 11.410887 1 9 C0.89558594 8.02804688 0.79117188 7.05609375 0.68359375 6.0546875 C0.60238281 5.33539063 0.52117187 4.61609375 0.4375 3.875 C0.2209375 1.956875 0.2209375 1.956875 0 0 Z " fill="#F3FFF3" transform="translate(316,30)"/>
<path d="M0 0 C3.63875049 1.28912103 6.28019879 2.77634362 9.1875 5.3125 C9.86167969 5.88613281 10.53585938 6.45976562 11.23046875 7.05078125 C13.22222343 9.24478917 13.97013421 11.24624686 15 14 C11.37732706 15.5056651 7.75149451 17.00356546 4.125 18.5 C3.09246094 18.92925781 2.05992187 19.35851562 0.99609375 19.80078125 C-0.48310547 20.40986328 -0.48310547 20.40986328 -1.9921875 21.03125 C-2.90339355 21.40830078 -3.81459961 21.78535156 -4.75341797 22.17382812 C-7 23 -7 23 -9 23 C-6.54234965 15.08090444 -3.33181427 7.58014704 0 0 Z " fill="#505A50" transform="translate(131,179)"/>
<path d="M0 0 C5.92364399 3.33857039 10.24763342 7.74929834 13 14 C13.375 16.9375 13.375 16.9375 13 19 C12.67 19.33 12.34 19.66 12 20 C5.65150579 19.62655916 1.67678094 17.87691409 -2.671875 13.203125 C-6.23072046 8.83082915 -7.76509208 5.63778999 -8 0 C-4.93256346 -1.53371827 -3.29840304 -0.91622307 0 0 Z " fill="#08F605" transform="translate(295,18)"/>
<path d="M0 0 C-0.43696537 5.46206707 -1.49678416 8.75926504 -5 13 C-10.09669142 17.10315917 -14.75557903 19.28472715 -21 21.125 C-22.2387085 21.50446777 -22.2387085 21.50446777 -23.50244141 21.89160156 C-29.90365984 23.80149349 -36.31972529 25.22159329 -42.8984375 26.359375 C-45.92171276 26.88335425 -45.92171276 26.88335425 -48.3203125 27.95703125 C-54.90007944 30.51796095 -62.22803333 31.2764738 -69.15673828 32.49755859 C-70.95600249 32.81551203 -72.7540544 33.14047385 -74.55029297 33.47509766 C-85.84689388 35.55670329 -96.94984499 36.29852421 -108.4375 36.375 C-110.28492798 36.39578613 -110.28492798 36.39578613 -112.16967773 36.41699219 C-120.83827865 36.37279134 -128.60428578 35.11680973 -137 33 C-137 32.67 -137 32.34 -137 32 C-135.64567321 32.14433868 -134.29154775 32.29056661 -132.9375 32.4375 C-132.18339844 32.51871094 -131.42929688 32.59992188 -130.65234375 32.68359375 C-128.73958578 32.91177254 -126.83324425 33.19619332 -124.93359375 33.515625 C-103.13009861 36.20046452 -81.01863092 33.00465773 -59.84375 27.7109375 C-55.07274643 26.51818661 -50.2651803 25.48819291 -45.45800781 24.45214844 C-25.18057889 21.39986455 -25.18057889 21.39986455 -8 12 C-7.34 12 -6.68 12 -6 12 C-4.47700477 9.06279492 -3.19899698 6.0831351 -2 3 C-2.99 2.34 -3.98 1.68 -5 1 C-2 0 -2 0 0 0 Z " fill="#E8E8E8" transform="translate(265,236)"/>
<path d="M0 0 C0 3.57540688 -0.96697072 4.32800436 -3.38247681 6.7890625 C-4.13046036 7.52793701 -4.13046036 7.52793701 -4.89355469 8.28173828 C-5.41382233 8.80726288 -5.93408997 9.33278748 -6.47012329 9.87423706 C-8.19655405 11.61389948 -9.93376324 13.3423262 -11.671875 15.0703125 C-12.87342581 16.27388344 -14.07453093 17.47789947 -15.27520752 18.68234253 C-17.79580454 21.20736746 -20.32176076 23.72687404 -22.8515625 26.24267578 C-26.09452842 29.46856811 -29.32386627 32.70771462 -32.54929733 35.95112801 C-35.02828248 38.44095393 -37.51436921 40.92358966 -40.00266266 43.40410995 C-41.19618282 44.59562798 -42.38747601 45.78938102 -43.57649994 46.98538589 C-45.24013843 48.65664141 -46.91308894 50.31798007 -48.58886719 51.97705078 C-49.07942596 52.47368225 -49.56998474 52.97031372 -50.07540894 53.48199463 C-52.57860201 55.93913987 -54.44179426 57.60160171 -58 58 C-57.34 57.01 -56.68 56.02 -56 55 C-55.34 55 -54.68 55 -54 55 C-54 54.34 -54 53.68 -54 53 C-53.34 53 -52.68 53 -52 53 C-51.5978125 52.0409375 -51.5978125 52.0409375 -51.1875 51.0625 C-50 49 -50 49 -47 48 C-46.29848848 46.6846659 -45.63474075 45.34882408 -45 44 C-43.5 42.25 -43.5 42.25 -42 41 C-41.34 41 -40.68 41 -40 41 C-39.67 40.01 -39.34 39.02 -39 38 C-38.34 38 -37.68 38 -37 38 C-37 37.34 -37 36.68 -37 36 C-34.625 33.375 -34.625 33.375 -32 31 C-31.34 31 -30.68 31 -30 31 C-30 30.34 -30 29.68 -30 29 C-29.34 29 -28.68 29 -28 29 C-28 28.34 -28 27.68 -28 27 C-27.34 27 -26.68 27 -26 27 C-25.505 25.515 -25.505 25.515 -25 24 C-23.29296875 22.3515625 -23.29296875 22.3515625 -21.1875 20.625 C-18.85417994 18.65096993 -16.91541723 16.89427153 -15 14.5 C-12.60726239 11.50907799 -9.8781681 9.19674827 -6.97265625 6.71484375 C-4.52202077 4.58448934 -2.2596163 2.33022931 0 0 Z " fill="#59FF59" transform="translate(204,78)"/>
<path d="M0 0 C0 0.66 0 1.32 0 2 C-1.22589844 2.46148437 -2.45179688 2.92296875 -3.71484375 3.3984375 C-13.80693311 7.21250472 -23.86057349 11.11116674 -33.875 15.125 C-34.93315918 15.54821533 -35.99131836 15.97143066 -37.08154297 16.4074707 C-41.61136755 18.22300968 -46.13560052 20.04789574 -50.63671875 21.93359375 C-51.31299316 22.21380371 -51.98926758 22.49401367 -52.68603516 22.78271484 C-54.39933077 23.49469327 -56.10812159 24.2174873 -57.81640625 24.94140625 C-61.59358748 26.19737694 -65.04260813 26.61758102 -69 27 C-68.67 25.68 -68.34 24.36 -68 23 C-68 23.99 -68 24.98 -68 26 C-67.26587891 25.69819824 -66.53175781 25.39639648 -65.77539062 25.08544922 C-41.18520425 14.98838302 -41.18520425 14.98838302 -29.0625 10.546875 C-22.72692661 8.1808121 -16.50033082 5.52288208 -10.27026367 2.89404297 C-9.37025635 2.51908691 -8.47024902 2.14413086 -7.54296875 1.7578125 C-6.73883545 1.4189502 -5.93470215 1.08008789 -5.10620117 0.73095703 C-3 0 -3 0 0 0 Z " fill="#DEFFDE" transform="translate(186,181)"/>
<path d="M0 0 C0.99 0.33 1.98 0.66 3 1 C2.08833938 7.57015992 -0.29219639 13.21545651 -2.8125 19.3125 C-3.25142578 20.42173828 -3.69035156 21.53097656 -4.14257812 22.67382812 C-4.57634766 23.72634766 -5.01011719 24.77886719 -5.45703125 25.86328125 C-6.0444812 27.30634644 -6.0444812 27.30634644 -6.64379883 28.77856445 C-8 31 -8 31 -10.15893555 31.82104492 C-10.76648682 31.8801001 -11.37403809 31.93915527 -12 32 C-11.20012884 28.18156746 -9.72175585 24.65915508 -8.25 21.0625 C-7.71020619 19.72946257 -7.17115859 18.39612275 -6.6328125 17.0625 C-6.36114258 16.38960937 -6.08947266 15.71671875 -5.80957031 15.0234375 C-3.81503061 10.03829122 -1.91212036 5.01720077 0 0 Z " fill="#1AFC18" transform="translate(143,140)"/>
<path d="M0 0 C5.20824706 1.46481949 9.51460171 4.93641648 13 9 C13.734375 11.73046875 13.734375 11.73046875 14 14 C9.47053917 13.53280037 7.68243057 12.10680359 4.75 8.6875 C3.72132813 7.51767578 3.72132813 7.51767578 2.671875 6.32421875 C1.08049188 4.11189876 0.41388338 2.65980934 0 0 Z " fill="#4D614D" transform="translate(290,20)"/>
<path d="M0 0 C2.72870404 2.72870404 2.88749276 5.1208197 3.6875 8.875 C3.95949219 10.10992187 4.23148437 11.34484375 4.51171875 12.6171875 C5.19400503 17.34406686 5.19400503 17.34406686 4 20 C2.40625 21.8515625 2.40625 21.8515625 0.5 23.625 C-2.11806646 26.03610916 -2.11806646 26.03610916 -4 29 C-4.66 29 -5.32 29 -6 29 C-6 29.66 -6 30.32 -6 31 C-7.62553283 32.70680947 -9.29115995 34.37660195 -11 36 C-11.99 35.67 -12.98 35.34 -14 35 C-13.51007568 34.56768066 -13.02015137 34.13536133 -12.51538086 33.68994141 C-10.2937393 31.69816132 -8.11658892 29.66320744 -5.9375 27.625 C-4.78024414 26.60599609 -4.78024414 26.60599609 -3.59960938 25.56640625 C0.60661264 21.68028019 0.60661264 21.68028019 2.29272461 16.40966797 C2.03976514 13.86684663 1.59346364 11.48332581 1 9 C0.89558594 8.02804688 0.79117187 7.05609375 0.68359375 6.0546875 C0.56177734 4.97574219 0.56177734 4.97574219 0.4375 3.875 C0.293125 2.59625 0.14875 1.3175 0 0 Z " fill="#E9FFE9" transform="translate(316,30)"/>
<path d="M0 0 C0 0.66 0 1.32 0 2 C-0.85996582 2.3242395 -0.85996582 2.3242395 -1.73730469 2.6550293 C-4.40900389 3.66374846 -7.07963424 4.67525609 -9.75 5.6875 C-10.70688721 6.049646 -11.66377441 6.41179199 -12.6496582 6.78491211 C-18.81522232 9.1308417 -24.89645908 11.58882932 -30.91796875 14.28515625 C-31.60503906 14.52105469 -32.29210937 14.75695312 -33 15 C-33.66 14.67 -34.32 14.34 -35 14 C-29.69618578 10.64870232 -24.05159299 8.4226458 -18.25195312 6.07397461 C-16.37078943 5.31079178 -14.49393311 4.53764569 -12.6171875 3.76367188 C-11.43125 3.28091797 -10.2453125 2.79816406 -9.0234375 2.30078125 C-7.39801025 1.63816284 -7.39801025 1.63816284 -5.73974609 0.9621582 C-3 0 -3 0 0 0 Z " fill="#E7FFE7" transform="translate(186,181)"/>
<path d="M0 0 C0.33 0.99 0.66 1.98 1 3 C1.66 3.33 2.32 3.66 3 4 C2.43613497 5.65260442 1.84821283 7.29701637 1.25 8.9375 C0.76273438 10.31228516 0.76273438 10.31228516 0.265625 11.71484375 C-1 14 -1 14 -3.140625 14.81640625 C-3.75421875 14.87699219 -4.3678125 14.93757812 -5 15 C-4.24029922 11.64132288 -3.12906745 8.47876342 -1.9375 5.25 C-1.57527344 4.26515625 -1.21304688 3.2803125 -0.83984375 2.265625 C-0.56269531 1.51796875 -0.28554687 0.7703125 0 0 Z " fill="#4EFD4C" transform="translate(136,157)"/>
<path d="M0 0 C0.33 0.66 0.66 1.32 1 2 C1.66 2.33 2.32 2.66 3 3 C2.01 5.31 1.02 7.62 0 10 C-0.66 10 -1.32 10 -2 10 C-2.66 10.66 -3.32 11.32 -4 12 C-3.33501617 7.61110675 -1.81242323 4.0188515 0 0 Z " fill="#44FA44" transform="translate(125,185)"/>
<path d="M0 0 C0.66 0 1.32 0 2 0 C3.24588984 1.47539586 4.48812639 2.95449544 5.69140625 4.46484375 C7.25981645 6.3047996 8.99275368 7.66183579 11 9 C8 10 8 10 6.2109375 9.1796875 C1.20817844 5.62453532 1.20817844 5.62453532 0.0625 2.1875 C0.0315625 1.1046875 0.0315625 1.1046875 0 0 Z " fill="#95A144" transform="translate(289,28)"/>
<path d="M0 0 C0.99 0.33 1.98 0.66 3 1 C2.25 6.75 2.25 6.75 0 9 C-0.99 9.33 -1.98 9.66 -3 10 C-2.01 6.7 -1.02 3.4 0 0 Z " fill="#44FC41" transform="translate(143,140)"/>
<path d="M0 0 C0.66 0.33 1.32 0.66 2 1 C-2.18586481 4.18923033 -4.70558305 5.50423019 -10 5 C-6.76527494 2.84351662 -3.62848922 1.38542316 0 0 Z " fill="#D7FFD7" transform="translate(150,194)"/>
<path d="M0 0 C1 3 1 3 0 6 C-2.0625 6.6875 -2.0625 6.6875 -4 7 C-3.43628586 3.73045798 -2.50037734 2.17424117 0 0 Z " fill="#32FD30" transform="translate(135,165)"/>
</svg>
