<?xml version="1.0" encoding="UTF-8"?>
<svg id="Layer_2" data-name="Layer 2" xmlns="http://www.w3.org/2000/svg" viewBox="0 0 139.37 64.48">
  <defs>
    <style>
      .cls-1 {
        fill: #ffe09b;
      }

      .cls-1, .cls-2 {
        stroke: #231f20;
        stroke-miterlimit: 10;
      }

      .cls-2 {
        fill: none;
      }

      .cls-3 {
        fill: #50ab47;
      }
    </style>
  </defs>
  <g id="Layer_1-2" data-name="Layer 1">
    <path class="cls-3" d="M134.3,42.93C134.3,19.22,105.84,0,70.75,0S7.2,19.22,7.2,42.93c0,3.3.57,6.5,1.61,9.58h123.88c1.04-3.08,1.61-6.29,1.61-9.58Z"/>
    <rect class="cls-1" x="112.62" y="41.06" width="8.76" height="22.92" rx="4.38" ry="4.38"/>
    <rect class="cls-1" x="103.88" y="41.06" width="8.76" height="22.92" rx="4.38" ry="4.38"/>
    <rect class="cls-1" x="130.11" y="41.06" width="8.76" height="22.92" rx="4.38" ry="4.38"/>
    <rect class="cls-1" x="121.35" y="41.06" width="8.76" height="22.92" rx="4.38" ry="4.38"/>
    <rect class="cls-1" x="17.99" y="41.06" width="8.76" height="22.92" rx="4.38" ry="4.38" transform="translate(44.75 105.04) rotate(180)"/>
    <rect class="cls-1" x="26.73" y="41.06" width="8.76" height="22.92" rx="4.38" ry="4.38" transform="translate(62.22 105.04) rotate(-180)"/>
    <rect class="cls-1" x=".5" y="41.06" width="8.76" height="22.92" rx="4.38" ry="4.38" transform="translate(9.76 105.04) rotate(-180)"/>
    <rect class="cls-1" x="9.26" y="41.06" width="8.76" height="22.92" rx="4.38" ry="4.38" transform="translate(27.29 105.04) rotate(180)"/>
    <line class="cls-2" x1="35.49" y1="52.52" x2="103.88" y2="52.52"/>
  </g>
</svg>