<?xml version="1.0" encoding="UTF-8"?>
<svg id="Layer_2" data-name="Layer 2" xmlns="http://www.w3.org/2000/svg" viewBox="0 0 513.22 24.63">
  <defs>
    <style>
      .cls-1 {
        fill: #d2e5e3;
        stroke: #000;
        stroke-miterlimit: 10;
      }
    </style>
  </defs>
  <g id="Layer_1-2" data-name="Layer 1">
    <path class="cls-1" d="M512.72,5.02c0,10.55-8.91,19.11-19.91,19.11H20.41c-5.5,0-10.47-2.14-14.07-5.6C2.73,15.07.5,10.29.5,5.02h.06c-.03-.18-.06-.36-.06-.55C.5,2.28,2.35.5,4.64.5s4.14,1.78,4.14,3.97c0,.19-.03.37-.05.55h.05c0,7.18,6.13,13.06,13.61,13.06h65.33c3.74,0,7.15-1.47,9.61-3.84,2.47-2.37,4-5.63,4-9.22,0-2.23,1.9-4.05,4.21-4.05h402.99c2.31,0,4.21,1.82,4.21,4.05Z"/>
  </g>
</svg>