<?xml version="1.0" encoding="UTF-8"?>
<svg id="Layer_2" data-name="Layer 2" xmlns="http://www.w3.org/2000/svg" viewBox="0 0 513.22 24.35">
  <defs>
    <style>
      .cls-1 {
        fill: #d2e5e3;
        stroke: #000;
        stroke-miterlimit: 10;
      }
    </style>
  </defs>
  <g id="Layer_1-2" data-name="Layer 1">
    <path class="cls-1" d="M512.72,4.74c0,10.56-8.91,19.11-19.91,19.11H20.41C9.42,23.85.5,15.3.5,4.74c0-1.17.5-2.23,1.3-2.99.8-.77,1.91-1.25,3.11-1.25h100.1c2.43,0,4.42,1.91,4.42,4.24h.31c0,7.19,6.13,13.07,13.62,13.07h65.32c7.48,0,13.61-5.88,13.61-13.07,0-1.17.5-2.23,1.3-2.99.79-.77,1.9-1.25,3.11-1.25h301.6c2.43,0,4.42,1.91,4.42,4.24Z"/>
  </g>
</svg>