<?xml version="1.0" encoding="UTF-8"?>
<svg id="Layer_2" data-name="Layer 2" xmlns="http://www.w3.org/2000/svg" viewBox="0 0 513.22 24.08">
  <defs>
    <style>
      .cls-1 {
        fill: #d2e5e3;
        stroke: #000;
        stroke-miterlimit: 10;
      }
    </style>
  </defs>
  <g id="Layer_1-2" data-name="Layer 1">
    <path class="cls-1" d="M512.72,4.47c0,10.55-8.92,19.11-19.9,19.11H20.55C9.97,23.58,1.31,15.65.69,5.65c0-.01,0-.02-.01-.02-.11-.37-.18-.76-.18-1.16,0-1.1.47-2.09,1.21-2.81.75-.71,1.78-1.16,2.92-1.16h201.88c2.28,0,4.13,1.78,4.13,3.97,0,7.18,6.12,13.06,13.61,13.06h65.3c7.48,0,13.6-5.88,13.6-13.06,0-1.1.47-2.09,1.22-2.81.75-.71,1.78-1.16,2.92-1.16h201.31c2.27,0,4.12,1.78,4.12,3.97Z"/>
  </g>
</svg>