<?xml version="1.0" encoding="UTF-8"?>
<svg id="Layer_2" data-name="Layer 2" xmlns="http://www.w3.org/2000/svg" viewBox="0 0 513.22 24.62">
  <defs>
    <style>
      .cls-1 {
        fill: none;
      }

      .cls-1, .cls-2 {
        stroke: #000;
        stroke-miterlimit: 10;
      }

      .cls-2 {
        fill: #d2e5e3;
      }
    </style>
  </defs>
  <g id="Layer_1-2" data-name="Layer 1">
    <path class="cls-2" d="M512.68,5.01h.04c0,10.55-8.91,19.11-19.91,19.11H20.41c-5.5,0-10.47-2.14-14.07-5.6S.5,10.29.5,5.01h.04c-.03-.18-.04-.36-.04-.55C.5,2.27,2.35.5,4.64.5h302.59c2.28,0,4.14,1.77,4.14,3.96,0,.19-.01.37-.04.55h.04c0,7.19,6.13,13.07,13.62,13.07h65.32c7.48,0,13.61-5.88,13.61-13.07h.01c-.03-.18-.04-.36-.04-.55,0-2.19,1.85-3.96,4.14-3.96h100.58c2.28,0,4.14,1.77,4.14,3.96,0,.19-.01.37-.04.55Z"/>
    <line class="cls-1" x1="256.73" y1=".5" x2="256.5" y2=".5"/>
  </g>
</svg>