<?xml version="1.0" encoding="UTF-8"?>
<svg id="Layer_2" data-name="Layer 2" xmlns="http://www.w3.org/2000/svg" viewBox="0 0 513.94 24.62">
  <defs>
    <style>
      .cls-1 {
        fill: #d2e5e3;
        stroke: #000;
        stroke-miterlimit: 10;
      }
    </style>
  </defs>
  <g id="Layer_1-2" data-name="Layer 1">
    <path class="cls-1" d="M513.44,5.01c0,10.56-8.93,19.11-19.94,19.11H20.44C9.42,24.12.5,15.57.5,5.01h.04c-.03-.18-.04-.36-.04-.54C.5,2.28,2.35.5,4.64.5h403.7c2.28,0,4.14,1.78,4.14,3.97,0,.18-.01.36-.04.54h.04c0,7.19,6.13,13.07,13.64,13.07h65.41c7.49,0,13.63-5.88,13.63-13.07,0-2.19,1.86-3.96,4.14-3.96s4.14,1.77,4.14,3.96Z"/>
  </g>
</svg>