<?xml version="1.0" encoding="UTF-8"?>
<svg version="1.1" xmlns="http://www.w3.org/2000/svg" width="384" height="585">
<path d="M0 0 C0.79435959 -0.0096579 1.58871918 -0.0193158 2.40715027 -0.02926636 C4.99804298 -0.05422645 7.5886872 -0.06668772 10.1796875 -0.07421875 C11.49808121 -0.07864487 11.49808121 -0.07864487 12.84310913 -0.0831604 C37.05499574 -0.10167926 58.45800935 4.32048584 81.1484375 12.54785156 C82.68758275 13.10531862 84.23001716 13.65369949 85.7734375 14.19921875 C110.04064733 23.25786899 132.09668827 39.80770309 150.0546875 58.23828125 C150.89 59.02332031 150.89 59.02332031 151.7421875 59.82421875 C172.50144393 79.66270171 187.0322836 106.25080529 196.0546875 133.23828125 C196.45558594 134.38296875 196.85648437 135.52765625 197.26953125 136.70703125 C200.86955614 147.90107091 201.90232302 159.58484792 203.0546875 171.23828125 C203.18085449 172.44629395 203.18085449 172.44629395 203.30957031 173.67871094 C204.38074357 184.49897652 203.95310984 195.21507769 203.3046875 206.05078125 C203.23096924 207.33799072 203.15725098 208.6252002 203.08129883 209.95141602 C200.52031787 247.30244892 183.32788935 282.19732476 159.51318359 310.49609375 C156.90814368 313.60783878 154.39322589 316.79063022 151.875 319.97265625 C150.64494455 321.50362655 149.38873364 323.01389016 148.109375 324.50390625 C132.24931965 343.28718749 124.55282355 366.05026836 123.71411133 390.3815918 C123.1517392 406.59405789 121.74703952 419.93054229 110.0546875 432.23828125 C109.33667969 432.60695313 108.61867188 432.975625 107.87890625 433.35546875 C105.60810513 435.26998831 105.60810513 435.26998831 105.98828125 439.15234375 C106.14086838 440.72422543 106.30966772 442.29459346 106.4921875 443.86328125 C107.04769799 450.01592544 107.19381434 454.64088837 104.6953125 460.41015625 C103.61702972 463.48720712 104.29909885 466.15296095 105.0546875 469.23828125 C105.3846875 469.89828125 105.7146875 470.55828125 106.0546875 471.23828125 C106.20716148 473.77462718 106.29232442 476.26318662 106.3046875 478.80078125 C106.31008545 479.5273291 106.3154834 480.25387695 106.32104492 481.00244141 C106.28336291 485.06574287 105.96038627 488.3183228 104.3671875 492.11328125 C102.53922011 496.56472035 103.69752176 499.36263737 105.26953125 503.765625 C107.47490502 510.71090658 106.21807304 517.78941458 103.0546875 524.23828125 C97.38760951 532.92780084 90.65565254 538.34100063 81.0546875 542.23828125 C79.41492716 542.52542822 77.76858485 542.77815239 76.1171875 542.98828125 C73.89569372 543.31010919 73.89569372 543.31010919 72.0546875 544.23828125 C70.89740734 546.36380377 70.41227569 548.37433725 69.85546875 550.7265625 C68.39895957 555.29502787 65.11441214 558.63241222 62.0546875 562.23828125 C61.42691406 563.0684375 60.79914063 563.89859375 60.15234375 564.75390625 C51.18834718 575.3704832 35.75886309 582.69395283 22.0546875 584.23828125 C18.92823292 584.39448249 15.80965435 584.42328128 12.6796875 584.42578125 C11.88046875 584.43802734 11.08125 584.45027344 10.2578125 584.46289062 C-6.83425139 584.50437622 -22.26465301 577.20579286 -34.62109375 565.6640625 C-39.36570848 560.71212007 -43.1951454 555.47914789 -45.4453125 548.98828125 C-47.12020758 545.3299578 -49.50557418 544.30892883 -53.17211914 542.85668945 C-54.5234657 542.36014664 -55.87684837 541.8691112 -57.23217773 541.38354492 C-67.33508176 537.76017165 -75.01666128 530.83618099 -79.9453125 521.23828125 C-82.02326836 514.58301004 -81.90027256 506.95252006 -79.1953125 500.55078125 C-78.17925217 497.93805469 -77.76332292 496.79967283 -78.63671875 494.10546875 C-79.39695776 492.6273734 -80.16547402 491.15351157 -80.94140625 489.68359375 C-83.47298498 483.51718019 -82.34684659 476.47195408 -80.7578125 470.17578125 C-79.59650461 465.18616185 -80.68170695 461.63082268 -82.203125 456.82421875 C-83.49657765 452.31755741 -83.35427926 448.18449896 -82.39453125 443.6171875 C-81.85269928 440.63504359 -81.55513505 438.25131825 -81.9453125 435.23828125 C-83.90117495 432.69389006 -86.10290112 430.78004168 -88.515625 428.66796875 C-98.3857306 418.79786315 -98.85891427 404.29635606 -99.22680664 391.21972656 C-99.54701345 379.93975188 -100.51838008 370.01422464 -103.9453125 359.23828125 C-104.28369141 357.99498047 -104.28369141 357.99498047 -104.62890625 356.7265625 C-109.24082824 340.77103115 -120.56973999 327.76934241 -130.9453125 315.23828125 C-143.9814008 299.24400368 -155.21255461 282.95450183 -163.9453125 264.23828125 C-164.25355957 263.58408203 -164.56180664 262.92988281 -164.87939453 262.25585938 C-184.02304293 220.96042115 -184.18066444 170.11060032 -168.984375 127.6015625 C-160.31346998 104.34570825 -148.01522442 84.10803263 -131.9453125 65.23828125 C-131.26597656 64.43519531 -130.58664063 63.63210937 -129.88671875 62.8046875 C-125.56900403 57.81364495 -120.99643694 53.47168572 -115.9453125 49.23828125 C-114.96433594 48.38105469 -113.98335938 47.52382813 -112.97265625 46.640625 C-105.9817044 40.55490772 -98.82399498 35.15512652 -90.9453125 30.23828125 C-90.37586914 29.87492676 -89.80642578 29.51157227 -89.21972656 29.13720703 C-80.94213937 23.86535968 -72.56834799 19.50893452 -63.50390625 15.74609375 C-61.25369184 14.79265494 -59.02967344 13.77236895 -56.8515625 12.6640625 C-51.77789531 10.17496502 -46.36258905 8.79859715 -40.9453125 7.23828125 C-39.74003906 6.88378906 -38.53476563 6.52929688 -37.29296875 6.1640625 C-29.53077772 3.9730558 -21.98403496 2.53484592 -13.9921875 1.6328125 C-1.49770972 0.01493781 -1.49770972 0.01493781 0 0 Z " fill="#FDD540" transform="translate(178.9453125,-0.23828125)"/>
<path d="M0 0 C0.79435959 -0.0096579 1.58871918 -0.0193158 2.40715027 -0.02926636 C4.99804298 -0.05422645 7.5886872 -0.06668772 10.1796875 -0.07421875 C11.49808121 -0.07864487 11.49808121 -0.07864487 12.84310913 -0.0831604 C37.05499574 -0.10167926 58.45800935 4.32048584 81.1484375 12.54785156 C82.68758275 13.10531862 84.23001716 13.65369949 85.7734375 14.19921875 C110.04064733 23.25786899 132.09668827 39.80770309 150.0546875 58.23828125 C150.89 59.02332031 150.89 59.02332031 151.7421875 59.82421875 C172.50144393 79.66270171 187.0322836 106.25080529 196.0546875 133.23828125 C196.45558594 134.38296875 196.85648437 135.52765625 197.26953125 136.70703125 C200.86955614 147.90107091 201.90232302 159.58484792 203.0546875 171.23828125 C203.18085449 172.44629395 203.18085449 172.44629395 203.30957031 173.67871094 C204.38074357 184.49897652 203.95310984 195.21507769 203.3046875 206.05078125 C203.23096924 207.33799072 203.15725098 208.6252002 203.08129883 209.95141602 C200.52031787 247.30244892 183.32788935 282.19732476 159.51318359 310.49609375 C156.90814368 313.60783878 154.39322589 316.79063022 151.875 319.97265625 C150.64494455 321.50362655 149.38873364 323.01389016 148.109375 324.50390625 C132.24931965 343.28718749 124.55282355 366.05026836 123.71411133 390.3815918 C123.1517392 406.59405789 121.74703952 419.93054229 110.0546875 432.23828125 C109.33667969 432.60695313 108.61867188 432.975625 107.87890625 433.35546875 C105.60810513 435.26998831 105.60810513 435.26998831 105.98828125 439.15234375 C106.14086838 440.72422543 106.30966772 442.29459346 106.4921875 443.86328125 C107.04769799 450.01592544 107.19381434 454.64088837 104.6953125 460.41015625 C103.61702972 463.48720712 104.29909885 466.15296095 105.0546875 469.23828125 C105.3846875 469.89828125 105.7146875 470.55828125 106.0546875 471.23828125 C106.20716148 473.77462718 106.29232442 476.26318662 106.3046875 478.80078125 C106.31008545 479.5273291 106.3154834 480.25387695 106.32104492 481.00244141 C106.28336291 485.06574287 105.96038627 488.3183228 104.3671875 492.11328125 C102.53922011 496.56472035 103.69752176 499.36263737 105.26953125 503.765625 C107.47490502 510.71090658 106.21807304 517.78941458 103.0546875 524.23828125 C97.38760951 532.92780084 90.65565254 538.34100063 81.0546875 542.23828125 C79.41492716 542.52542822 77.76858485 542.77815239 76.1171875 542.98828125 C73.89569372 543.31010919 73.89569372 543.31010919 72.0546875 544.23828125 C70.89740734 546.36380377 70.41227569 548.37433725 69.85546875 550.7265625 C68.39895957 555.29502787 65.11441214 558.63241222 62.0546875 562.23828125 C61.42691406 563.0684375 60.79914063 563.89859375 60.15234375 564.75390625 C51.18834718 575.3704832 35.75886309 582.69395283 22.0546875 584.23828125 C18.92823292 584.39448249 15.80965435 584.42328128 12.6796875 584.42578125 C11.88046875 584.43802734 11.08125 584.45027344 10.2578125 584.46289062 C-6.83425139 584.50437622 -22.26465301 577.20579286 -34.62109375 565.6640625 C-39.36570848 560.71212007 -43.1951454 555.47914789 -45.4453125 548.98828125 C-47.12020758 545.3299578 -49.50557418 544.30892883 -53.17211914 542.85668945 C-54.5234657 542.36014664 -55.87684837 541.8691112 -57.23217773 541.38354492 C-67.33508176 537.76017165 -75.01666128 530.83618099 -79.9453125 521.23828125 C-82.02326836 514.58301004 -81.90027256 506.95252006 -79.1953125 500.55078125 C-78.17925217 497.93805469 -77.76332292 496.79967283 -78.63671875 494.10546875 C-79.39695776 492.6273734 -80.16547402 491.15351157 -80.94140625 489.68359375 C-83.47298498 483.51718019 -82.34684659 476.47195408 -80.7578125 470.17578125 C-79.59650461 465.18616185 -80.68170695 461.63082268 -82.203125 456.82421875 C-83.49657765 452.31755741 -83.35427926 448.18449896 -82.39453125 443.6171875 C-81.85269928 440.63504359 -81.55513505 438.25131825 -81.9453125 435.23828125 C-83.90117495 432.69389006 -86.10290112 430.78004168 -88.515625 428.66796875 C-98.3857306 418.79786315 -98.85891427 404.29635606 -99.22680664 391.21972656 C-99.54701345 379.93975188 -100.51838008 370.01422464 -103.9453125 359.23828125 C-104.28369141 357.99498047 -104.28369141 357.99498047 -104.62890625 356.7265625 C-109.24082824 340.77103115 -120.56973999 327.76934241 -130.9453125 315.23828125 C-143.9814008 299.24400368 -155.21255461 282.95450183 -163.9453125 264.23828125 C-164.25355957 263.58408203 -164.56180664 262.92988281 -164.87939453 262.25585938 C-184.02304293 220.96042115 -184.18066444 170.11060032 -168.984375 127.6015625 C-160.31346998 104.34570825 -148.01522442 84.10803263 -131.9453125 65.23828125 C-131.26597656 64.43519531 -130.58664063 63.63210937 -129.88671875 62.8046875 C-125.56900403 57.81364495 -120.99643694 53.47168572 -115.9453125 49.23828125 C-114.96433594 48.38105469 -113.98335938 47.52382813 -112.97265625 46.640625 C-105.9817044 40.55490772 -98.82399498 35.15512652 -90.9453125 30.23828125 C-90.37586914 29.87492676 -89.80642578 29.51157227 -89.21972656 29.13720703 C-80.94213937 23.86535968 -72.56834799 19.50893452 -63.50390625 15.74609375 C-61.25369184 14.79265494 -59.02967344 13.77236895 -56.8515625 12.6640625 C-51.77789531 10.17496502 -46.36258905 8.79859715 -40.9453125 7.23828125 C-39.74003906 6.88378906 -38.53476563 6.52929688 -37.29296875 6.1640625 C-29.53077772 3.9730558 -21.98403496 2.53484592 -13.9921875 1.6328125 C-1.49770972 0.01493781 -1.49770972 0.01493781 0 0 Z M-15.9453125 20.23828125 C-17.49086858 20.53264051 -19.03644287 20.82690416 -20.58203125 21.12109375 C-29.59908854 22.88595711 -38.34429114 24.94820574 -46.9453125 28.23828125 C-47.84507812 28.57214844 -48.74484375 28.90601563 -49.671875 29.25 C-64.83966468 35.2042976 -79.15069359 43.15825915 -91.9453125 53.23828125 C-92.47253906 53.65126465 -92.99976562 54.06424805 -93.54296875 54.48974609 C-125.04203687 79.45875556 -147.11560645 112.1141047 -156.9453125 151.23828125 C-157.1117627 151.85807861 -157.27821289 152.47787598 -157.44970703 153.11645508 C-161.68730145 169.20871005 -166.59118536 200.94653553 -158.9453125 216.23828125 C-158.62610881 218.04613487 -158.33952025 219.85980964 -158.0703125 221.67578125 C-157.10202392 227.67917045 -155.64946759 233.4078217 -153.9453125 239.23828125 C-153.74292969 240.02460938 -153.54054687 240.8109375 -153.33203125 241.62109375 C-148.40915692 259.92331366 -137.63175337 277.54401872 -125.9453125 292.23828125 C-125.04565375 293.39227812 -124.1472653 294.54726618 -123.25 295.703125 C-119.04583934 301.10343005 -114.78901468 306.43807354 -110.3828125 311.67578125 C-90.14527142 336.39449214 -82.22412511 361.41850258 -80.91015625 393.2421875 C-80.37379632 403.12942612 -79.47858887 412.42188796 -71.8203125 419.36328125 C-67.57680861 422.71004469 -65.24245624 423.36625566 -59.79830933 423.39891052 C-58.48609909 423.40895615 -57.17388885 423.41900177 -55.82191467 423.42935181 C-54.35897884 423.43538226 -52.89604241 423.44126723 -51.43310547 423.44702148 C-49.89901006 423.4565579 -48.36491681 423.46644896 -46.83082581 423.47666931 C-41.7830766 423.50808604 -36.73531076 423.52832806 -31.6875 423.546875 C-30.82870947 423.55017232 -29.96991895 423.55346964 -29.08510447 423.55686688 C-20.98500904 423.58765473 -12.88490993 423.61436237 -4.78477287 423.63128567 C5.57459415 423.65318246 15.93344217 423.69512523 26.2926017 423.76472324 C33.5767803 423.81199814 40.86081907 423.83622407 48.14514625 423.84348255 C52.49508729 423.84843461 56.84444376 423.86347167 61.19421768 423.90322685 C65.29020087 423.94016758 69.38526748 423.94847907 73.48138618 423.93522072 C74.98096831 423.93527455 76.4805918 423.94552324 77.98002052 423.96697235 C85.54864335 424.06941062 91.67827446 424.11381471 97.61024284 418.85586643 C105.12634388 410.43883666 105.30737737 400.25752559 105.77304077 389.52859497 C107.37051223 354.90877342 119.90139463 329.40626965 142.0546875 303.23828125 C163.33945476 278.07117244 177.45329881 250.65339724 183.68017578 218.16796875 C184.00620441 216.48809245 184.36907592 214.8154491 184.73828125 213.14453125 C192.31523328 174.26692913 180.12797869 131.06740078 159.0546875 98.23828125 C152.22761825 88.15338246 144.49511123 78.99767448 136.0546875 70.23828125 C134.8171875 68.88863281 134.8171875 68.88863281 133.5546875 67.51171875 C125.64444281 59.14325867 116.5953005 52.62666425 107.0546875 46.23828125 C106.38228027 45.78565918 105.70987305 45.33303711 105.01708984 44.86669922 C85.8353288 32.19569361 63.65117523 24.05766332 41.0546875 20.23828125 C40.33764648 20.11130859 39.62060547 19.98433594 38.88183594 19.85351562 C21.14000541 16.83327058 1.69411577 16.64991756 -15.9453125 20.23828125 Z " fill="#3B2E28" transform="translate(178.9453125,-0.23828125)"/>
<path d="M0 0 C0.66 0.33 1.32 0.66 2 1 C2 1.66 2 2.32 2 3 C2.61045166 3.25740967 3.22090332 3.51481934 3.84985352 3.7800293 C6.24981211 5.14174079 7.02803782 6.16249831 8.40234375 8.51953125 C8.81806641 9.21240234 9.23378906 9.90527344 9.66210938 10.61914062 C10.08298828 11.34294922 10.50386719 12.06675781 10.9375 12.8125 C13.88070536 17.83914902 16.67626299 22.06300154 21 26 C21.27400635 25.26410645 21.5480127 24.52821289 21.83032227 23.77001953 C22.92845993 21.16942051 24.15153553 19.0215887 25.71484375 16.6796875 C26.49698242 15.50599609 26.49698242 15.50599609 27.29492188 14.30859375 C27.83697266 13.50550781 28.37902344 12.70242187 28.9375 11.875 C29.47568359 11.06417969 30.01386719 10.25335938 30.56835938 9.41796875 C35.53539092 2.00723118 35.53539092 2.00723118 38 0 C44.75486381 -0.76264591 44.75486381 -0.76264591 48.5 1.53125 C51.67697687 4.66851466 53.27137353 7.91886712 55.125 11.9375 C55.79246767 13.34330546 56.46170136 14.74827397 57.1328125 16.15234375 C57.60315918 17.14596924 57.60315918 17.14596924 58.08300781 18.15966797 C58.88827617 19.77577895 59.80735255 21.33412294 60.7421875 22.87890625 C62 25 62 25 62 27 C62.59425781 26.57589844 63.18851562 26.15179688 63.80078125 25.71484375 C66.52055044 23.79027924 69.26020757 21.89593636 72 20 C72.94617188 19.32066406 73.89234375 18.64132813 74.8671875 17.94140625 C82.85710597 12.44142082 82.85710597 12.44142082 87.125 13 C90 14 90 14 91 15 C91.6421585 22.08417812 89.73087834 27.31790718 87.08984375 33.83203125 C86.48215904 35.37886848 86.48215904 35.37886848 85.86219788 36.95695496 C84.56664503 40.24731759 83.25277891 43.52997932 81.9375 46.8125 C80.65551493 50.04641697 79.37739135 53.28184028 78.09970093 56.51745605 C77.26219686 58.63776163 76.42319549 60.75747642 75.58267212 62.87658691 C72.14998832 71.55057743 68.89062807 80.28052829 65.71035767 89.04971313 C64.57560545 92.16517516 63.41351349 95.27018175 62.25 98.375 C62.02017426 99.01320679 61.79034851 99.65141357 61.55355835 100.30895996 C59.99432541 104.58107135 58.23183125 108.69516962 56.31811523 112.8215332 C47.46334606 132.71973765 46.45042974 150.73555784 46.78112793 172.29486084 C46.83436235 176.56697466 46.82314059 180.83895525 46.81835938 185.11132812 C46.81806487 193.40865294 46.88556871 201.70346508 47 210 C49.97 210 52.94 210 56 210 C56 210.33 56 210.66 56 211 C53.36 211.33 50.72 211.66 48 212 C47.67 215.96 47.34 219.92 47 224 C47.81597656 223.98839844 48.63195312 223.97679687 49.47265625 223.96484375 C61.33452407 223.8744922 73.15428265 224.41952434 85 225 C85 225.33 85 225.66 85 226 C40.78 226 -3.44 226 -49 226 C-45.16327717 223.44218478 -42.05464013 223.74693544 -37.61328125 223.8046875 C-36.38776802 223.80893234 -36.38776802 223.80893234 -35.13749695 223.81326294 C-32.52901541 223.82445459 -29.9208777 223.8495571 -27.3125 223.875 C-25.54362475 223.88503112 -23.77474412 223.89415674 -22.00585938 223.90234375 C-17.67044051 223.92439058 -13.33527855 223.9589133 -9 224 C-8.85998833 213.09803273 -8.75387157 202.19628493 -8.68912697 191.29359627 C-8.65802736 186.2290955 -8.61595352 181.165217 -8.54736328 176.10107422 C-8.48139769 171.19913641 -8.44613406 166.29779093 -8.43073654 161.39544296 C-8.4197868 159.54019744 -8.39841175 157.6849784 -8.36561966 155.82999039 C-8.07575299 138.7274184 -12.46181528 125.57686679 -19.33203125 110.0703125 C-21.50654581 104.9410241 -23.21888712 99.65048289 -25 94.375 C-28.73305933 83.35921466 -32.82303333 72.51630032 -37.0625 61.6875 C-37.36440247 60.91473724 -37.66630493 60.14197449 -37.97735596 59.34579468 C-40.85462211 51.98202433 -43.74911739 44.62554096 -46.67578125 37.28125 C-47.40904009 35.41673978 -48.14213082 33.55216342 -48.875 31.6875 C-49.20250244 30.8833667 -49.53000488 30.0792334 -49.86743164 29.25073242 C-51.65489945 24.67555315 -52.4243603 20.99731757 -52 16 C-50.9375 14 -50.9375 14 -49 13 C-39.17750815 12.59072951 -30.33940147 21.25886361 -23 27 C-22.77054688 26.36191406 -22.54109375 25.72382813 -22.3046875 25.06640625 C-20.51761444 20.86624951 -18.33447978 16.92809103 -16.125 12.9375 C-15.69058594 12.13505859 -15.25617188 11.33261719 -14.80859375 10.50585938 C-8.56377878 -0.79294248 -8.56377878 -0.79294248 0 0 Z " fill="#FB7D0A" transform="translate(172,197)"/>
<path d="M0 0 C0.79696289 0.13470703 1.59392578 0.26941406 2.41503906 0.40820312 C29.97729787 5.26285946 54.74152105 17.34466238 77 34 C77.83789062 34.61101563 78.67578125 35.22203125 79.5390625 35.8515625 C92.43523152 45.64229952 103.68593989 57.80110114 113 71 C113.39848145 71.54350098 113.79696289 72.08700195 114.20751953 72.64697266 C138.86595112 106.32178366 149.8150797 150.91404215 143.92431641 192.22680664 C138.05452445 227.92538589 122.73877883 257.96624871 99 285 C81.34385645 305.63265817 66.9407634 330.16553586 65.5703125 357.8828125 C65.49658668 359.22919375 65.42235114 360.57554717 65.34765625 361.921875 C65.23503178 364.01444749 65.12586079 366.10697861 65.02587891 368.20019531 C63.9118665 391.09994295 63.9118665 391.09994295 56.52734375 398.62890625 C51.95150827 402.73662557 48.80548162 403.31144391 42.79296875 403.10546875 C41.90544922 403.05326172 41.90544922 403.05326172 41 403 C42 400 42 400 44.375 397.6875 C52.90103765 388.95846146 52.03719628 375.63362279 52.4375 364.1875 C53.78098863 328.21083745 69.2742536 300.89059596 92 274 C118.17858907 242.76168363 131.28255655 206.20899763 130.06933594 165.46875 C130.00815751 163.29045337 129.98640721 161.11646164 129.9765625 158.9375 C129.45023377 139.50382375 123.43423176 120.3809019 115 103 C114.70480469 102.38737305 114.40960938 101.77474609 114.10546875 101.14355469 C95.48456622 63.1577638 61.23846056 34.85559914 21.57714844 21.16357422 C-19.21245993 7.86558186 -63.94666021 11.65686254 -102.1640625 30.9296875 C-111.73806507 35.98061551 -120.67909194 42.08392057 -129 49 C-129.5259375 49.43183594 -130.051875 49.86367187 -130.59375 50.30859375 C-147.37750751 64.13271545 -159.74508535 79.90316521 -170 99 C-170.60714844 100.10859375 -171.21429688 101.2171875 -171.83984375 102.359375 C-179.08291483 116.1164553 -183.55011078 130.66791181 -186 146 C-186.20496094 147.24910156 -186.40992188 148.49820313 -186.62109375 149.78515625 C-188.8919984 165.43090623 -189.0097253 181.44544422 -186 197 C-185.84934082 197.77923828 -185.69868164 198.55847656 -185.54345703 199.36132812 C-179.26690668 230.59334622 -164.56067396 256.48279864 -143.88989258 280.45214844 C-135.65993622 289.99666412 -128.91433626 299.90587031 -123 311 C-122.67290039 311.609646 -122.34580078 312.21929199 -122.00878906 312.84741211 C-112.67330111 330.78244188 -110.17062798 349.17950897 -109.38647461 369.06665039 C-108.82232333 382.55799256 -107.1949904 392.783344 -98 403 C-102.62930592 403.37034447 -106.02682024 403.48658988 -110.25 401.375 C-117.15839971 395.4086548 -120.32405215 389.84933022 -121.37768555 380.73168945 C-121.63657968 376.98884187 -121.82847186 373.24784304 -122 369.5 C-123.96362768 334.18782058 -135.9037893 309.72788201 -158.53515625 282.94921875 C-173.93837929 264.51905489 -186.50156458 244.99265147 -194 222 C-194.40992188 220.82244141 -194.40992188 220.82244141 -194.828125 219.62109375 C-197.31521246 212.41585509 -199.10427871 205.49273511 -199.75390625 197.8828125 C-199.90676996 195.91352564 -199.90676996 195.91352564 -201 194 C-205.03150856 156.32281506 -199.22607635 121.32475282 -181 88 C-180.49412354 87.06510742 -180.49412354 87.06510742 -179.97802734 86.11132812 C-161.24659281 51.93779497 -130.0407231 26.47401448 -94.8125 10.80761719 C-93.33682838 10.15008463 -91.8701086 9.47249046 -90.40625 8.7890625 C-63.10790517 -3.22605406 -29.0358262 -5.14162495 0 0 Z " fill="#FBFAF9" transform="translate(220,20)"/>
<path d="M0 0 C0.66 0 1.32 0 2 0 C2.34256836 0.68102783 2.68513672 1.36205566 3.03808594 2.0637207 C4.59862557 5.15187164 6.17409838 8.23216206 7.75 11.3125 C8.28882813 12.38435547 8.82765625 13.45621094 9.3828125 14.56054688 C10.17558594 16.10258789 10.17558594 16.10258789 10.984375 17.67578125 C11.46616211 18.62364502 11.94794922 19.57150879 12.44433594 20.5480957 C14.06611896 23.10421104 15.42727164 24.43726108 18 26 C21.34297284 26.69969199 23.2753003 26.41213357 26.24609375 24.72265625 C27.80030004 23.67886253 29.33677277 22.6080282 30.8515625 21.5078125 C32.84212521 20.1107994 34.79992135 19.02537602 37 18 C35.28901513 24.28752163 33.13974419 30.22624094 30.58203125 36.21484375 C25.12523511 49.12025666 20.22912403 62.28096023 15.33984375 75.41015625 C9.83066071 90.17091197 9.83066071 90.17091197 7.3125 95.9375 C5.99653886 98.88258714 5.99653886 98.88258714 5.16796875 101.546875 C3.59521559 106.19675391 1.80579372 110.74894522 0 115.3125 C-0.35578125 116.23095703 -0.7115625 117.14941406 -1.078125 118.09570312 C-1.42359375 118.96775391 -1.7690625 119.83980469 -2.125 120.73828125 C-2.59292969 121.92997925 -2.59292969 121.92997925 -3.0703125 123.14575195 C-4 125 -4 125 -6 126 C-8.32416296 126.08586809 -10.65083307 126.10711043 -12.9765625 126.09765625 C-14.00443375 126.09553383 -14.00443375 126.09553383 -15.05307007 126.09336853 C-17.24375761 126.08776675 -19.4343433 126.07521406 -21.625 126.0625 C-23.10937352 126.05748522 -24.59374865 126.05292228 -26.078125 126.04882812 C-29.71878315 126.03779677 -33.35938164 126.02053099 -37 126 C-37.33 125.01 -37.66 124.02 -38 123 C-38.99 122.505 -38.99 122.505 -40 122 C-43.65525109 115.81967295 -46.34878268 109.4573946 -48.23046875 102.546875 C-49.41068269 98.64078624 -51.07170019 94.95861036 -52.67578125 91.2109375 C-54.56390891 86.63264565 -56.17831539 81.96789782 -57.8203125 77.296875 C-59.09431802 73.73640923 -60.48334621 70.23940949 -61.91015625 66.73828125 C-63.28543732 63.28282594 -64.5794525 59.79837654 -65.875 56.3125 C-67.87088984 50.9511531 -69.92558809 45.6192221 -72.0625 40.3125 C-72.54976562 39.09820312 -73.03703125 37.88390625 -73.5390625 36.6328125 C-74.27889299 34.79312705 -75.01887648 32.95349587 -75.76464844 31.11621094 C-76.49616207 29.30955114 -77.21704171 27.49859681 -77.9375 25.6875 C-78.35902344 24.63949219 -78.78054687 23.59148437 -79.21484375 22.51171875 C-80 20 -80 20 -79 18 C-78.3709375 18.5775 -77.741875 19.155 -77.09375 19.75 C-71.60643567 24.79079939 -71.60643567 24.79079939 -64.6875 26.8125 C-60.10839522 25.80354471 -59.03574194 24.54398833 -56 21 C-54.13919802 18.0155884 -52.50183139 14.92934974 -50.875 11.8125 C-50.02503758 10.19042458 -49.1685322 8.57175634 -48.3046875 6.95703125 C-47.93327637 6.24522705 -47.56186523 5.53342285 -47.17919922 4.80004883 C-46 3 -46 3 -43 1 C-38.68229253 6.56068387 -34.79467328 12.31802092 -31.02734375 18.265625 C-28.21212241 22.06264801 -25.71936565 24.67761894 -21 25.5625 C-15.8761489 24.60177792 -13.27083559 20.52873204 -10.4296875 16.40625 C-9.57212754 15.10810878 -8.72063073 13.80594348 -7.875 12.5 C-7.44574219 11.84902344 -7.01648438 11.19804687 -6.57421875 10.52734375 C-4.73769186 7.73017202 -2.96902983 4.94526202 -1.3203125 2.03125 C-0.66675781 1.02578125 -0.66675781 1.02578125 0 0 Z " fill="#FDEFA4" transform="translate(213,207)"/>
<path d="M0 0 C2.73455968 -0.11226145 5.46785128 -0.18563838 8.20391846 -0.25012207 C9.06102921 -0.28872345 9.91813995 -0.32732483 10.80122375 -0.36709595 C16.79910456 -0.45292424 16.79910456 -0.45292424 19.97174072 2.42907715 C21.9083705 6.0072436 21.98202921 8.09002028 21.42657471 12.11706543 C19.4380977 17.44573697 16.51093317 20.48073141 11.42657471 23.11706543 C4.33146595 25.8331263 -2.17423837 26.55180624 -9.72357178 26.50524902 C-10.79000916 26.51050598 -11.85644653 26.51576294 -12.9552002 26.5211792 C-16.45179244 26.53429455 -19.94792282 26.5256703 -23.44451904 26.51550293 C-25.89252306 26.51752624 -28.34052648 26.52043981 -30.78852844 26.52420044 C-35.90837365 26.52861248 -41.02806135 26.52222925 -46.14788818 26.50817871 C-52.6888176 26.49109685 -59.22937739 26.50092918 -65.77029324 26.5188961 C-70.82254283 26.52977185 -75.87470579 26.52627003 -80.92695808 26.51851273 C-83.33773913 26.51652073 -85.7485282 26.51893457 -88.15929985 26.52595139 C-91.5377045 26.53362726 -94.91552293 26.52187519 -98.29388428 26.50524902 C-99.27655777 26.51132172 -100.25923126 26.51739441 -101.27168274 26.52365112 C-110.54458776 26.43972168 -119.21662307 25.14836331 -126.23358154 18.71472168 C-128.39669927 16.13537722 -129.47837876 13.89644696 -129.88592529 10.55456543 C-129.57342529 8.11706543 -129.57342529 8.11706543 -128.51092529 6.36706543 C-123.97781313 3.44247694 -117.58907834 3.96781415 -112.34515381 3.85168457 C-111.65661347 3.83520433 -110.96807314 3.8187241 -110.25866795 3.80174446 C-108.7695956 3.76660881 -107.28047763 3.73336555 -105.79132462 3.70183372 C-103.40306608 3.65117672 -101.01497444 3.59537771 -98.62686157 3.5382843 C-95.22358059 3.45732069 -91.82026384 3.37827251 -88.41690063 3.30084229 C-79.6276123 3.1000803 -70.83870091 2.88451351 -62.04998779 2.66003418 C-61.18974188 2.63806725 -60.32949596 2.61610031 -59.44318199 2.59346771 C-44.49818768 2.20706435 -29.57082257 1.64185773 -14.64788818 0.72668457 C-9.76733005 0.43029062 -4.88422433 0.22218396 0 0 Z " fill="#9E9D9C" transform="translate(245.57342529296875,500.8829345703125)"/>
<path d="M0 0 C4.2196672 1.88378 5.60436215 3.30103979 7.875 7.3125 C9.96503056 14.16315573 9.10231077 19.08581236 6.31640625 25.53125 C4.14255526 29.60802693 1.20321223 32.70491744 -2 36 C-9.35118753 43.63535108 -15.19150711 51.48169041 -20.92626953 60.35253906 C-25.25104115 66.98818229 -30.18268081 74.39422694 -38 77 C-42.72629453 77.48865079 -46.68486035 77.69954237 -50.9375 75.4375 C-55.57914542 69.95191905 -56.57479585 65.00002345 -56.34375 57.953125 C-54.23168652 39.80857967 -39.90402575 20.50944354 -26 9 C-22.42957488 6.49172648 -18.78309585 4.1735178 -15 2 C-14.34257813 1.61328125 -13.68515625 1.2265625 -13.0078125 0.828125 C-8.86725127 -0.87965512 -4.37917629 -0.50138395 0 0 Z " fill="#FEFDFC" transform="translate(120,79)"/>
<path d="M0 0 C10.89 0 21.78 0 33 0 C33 26.4 33 52.8 33 80 C22.11 80 11.22 80 0 80 C0 53.6 0 27.2 0 0 Z " fill="#FDCD14" transform="translate(175,343)"/>
<path d="M0 0 C1.09341422 0.00071251 2.18682844 0.00142502 3.31337643 0.00215912 C5.19579037 -0.01465408 5.19579037 -0.01465408 7.11623287 -0.03180695 C8.50950223 -0.01889548 9.902767 -0.00548134 11.29602718 0.0083847 C12.76119282 0.00488436 14.22635467 -0.00077324 15.69150448 -0.00843048 C19.67299066 -0.02269978 23.65378801 -0.00559745 27.63520837 0.01785469 C31.79696153 0.03793012 35.95868515 0.03208593 40.12047482 0.02974701 C47.10895844 0.02980061 54.09717196 0.04957677 61.08557796 0.08162689 C69.17284035 0.11853554 77.25974897 0.12730085 85.34708458 0.12032938 C93.1185708 0.11403153 100.88993531 0.12476437 108.66139698 0.14429474 C111.97278161 0.15248369 115.28410417 0.15517556 118.59549809 0.1536026 C122.49190929 0.15272579 126.38798254 0.1668842 130.28430462 0.19282913 C131.71701386 0.20001132 133.14975901 0.20206473 134.58248234 0.1987114 C136.53251691 0.19501683 138.48255909 0.21153462 140.43251705 0.2292099 C142.07207284 0.23480297 142.07207284 0.23480297 143.74475098 0.24050903 C144.59110328 0.36693535 145.43745558 0.49336166 146.30945492 0.62361908 C148.78287757 4.33375306 148.69448978 6.2342217 148.30945492 10.62361908 C147.40418148 12.79671478 147.40418148 12.79671478 145.30945492 14.62361908 C142.05295279 15.31581184 138.80188659 15.34633315 135.48132992 15.41658783 C134.5001318 15.45294846 133.51893368 15.48930908 132.50800228 15.52677155 C129.35879789 15.63972434 126.20952651 15.72613167 123.05945492 15.81111908 C119.9620263 15.91235329 116.86481327 16.01900356 113.76756954 16.12572479 C111.74255918 16.19466244 109.71746028 16.2610463 107.69228268 16.32488251 C102.28613906 16.49891852 96.90323547 16.74983082 91.50867367 17.14315033 C82.80396757 17.77563662 74.09526767 17.9375542 65.37195492 18.12361908 C56.28123588 18.31794671 47.20676439 18.51400441 38.13367367 19.13533783 C30.77743798 19.62676395 23.44832725 19.87472929 16.07752132 19.9187851 C14.71055593 19.93052651 13.34364355 19.95130804 11.97693539 19.98030853 C9.95788217 20.02277745 7.93828865 20.0365186 5.91882992 20.04940033 C4.15490902 20.07127411 4.15490902 20.07127411 2.35535336 20.09358978 C-1.32936545 19.52505149 -2.45609664 18.55095821 -4.69054508 15.62361908 C-6.17885447 11.15869091 -6.40957975 7.31828657 -4.55016518 2.93589783 C-2.69054508 0.62361908 -2.69054508 0.62361908 0 0 Z " fill="#FCFCFC" transform="translate(119.69054508209229,440.37638092041016)"/>
<path d="M0 0 C3.16308594 0.14038086 3.16308594 0.14038086 5.66308594 2.20288086 C7.60422675 6.00428162 7.23896431 8.06741275 6.16308594 12.14038086 C3.71564533 14.58782147 2.98712209 14.41959329 -0.38270569 14.52601624 C-1.34007629 14.56097702 -2.2974469 14.59593781 -3.28382874 14.63195801 C-4.33783371 14.66059937 -5.39183868 14.68924072 -6.4777832 14.71875 C-8.13902725 14.77530006 -8.13902725 14.77530006 -9.83383179 14.83299255 C-13.51301179 14.95609861 -17.19247255 15.06569112 -20.87207031 15.17553711 C-23.42601048 15.25902514 -25.9799197 15.34346461 -28.53379822 15.42881775 C-34.58602474 15.62919486 -40.63845227 15.82148402 -46.69107383 16.00940746 C-58.14777326 16.36538312 -69.60390559 16.73870525 -81.05996513 17.11465263 C-84.81819589 17.23629338 -88.57656004 17.35276837 -92.3349762 17.46852112 C-94.65341594 17.54268894 -96.97185182 17.61697766 -99.2902832 17.69140625 C-100.33011856 17.72207184 -101.36995392 17.75273743 -102.44129944 17.78433228 C-108.29230999 17.97679497 -114.02571398 18.43238311 -119.83691406 19.14038086 C-123.60819852 19.3645492 -127.3720729 19.41467444 -131.14941406 19.45288086 C-132.12458984 19.48188477 -133.09976563 19.51088867 -134.10449219 19.54077148 C-141.15605307 19.60368864 -141.15605307 19.60368864 -144.47753906 17.34350586 C-146.45646601 14.13627943 -146.30605066 11.82645412 -145.83691406 8.14038086 C-144.33110263 6.1530517 -143.42340085 5.27134565 -140.97172546 4.72387695 C-140.26425674 4.70405762 -139.55678802 4.68423828 -138.82788086 4.66381836 C-138.00649124 4.63352539 -137.18510162 4.60323242 -136.33882141 4.57202148 C-135.43455917 4.55333008 -134.53029694 4.53463867 -133.59863281 4.51538086 C-132.15601326 4.46800781 -132.15601326 4.46800781 -130.68424988 4.41967773 C-128.55285401 4.35127288 -126.42123977 4.2894517 -124.28948975 4.2331543 C-120.70131259 4.13673714 -117.11426417 4.01978246 -113.52685547 3.89819336 C-104.88509165 3.6079249 -96.24264586 3.34145509 -87.60003662 3.07788086 C-66.96527171 2.46259467 -66.96527171 2.46259467 -46.34535217 1.4858551 C-38.70332981 1.0577113 -31.058264 0.83464469 -23.40722656 0.63769531 C-21.04516847 0.57680472 -18.68323313 0.51217355 -16.32128906 0.44702148 C-14.79004474 0.40579445 -13.25879492 0.36477093 -11.72753906 0.32397461 C-11.03581604 0.30523788 -10.34409302 0.28650116 -9.63140869 0.26719666 C-4.81526362 0.15140637 -4.81526362 0.15140637 0 0 Z " fill="#A1A1A0" transform="translate(260.8369140625,470.859619140625)"/>
<path d="M0 0 C1.576604 -0.00688843 1.576604 -0.00688843 3.18505859 -0.01391602 C4.13590332 -0.01190186 5.08674805 -0.0098877 6.06640625 -0.0078125 C6.89213135 -0.00668457 7.71785645 -0.00555664 8.56860352 -0.00439453 C10.4375 0.125 10.4375 0.125 11.4375 1.125 C12.51796943 14.49802323 12.51796943 14.49802323 9.5 18.9375 C6.49862896 22.12077231 6.49862896 22.12077231 4.50411987 22.25871277 C3.65697418 22.26252457 2.80982849 22.26633636 1.93701172 22.27026367 C0.97866425 22.27664352 0.02031677 22.28302338 -0.96707153 22.28959656 C-2.53411331 22.29126579 -2.53411331 22.29126579 -4.1328125 22.29296875 C-5.20240204 22.29629715 -6.27199158 22.29962555 -7.37399292 22.30305481 C-9.64548308 22.30813096 -11.91698074 22.31046292 -14.18847656 22.31030273 C-17.65181982 22.31247759 -21.11483867 22.3305939 -24.578125 22.34960938 C-26.78385308 22.35254554 -28.98958267 22.35452884 -31.1953125 22.35546875 C-32.7441362 22.36624702 -32.7441362 22.36624702 -34.32424927 22.37724304 C-41.34963003 22.35512561 -47.89965032 22.19961353 -53.375 17.25 C-53.93832031 16.75757813 -54.50164062 16.26515625 -55.08203125 15.7578125 C-57.39539793 13.20639489 -58.45880872 10.97526852 -58.875 7.5625 C-58.5625 5.125 -58.5625 5.125 -57.5 3.375 C-52.97541118 0.45591044 -46.55905704 0.96489728 -41.3203125 0.80859375 C-40.64241165 0.78772202 -39.9645108 0.76685028 -39.2660675 0.74534607 C-37.07331823 0.67967021 -34.88046411 0.62052805 -32.6875 0.5625 C-31.93993439 0.54165344 -31.19236877 0.52080688 -30.42214966 0.49932861 C-20.28187802 0.21847067 -10.14448107 0.02480865 0 0 Z " fill="#FAFAFA" transform="translate(174.5625,503.875)"/>
<path d="M0 0 C26.4 0 52.8 0 80 0 C76.18760977 9.53097557 69.51595597 14.89579089 60.3515625 19.26171875 C47.79284614 24.16477925 32.63033922 23.29707774 20 19 C11.78133938 15.14248002 5.38788816 9.27697487 0 2 C0 1.34 0 0.68 0 0 Z " fill="#5D493E" transform="translate(151,543)"/>
<path d="M0 0 C10.52653901 -0.06768697 21.05293427 -0.12276459 31.57964134 -0.15543652 C36.46723875 -0.17111475 41.35467999 -0.19239219 46.2421875 -0.22631836 C50.955975 -0.25883513 55.66961199 -0.27683675 60.38350296 -0.28463173 C62.18491614 -0.2901891 63.98632077 -0.30104082 65.78767014 -0.31719017 C68.30443084 -0.33886268 70.82056385 -0.34197125 73.33740234 -0.34057617 C74.08762161 -0.351362 74.83784088 -0.36214783 75.61079407 -0.3732605 C77.68441772 -0.36076355 77.68441772 -0.36076355 81 0 C83.47342266 3.71013399 83.38503486 5.61060262 83 10 C82.09472656 12.1730957 82.09472656 12.1730957 80 14 C76.74349787 14.69219276 73.49243167 14.72271407 70.171875 14.79296875 C69.19067688 14.82932938 68.20947876 14.86569 67.19854736 14.90315247 C64.04934297 15.01610526 60.9000716 15.10251259 57.75 15.1875 C54.65187909 15.28875684 51.55397417 15.39543183 48.45603943 15.50221252 C46.4379495 15.57089053 44.41976811 15.63693283 42.40150452 15.70030212 C35.63894548 15.91736014 28.91289562 16.31102422 22.16455078 16.80151367 C17.62619171 17.08616773 13.10783612 17.11129386 8.5625 17.0625 C7.72396484 17.05798828 6.88542969 17.05347656 6.02148438 17.04882812 C4.0142897 17.03735844 2.00713326 17.01944478 0 17 C0 11.39 0 5.78 0 0 Z " fill="#9E9D9C" transform="translate(185,441)"/>
<path d="M0 0 C2.6171875 0.13647461 2.6171875 0.13647461 4.6171875 2.13647461 C4.8828125 4.44897461 4.8828125 4.44897461 4.8671875 7.13647461 C4.87492187 8.46678711 4.87492187 8.46678711 4.8828125 9.82397461 C4.6171875 12.13647461 4.6171875 12.13647461 2.6171875 14.13647461 C0.14518891 14.37013675 -2.2232018 14.48583606 -4.69921875 14.51538086 C-5.42970932 14.53237534 -6.16019989 14.54936981 -6.91282654 14.56687927 C-9.2568996 14.62007245 -11.60095938 14.66025081 -13.9453125 14.69897461 C-17.00924319 14.75742341 -20.07300333 14.82158725 -23.13671875 14.89038086 C-23.87546738 14.90652939 -24.614216 14.92267792 -25.37535095 14.9393158 C-29.72267978 15.04899618 -33.97383208 15.34550234 -38.2824707 15.90722656 C-42.73980554 16.39373562 -47.21580581 16.40366605 -51.6953125 16.44897461 C-52.67048828 16.47797852 -53.64566406 16.50698242 -54.65039062 16.53686523 C-61.7019515 16.59978239 -61.7019515 16.59978239 -65.0234375 14.33959961 C-67.00236445 11.13237318 -66.8519491 8.82254787 -66.3828125 5.13647461 C-65.09106445 3.45141602 -65.09106445 3.45141602 -63.3828125 2.13647461 C-60.38564432 1.75755801 -57.57933301 1.57540799 -54.5703125 1.51147461 C-53.64412109 1.48061768 -52.71792969 1.44976074 -51.76367188 1.41796875 C-48.30369417 1.30827148 -44.84344653 1.22304484 -41.3828125 1.13647461 C-38.99925229 1.06981196 -36.61575527 1.00110977 -34.23225403 0.93237305 C-26.65779314 0.71470179 -19.08304374 0.50907207 -11.5078125 0.32006836 C-10.77730179 0.30138199 -10.04679108 0.28269562 -9.29414368 0.26344299 C-4.64637999 0.15638739 -4.64637999 0.15638739 0 0 Z " fill="#F8F8F8" transform="translate(181.3828125,473.863525390625)"/>
<path d="M0 0 C1.70703125 1.1640625 1.70703125 1.1640625 3.70703125 4.1640625 C4.04644752 8.15220367 3.87796181 10.79288936 1.70703125 14.1640625 C-0.5703125 15.83203125 -0.5703125 15.83203125 -3.23046875 17.3515625 C-4.10574219 17.86074219 -4.98101562 18.36992188 -5.8828125 18.89453125 C-9.91377983 21.01781226 -13.1578797 21.37851709 -17.66796875 21.4765625 C-18.78945312 21.51394531 -19.9109375 21.55132812 -21.06640625 21.58984375 C-24.94682461 21.07777886 -26.528593 19.87315073 -29.29296875 17.1640625 C-30.74444778 14.26110445 -30.665359 12.39144471 -30.29296875 9.1640625 C-24.11314219 -0.8033997 -10.93690001 -3.98721738 0 0 Z " fill="#FDFDFA" transform="translate(167.29296875,57.8359375)"/>
<path d="M0 0 C0.33 0 0.66 0 1 0 C1 14.19 1 28.38 1 43 C-9.89 43 -20.78 43 -32 43 C-32 38.05 -32 33.1 -32 28 C-21.44 28 -10.88 28 0 28 C0 18.76 0 9.52 0 0 Z " fill="#FDB009" transform="translate(207,380)"/>
<path d="M0 0 C5.11416703 1.42525966 8.20208974 4.24955453 11.8125 8.0625 C13.33741998 11.11233996 13.04812548 13.7048369 12.8125 17.0625 C11.6875 19 11.6875 19 9.8125 20.0625 C6.01876287 20.52027411 4.39060023 20.4980918 1.29296875 18.1640625 C0.53628906 17.34679687 -0.22039062 16.52953125 -1 15.6875 C-2.15435547 14.46933594 -2.15435547 14.46933594 -3.33203125 13.2265625 C-6.51970894 9.50872368 -6.53512888 6.92930431 -6.1875 2.0625 C-3.1875 0.0625 -3.1875 0.0625 0 0 Z " fill="#FEFDF7" transform="translate(271.1875,97.9375)"/>
<path d="M0 0 C7.92 0 15.84 0 24 0 C23 7 23 7 21.5625 9.4375 C17.51365075 11.90631052 13.61395621 11.59770049 9 11 C5.19054897 9.68400783 3.53553479 8.71404639 1.125 5.5 C0 3 0 3 0 0 Z " fill="#ABA09B" transform="translate(162,544)"/>
<path d="M0 0 C1.43902893 0.08032857 2.87760191 0.17713226 4.3125 0.3125 C4.1475 1.1375 3.9825 1.9625 3.8125 2.8125 C2.65184592 10.39752023 2.65184592 10.39752023 5.3125 17.3125 C7.7282113 17.82154384 7.7282113 17.82154384 10.5390625 17.82421875 C11.5703125 17.85966797 12.6015625 17.89511719 13.6640625 17.93164062 C14.74429688 17.95419922 15.82453125 17.97675781 16.9375 18 C18.02546875 18.03416016 19.1134375 18.06832031 20.234375 18.10351562 C22.92698063 18.18618334 25.61925291 18.25527087 28.3125 18.3125 C28.3125 18.6425 28.3125 18.9725 28.3125 19.3125 C23.97092948 19.41155303 19.62996146 19.48405301 15.28759766 19.53222656 C13.8112441 19.55231301 12.33496981 19.57958801 10.85888672 19.61425781 C8.73385038 19.66291184 6.60986766 19.68549673 4.484375 19.703125 C3.2065918 19.72407227 1.92880859 19.74501953 0.61230469 19.76660156 C-2.6875 19.3125 -2.6875 19.3125 -5.07324219 17.47558594 C-8.00168548 13.55150736 -8.01653591 10.08352072 -7.6875 5.3125 C-6.19993025 0.65144813 -4.64077382 0.01459363 0 0 Z " fill="#A3A1A1" transform="translate(121.6875,440.6875)"/>
<path d="M0 0 C4.8434046 0.41514897 6.81587829 2.46208699 10 6 C10.33 6.33 10.66 6.66 11 7 C10.54621849 13.12605042 10.54621849 13.12605042 8.75 16 C7 17 7 17 4.625 17 C1.03623247 15.63285047 -0.67546471 14.05510352 -3 11 C-3.55147685 7.07072743 -3.59311615 4.96381375 -1.5 1.5625 C-1.005 1.046875 -0.51 0.53125 0 0 Z " fill="#FEFCF4" transform="translate(293,137)"/>
<path d="M0 0 C-0.33 0.99 -0.66 1.98 -1 3 C-1.25003964 6.54178598 -1.25003964 6.54178598 -1 10 C1.85793316 12.85793316 4.14665584 12.40799941 8.125 12.625 C9.40632813 12.69976562 10.68765625 12.77453125 12.0078125 12.8515625 C12.99523437 12.90054687 13.98265625 12.94953125 15 13 C15 13.33 15 13.66 15 14 C11.41694008 14.11627503 7.83436583 14.1872736 4.25 14.25 C3.23421875 14.28351563 2.2184375 14.31703125 1.171875 14.3515625 C-6.32806438 14.45024591 -6.32806438 14.45024591 -9.67578125 12.20703125 C-11.60469082 8.99218197 -11.46705858 6.66974598 -11 3 C-8.76467814 -1.3309361 -4.26119511 -0.20956697 0 0 Z " fill="#979694" transform="translate(126,476)"/>
<path d="M0 0 C-0.11859375 0.58007812 -0.2371875 1.16015625 -0.359375 1.7578125 C-1.08021355 6.1260941 -1.3761123 8.28807316 0.75 12.3125 C1.4925 13.199375 2.235 14.08625 3 15 C3.5775 15.78375 4.155 16.5675 4.75 17.375 C5.1625 17.91125 5.575 18.4475 6 19 C0.39204896 18.77110404 -2.34479785 17.3841502 -6.51953125 13.66796875 C-8.80988919 11.08753909 -9.89515653 8.85971645 -10.3125 5.4375 C-10 3 -10 3 -8.9375 1.1875 C-6.00731249 -0.60842137 -3.3527047 -0.18977574 0 0 Z " fill="#AAAAA8" transform="translate(126,506)"/>
<path d="M0 0 C6.40096618 -0.48309179 6.40096618 -0.48309179 8.9375 1.5625 C10.43102132 4.98881362 10.4408722 7.28407717 10 11 C8.86220611 13.53171454 7.52653825 15.6624883 6 18 C4.68 17.67 3.36 17.34 2 17 C1.93941406 16.10796875 1.87882812 15.2159375 1.81640625 14.296875 C1.73261719 13.12640625 1.64882813 11.9559375 1.5625 10.75 C1.48128906 9.58984375 1.40007812 8.4296875 1.31640625 7.234375 C1.06752213 4.69022624 0.71885058 2.44046752 0 0 Z " fill="#C8C8C8" transform="translate(257,502)"/>
<path d="M0 0 C2.5 0.5 2.5 0.5 4.3125 2.125 C5.84040738 5.18081477 5.92256988 7.11944093 5.5 10.5 C4 12.875 4 12.875 2.5 14.5 C-0.12655933 14.14505955 -2.07968261 13.77538036 -4.3125 12.3125 C-6.09006563 9.59937351 -5.88851935 7.67290804 -5.5 4.5 C-4.00114205 1.5022841 -3.31098525 0.66219705 0 0 Z " fill="#FDFCF3" transform="translate(305.5,155.5)"/>
<path d="M0 0 C0.66 0.33 1.32 0.66 2 1 C-2.51781065 14.16893742 -2.51781065 14.16893742 -5.3125 20.0625 C-10.06764503 30.20280927 -13.88320446 40.85807359 -17.5546875 51.43359375 C-17.7815625 52.08610107 -18.0084375 52.7386084 -18.2421875 53.41088867 C-18.83386527 55.13045218 -19.413483 56.85415216 -19.9921875 58.578125 C-21 61 -21 61 -23 62 C-19.1980165 48.46588174 -14.33749762 35.36263609 -9.26904297 22.26074219 C-8.23331413 19.58184219 -7.20424998 16.90044457 -6.17578125 14.21875 C-5.51861558 12.51287192 -4.86107801 10.80713706 -4.203125 9.1015625 C-3.89586487 8.30070221 -3.58860474 7.49984192 -3.27203369 6.67471313 C-1.11530358 1.11530358 -1.11530358 1.11530358 0 0 Z " fill="#FDDB70" transform="translate(256,237)"/>
<path d="M0 0 C6.3833448 -0.48176187 6.3833448 -0.48176187 9 1.5625 C10.40663962 4.99118408 9.80537401 7.44293147 9 11 C8 12 8 12 4.4375 12.0625 C3.303125 12.041875 2.16875 12.02125 1 12 C0.67 8.04 0.34 4.08 0 0 Z " fill="#F0F1F0" transform="translate(258,472)"/>
<path d="M0 0 C3.375 -0.1875 3.375 -0.1875 7 0 C9.45811625 3.68717438 9.31118164 5.64345704 9 10 C8.01 11.485 8.01 11.485 7 13 C5.35 13 3.7 13 2 13 C1.34 8.71 0.68 4.42 0 0 Z " fill="#DEDFE0" transform="translate(259,441)"/>
<path d="M0 0 C0 0.66 0 1.32 0 2 C-1.60875 2.0928125 -1.60875 2.0928125 -3.25 2.1875 C-7.87420983 3.18941213 -8.35013183 4.1892372 -11 8 C-12.59563873 10.62701752 -14.08751819 13.3037432 -15.5625 16 C-16.33400608 17.39618128 -17.10612773 18.79202261 -17.87890625 20.1875 C-18.24000488 20.84105469 -18.60110352 21.49460938 -18.97314453 22.16796875 C-20.26649868 24.47546507 -21.62035372 26.74319841 -23 29 C-24.32 28.34 -25.64 27.68 -27 27 C-26.29875 26.38125 -25.5975 25.7625 -24.875 25.125 C-19.27829182 19.49649234 -15.73768305 12.42926877 -13.73828125 4.8125 C-13 3 -13 3 -10 1 C-6.52674819 -0.1577506 -3.63932552 -0.06866652 0 0 Z " fill="#FDF3CA" transform="translate(172,195)"/>
<path d="M0 0 C0.85344646 2.87185136 1.05301827 5.08635713 0.6953125 8.0546875 C0.60685059 8.8283667 0.51838867 9.6020459 0.42724609 10.39916992 C0.27763428 11.62470581 0.27763428 11.62470581 0.125 12.875 C-0.0696095 14.57660656 -0.26230008 16.27843362 -0.453125 17.98046875 C-0.54787109 18.82399902 -0.64261719 19.6675293 -0.74023438 20.53662109 C-1.31761477 26.01196717 -1.65939364 31.50548159 -2 37 C-2.33 37 -2.66 37 -3 37 C-3.08859875 33.08348097 -3.14091917 29.16722626 -3.1875 25.25 C-3.21263672 24.15816406 -3.23777344 23.06632812 -3.26367188 21.94140625 C-3.33237001 14.20141656 -2.22909817 7.40854725 0 0 Z " fill="#FCBE18" transform="translate(35,160)"/>
<path d="M0 0 C0.66 0.33 1.32 0.66 2 1 C-0.71282937 8.81606167 -3.50531745 16.49290416 -7 24 C-7.33 24 -7.66 24 -8 24 C-7.48084146 18.17893484 -6.27693129 13.42725086 -4 8.0625 C-3.72671875 7.39154297 -3.4534375 6.72058594 -3.171875 6.02929688 C-1.16528614 1.16528614 -1.16528614 1.16528614 0 0 Z " fill="#FDE180" transform="translate(256,237)"/>
<path d="M0 0 C2.5625 2.4375 2.5625 2.4375 4 5 C4 5.66 4 6.32 4 7 C3.34 7 2.68 7 2 7 C1.29875 6.175 0.5975 5.35 -0.125 4.5 C-3.43706462 1.61994381 -4.83620469 1.31045899 -9.0625 1.55859375 C-12.05407798 2.24014277 -13.86976172 3.86976172 -16 6 C-15.42655063 3.13275314 -15.1385485 2.1385485 -13 0 C-8.67811551 -1.48335866 -4.37020013 -1.19478866 0 0 Z " fill="#FEF0C3" transform="translate(221,196)"/>
<path d="M0 0 C0.66 0.33 1.32 0.66 2 1 C0.23885299 3.00932223 -1.53286463 5.00716745 -3.3125 7 C-3.81201172 7.57234375 -4.31152344 8.1446875 -4.82617188 8.734375 C-6.15598061 10.21389731 -7.57387123 11.61308462 -9 13 C-9.99 13 -10.98 13 -12 13 C-10.86528532 9.59585597 -9.82774013 8.75723352 -7.125 6.5 C-4.64584653 4.41421775 -2.2560424 2.32698713 0 0 Z " fill="#58514D" transform="translate(66,46)"/>
<path d="M0 0 C0.66 0 1.32 0 2 0 C1.24881045 3.25004458 0.23903693 6.35651594 -0.875 9.5 C-1.20242187 10.4384375 -1.52984375 11.376875 -1.8671875 12.34375 C-2.96783719 14.92458376 -4.22111412 16.84500682 -6 19 C-5.52877252 12.0886636 -2.79363994 6.27795839 0 0 Z " fill="#FCC12E" transform="translate(46,124)"/>
<path d="M0 0 C1.34173403 0.92543709 2.67320159 1.86577405 4 2.8125 C5.11375 3.59560547 5.11375 3.59560547 6.25 4.39453125 C6.8275 4.92433594 7.405 5.45414063 8 6 C8 6.99 8 7.98 8 9 C6.68 9.33 5.36 9.66 4 10 C3.32845067 8.71086513 2.66291141 7.41859796 2 6.125 C1.62875 5.40570313 1.2575 4.68640625 0.875 3.9453125 C0 2 0 2 0 0 Z " fill="#FEF4CD" transform="translate(133,225)"/>
<path d="M0 0 C1.3058334 3.92128522 0.38030356 5.97831091 -1.40039062 9.68359375 C-1.74263672 10.36550781 -2.08488281 11.04742187 -2.4375 11.75 C-2.77587891 12.44738281 -3.11425781 13.14476562 -3.46289062 13.86328125 C-4.29806458 15.58068121 -5.14765424 17.29105738 -6 19 C-7.33559822 14.99320533 -6.23773294 13.37776577 -4.6875 9.5 C-4.23761719 8.3553125 -3.78773438 7.210625 -3.32421875 6.03125 C-2 3 -2 3 0 0 Z " fill="#FDDE7B" transform="translate(264,217)"/>
<path d="M0 0 C1.15649929 3.46949788 0.78962862 4.57534103 -0.25 8 C-0.50265625 8.86625 -0.7553125 9.7325 -1.015625 10.625 C-2.0222053 13.05357469 -3.01984367 14.30907999 -5 16 C-4.49228528 10.03435204 -2.61407872 5.36190101 0 0 Z " fill="#FDD552" transform="translate(232,300)"/>
<path d="M0 0 C0.66 0 1.32 0 2 0 C1.01 3.3 0.02 6.6 -1 10 C-1.99 9.01 -2.98 8.02 -4 7 C-2.92598892 4.08482708 -2.22189824 2.22189824 0 0 Z " fill="#FCDD92" transform="translate(248,225)"/>
<path d="M0 0 C0 3 0 3 -1.75 5.04296875 C-2.4925 5.75066406 -3.235 6.45835937 -4 7.1875 C-4.7425 7.90292969 -5.485 8.61835938 -6.25 9.35546875 C-6.8275 9.89816406 -7.405 10.44085938 -8 11 C-9.32 10.34 -10.64 9.68 -12 9 C-11.13375 8.62875 -10.2675 8.2575 -9.375 7.875 C-5.43358021 5.68532234 -3.06365854 3.28249129 0 0 Z " fill="#FDDF55" transform="translate(94,146)"/>
<path d="M0 0 C5.28 0 10.56 0 16 0 C16 0.33 16 0.66 16 1 C15.00419922 1.09087891 15.00419922 1.09087891 13.98828125 1.18359375 C7.45091919 1.79863507 7.45091919 1.79863507 1 3 C0.67 2.01 0.34 1.02 0 0 Z " fill="#FDBC22" transform="translate(166,34)"/>
<path d="M0 0 C1.04668851 3.40173767 1.29579163 6.45050049 1 10 C-0.5 12.375 -0.5 12.375 -2 14 C-2.21192221 8.80790596 -1.5912689 4.873261 0 0 Z " fill="#7C7773" transform="translate(4,149)"/>
<path d="M0 0 C0.33 0 0.66 0 1 0 C1.04898437 0.91523438 1.09796875 1.83046875 1.1484375 2.7734375 C1.22320312 3.96195312 1.29796875 5.15046875 1.375 6.375 C1.44460938 7.55835938 1.51421875 8.74171875 1.5859375 9.9609375 C1.70217346 13.10562319 1.70217346 13.10562319 4 15 C2.68 15.33 1.36 15.66 0 16 C0 10.72 0 5.44 0 0 Z " fill="#B1B1B0" transform="translate(258,506)"/>
<path d="M0 0 C0 0.33 0 0.66 0 1 C-0.9075 1.226875 -1.815 1.45375 -2.75 1.6875 C-6.44888324 3.18127977 -7.77905658 4.75400577 -10 8 C-10.21917317 5.29686424 -10.32851983 3.56041618 -8.9375 1.1875 C-6.00731249 -0.60842137 -3.3527047 -0.18977574 0 0 Z " fill="#A4A29F" transform="translate(126,506)"/>
<path d="M0 0 C1.1875 1.5 1.1875 1.5 2 4 C1.27101296 6.78824238 0.1843275 9.37665092 -1 12 C-1.33 12 -1.66 12 -2 12 C-2.17835515 7.45194365 -1.99785435 4.1205746 0 0 Z " fill="#FCC12A" transform="translate(38,146)"/>
<path d="M0 0 C-1.875 4.75 -1.875 4.75 -3 7 C-4.32 6.34 -5.64 5.68 -7 5 C-2.25 0 -2.25 0 0 0 Z " fill="#FDEEBA" transform="translate(152,217)"/>
<path d="M0 0 C-1.29299694 2.88437779 -2.65941363 4.87219421 -5 7 C-5.99 6.67 -6.98 6.34 -8 6 C-7.0479279 4.99403703 -6.08812654 3.99538437 -5.125 3 C-4.59132812 2.443125 -4.05765625 1.88625 -3.5078125 1.3125 C-2 0 -2 0 0 0 Z " fill="#524A46" transform="translate(53,61)"/>
</svg>
