<?xml version="1.0" encoding="UTF-8"?>
<svg version="1.1" xmlns="http://www.w3.org/2000/svg" width="189" height="325">
<path d="M0 0 C1.8125 0.0625 1.8125 0.0625 4 1 C5.75 3.375 5.75 3.375 6.75 5.015625 C8.3009343 7.4777332 10.01927558 9.78581778 11.75 12.125 C20.7339464 24.43200464 28.70664361 37.07831706 35.41015625 50.7578125 C36.60172935 53.18780188 37.81948416 55.59649219 39.0625 58 C58.17708735 96.79136844 76.27660152 156.49975647 61.8984375 199.27734375 C58.06040755 208.89718011 53.21854237 219.41183347 46 227 C45.34 227 44.68 227 44 227 C44 227.66 44 228.32 44 229 C43.34 229 42.68 229 42 229 C42 229.66 42 230.32 42 231 C28.26730263 244.04207816 11.09934548 253.36111227 -8 255 C-9.53524581 254.94026281 -11.06955732 254.85060049 -12.6015625 254.734375 C-19.45656122 254.25192727 -19.45656122 254.25192727 -26 256 C-30.47309583 260.52191723 -32.69412682 266.70737607 -35.00341797 272.52783203 C-36.40274971 275.99907976 -38.05717362 279.286878 -39.75 282.625 C-40.30171875 283.73746094 -40.8534375 284.84992188 -41.421875 285.99609375 C-43.22159955 289.42180707 -45.23234504 292.58788613 -47.4453125 295.7578125 C-49.33234032 298.47930488 -51.10262338 301.26513449 -52.875 304.0625 C-53.47054687 305.00222656 -54.06609375 305.94195312 -54.6796875 306.91015625 C-55.33324219 307.94462891 -55.33324219 307.94462891 -56 309 C-61.26770198 308.34240251 -66.30133173 307.26735876 -71.4375 305.9375 C-72.53481445 305.6580957 -72.53481445 305.6580957 -73.65429688 305.37304688 C-75.43703198 304.9186242 -77.21863787 304.45977534 -79 304 C-79.92930224 300.99437105 -80.28969161 299.57545521 -78.84765625 296.7109375 C-78.25855469 295.94007813 -77.66945313 295.16921875 -77.0625 294.375 C-76.4128125 293.50230469 -75.763125 292.62960937 -75.09375 291.73046875 C-74.05734375 290.37888672 -74.05734375 290.37888672 -73 289 C-68.01705142 282.32640815 -63.40762636 275.56651617 -59.09765625 268.4375 C-56.79952623 264.64376156 -54.4050588 260.91408232 -52 257.1875 C-51.60176025 256.57028076 -51.20352051 255.95306152 -50.79321289 255.31713867 C-49.86317807 253.87742259 -48.93175087 252.43860609 -48 251 C-50.36362503 249.80359721 -52.74066519 248.65042079 -55.13671875 247.51953125 C-62.47704565 243.99068323 -68.72407121 240.25072188 -75 235 C-76.485 234.01 -76.485 234.01 -78 233 C-78 232.34 -78 231.68 -78 231 C-79.32 230.34 -80.64 229.68 -82 229 C-82 228.34 -82 227.68 -82 227 C-82.66 227 -83.32 227 -84 227 C-85.53736393 224.90386922 -86.93904741 222.82562321 -88.3125 220.625 C-88.91807739 219.65880737 -88.91807739 219.65880737 -89.53588867 218.6730957 C-90.70361159 216.78966407 -91.85471519 214.89713921 -93 213 C-93.7734375 211.73349609 -93.7734375 211.73349609 -94.5625 210.44140625 C-103.75740046 193.86185135 -104.59052582 172.1980737 -99.96875 154.1081543 C-94.8281141 136.32941722 -84.00103532 123.71212342 -71 111 C-70.67 110.34 -70.34 109.68 -70 109 C-69.34 109 -68.68 109 -68 109 C-68 108.34 -68 107.68 -68 107 C-67.34 107 -66.68 107 -66 107 C-65.71125 106.401875 -65.4225 105.80375 -65.125 105.1875 C-64 103 -64 103 -62 100 C-61.34 100 -60.68 100 -60 100 C-59.773125 99.484375 -59.54625 98.96875 -59.3125 98.4375 C-57.51782382 95.10452995 -55.50034985 91.85296329 -53 89 C-52.34 89 -51.68 89 -51 89 C-50.61328125 88.15888672 -50.61328125 88.15888672 -50.21875 87.30078125 C-48.8535707 84.72356777 -47.24960979 82.52150814 -45.5 80.1875 C-40.42221902 73.28503548 -35.69422777 66.16706222 -31 59 C-30.34644531 58.00484375 -29.69289063 57.0096875 -29.01953125 55.984375 C-25.5627444 50.64276177 -22.38958404 45.20886646 -19.390625 39.59765625 C-18.16848667 37.31472932 -16.90593643 35.06267834 -15.625 32.8125 C-10.27995181 23.17757495 -5.17307361 13.41763403 -1.69140625 2.94140625 C-1 1 -1 1 0 0 Z " fill="#03FE03" transform="translate(112,11)"/>
<path d="M0 0 C0.33 0 0.66 0 1 0 C1.40326052 20.5463725 -2.81053084 40.22512245 -8 60 C-8.49239278 61.93223937 -8.98458505 63.86452984 -9.4765625 65.796875 C-18.14811809 99.29334017 -32.94261113 132.4107096 -54 160 C-59.852795 159.48517081 -65.3297637 158.54642808 -71 157 C-67.70357454 151.73036212 -64.35816548 146.50727826 -60.86328125 141.3671875 C-60.31961914 140.56458496 -59.77595703 139.76198242 -59.21582031 138.93505859 C-58.12066689 137.32208455 -57.01981574 135.71296324 -55.91308594 134.10791016 C-55.40680664 133.3607373 -54.90052734 132.61356445 -54.37890625 131.84375 C-53.9207251 131.17537109 -53.46254395 130.50699219 -52.99047852 129.81835938 C-51.76082593 127.90601864 -51.76082593 127.90601864 -52 125 C-51.61365567 120.1063051 -49.56258485 118.2387135 -46 115 C-42.38348373 111.64458728 -39.99295976 108.61096095 -37.80078125 104.1953125 C-37.23649414 103.06697998 -36.67220703 101.93864746 -36.09082031 100.77612305 C-35.49702655 99.55957952 -34.90427854 98.34252509 -34.3125 97.125 C-34.00630737 96.50130524 -33.70011475 95.87761047 -33.38464355 95.23501587 C-31.22595915 90.83770876 -29.10388448 86.42375244 -27 82 C-26.27659424 80.4843042 -26.27659424 80.4843042 -25.53857422 78.93798828 C-13.67694432 53.76648079 -6.2905793 27.01902197 0 0 Z " fill="#006C07" transform="translate(107,154)"/>
<path d="M0 0 C2.58453647 2.58453647 2.78860089 4.53680595 3.62109375 8.08984375 C4.06255737 9.96506714 4.06255737 9.96506714 4.51293945 11.87817383 C4.8219299 13.23109927 5.13010026 14.58421224 5.4375 15.9375 C5.67235611 16.95799942 5.67235611 16.95799942 5.91195679 17.99911499 C8.26376717 28.23728627 10.3599709 38.47133024 11.72363281 48.89257812 C12.00395076 51.03012626 12.31000063 53.16304063 12.6171875 55.296875 C16.49262644 83.41305619 12.66197288 108.3432138 -4.703125 131.63671875 C-5.13109375 132.08660156 -5.5590625 132.53648437 -6 133 C-6.66 133 -7.32 133 -8 133 C-8 133.66 -8 134.32 -8 135 C-8.66 135 -9.32 135 -10 135 C-10 135.66 -10 136.32 -10 137 C-23.73269737 150.04207816 -40.90065452 159.36111227 -60 161 C-61.53524581 160.94026281 -63.06955732 160.85060049 -64.6015625 160.734375 C-71.45656122 160.25192727 -71.45656122 160.25192727 -78 162 C-82.47309583 166.52191723 -84.69412682 172.70737607 -87.00341797 178.52783203 C-88.40274971 181.99907976 -90.05717362 185.286878 -91.75 188.625 C-92.30171875 189.73746094 -92.8534375 190.84992188 -93.421875 191.99609375 C-95.22159955 195.42180707 -97.23234504 198.58788613 -99.4453125 201.7578125 C-101.33234032 204.47930488 -103.10262338 207.26513449 -104.875 210.0625 C-105.76832031 211.47208984 -105.76832031 211.47208984 -106.6796875 212.91015625 C-107.11539063 213.59980469 -107.55109375 214.28945313 -108 215 C-113.9129304 214.35729017 -119.34244531 212.80996216 -125 211 C-121.19068824 209.73022941 -119.18381007 210.47925493 -115.3125 211.4375 C-114.13300781 211.72496094 -112.95351562 212.01242187 -111.73828125 212.30859375 C-110.83464844 212.53675781 -109.93101563 212.76492188 -109 213 C-108.764021 212.31373535 -108.52804199 211.6274707 -108.28491211 210.92041016 C-106.73573404 207.3993636 -104.63799388 204.40767205 -102.44140625 201.2734375 C-96.84915856 193.08796456 -92.36531133 184.47865692 -87.9375 175.625 C-86.80467064 173.38101991 -85.66919192 171.13840882 -84.53211975 168.89657593 C-83.83460953 167.51922634 -83.14001309 166.14039626 -82.44871521 164.75991821 C-80.10858917 160.10858917 -80.10858917 160.10858917 -79 159 C-76.88902091 158.90423986 -74.77750198 158.81535541 -72.66503906 158.76147461 C-48.45262043 158.08940033 -28.41400227 150.60273899 -10.69921875 133.8203125 C3.46495664 118.80353626 12.05994359 97.77169701 12.375 77.125 C12.22453446 71.99305041 11.63013177 67.18381302 10.5625 62.171875 C9.82020266 57.98614276 9.49336278 53.7950368 9.125 49.5625 C7.7673227 34.77411128 4.51902802 20.42785614 0.734375 6.08984375 C0 3 0 3 0 0 Z " fill="#E4FFE4" transform="translate(164,105)"/>
<path d="M0 0 C6.6 0 13.2 0 20 0 C20 0.33 20 0.66 20 1 C18.81664062 0.85175781 17.63328125 0.70351563 16.4140625 0.55078125 C11.43116143 0.19806082 6.67188006 0.01974233 2 2 C-2.53266043 6.44136429 -4.7023432 12.72808505 -7.00341797 18.52783203 C-8.40274971 21.99907976 -10.05717362 25.286878 -11.75 28.625 C-12.30171875 29.73746094 -12.8534375 30.84992188 -13.421875 31.99609375 C-15.22159955 35.42180707 -17.23234504 38.58788613 -19.4453125 41.7578125 C-21.33234032 44.47930488 -23.10262338 47.26513449 -24.875 50.0625 C-25.76832031 51.47208984 -25.76832031 51.47208984 -26.6796875 52.91015625 C-27.11539063 53.59980469 -27.55109375 54.28945313 -28 55 C-33.9129304 54.35729017 -39.34244531 52.80996216 -45 51 C-41.19068824 49.73022941 -39.18381007 50.47925493 -35.3125 51.4375 C-34.13300781 51.72496094 -32.95351563 52.01242187 -31.73828125 52.30859375 C-30.38283203 52.65083984 -30.38283203 52.65083984 -29 53 C-28.76394043 52.31365479 -28.52788086 51.62730957 -28.28466797 50.92016602 C-26.73639591 47.40080417 -24.64056038 44.41021102 -22.4453125 41.27734375 C-16.83771061 33.06818439 -12.32771247 24.43553087 -7.875 15.5625 C-7.1024243 14.04057784 -6.32898993 12.51909126 -5.5546875 10.99804688 C-3.69163892 7.33763411 -1.84631545 3.66907002 0 0 Z " fill="#EDFFED" transform="translate(84,265)"/>
<path d="M0 0 C0 0.66 0 1.32 0 2 C-0.66 2 -1.32 2 -2 2 C-2 2.66 -2 3.32 -2 4 C-2.66 4 -3.32 4 -4 4 C-4 4.66 -4 5.32 -4 6 C-20.29173874 21.47242499 -38.7318688 29.4600239 -61.0625 29.125 C-62.21427734 29.11597656 -63.36605469 29.10695313 -64.55273438 29.09765625 C-67.36871193 29.07428714 -70.18424158 29.04152565 -73 29 C-73 28.67 -73 28.34 -73 28 C-71.75347656 27.97421875 -70.50695312 27.9484375 -69.22265625 27.921875 C-44.10596521 27.18446325 -22.26268027 20.61104387 -4.26171875 2.19921875 C-2 0 -2 0 0 0 Z " fill="#DBFFDB" transform="translate(158,236)"/>
<path d="M0 0 C0.99 0 1.98 0 3 0 C1.53915116 5.491073 -1.13480408 9.49638181 -4.375 14.0625 C-5.09816406 15.10374023 -5.09816406 15.10374023 -5.8359375 16.16601562 C-10.03081846 22.16765917 -13.65342634 27.10551162 -20 31 C-18.62999132 28.13134332 -17.08764735 25.51097222 -15.3125 22.875 C-14.78398438 22.08996094 -14.25546875 21.30492187 -13.7109375 20.49609375 C-11.39712608 17.12046475 -9.03478049 13.78002148 -6.66796875 10.44140625 C-4.66746137 7.51326313 -2.87583823 4.49004981 -1.140625 1.3984375 C-0.76421875 0.93695313 -0.3878125 0.47546875 0 0 Z " fill="#36FB36" transform="translate(54,278)"/>
<path d="M0 0 C0.33 0 0.66 0 1 0 C1.12886183 7.40239645 0.79725902 14.63959083 0 22 C-0.33 22 -0.66 22 -1 22 C-1.33 20.35 -1.66 18.7 -2 17 C-2.66 17.33 -3.32 17.66 -4 18 C-2.68 12.06 -1.36 6.12 0 0 Z " fill="#008F05" transform="translate(107,154)"/>
<path d="M0 0 C0.66 0.33 1.32 0.66 2 1 C1.0960603 2.94347036 0.176325 4.87959907 -0.75 6.8125 C-1.26046875 7.89144531 -1.7709375 8.97039062 -2.296875 10.08203125 C-3.95747366 12.9271395 -5.23510835 14.2869693 -8 16 C-6.57250019 12.20950293 -4.83763458 8.72877544 -2.875 5.1875 C-2.33617188 4.21167969 -1.79734375 3.23585938 -1.2421875 2.23046875 C-0.83226563 1.49441406 -0.42234375 0.75835937 0 0 Z " fill="#DEFFDE" transform="translate(73,287)"/>
<path d="M0 0 C0.99 0 1.98 0 3 0 C1.06382979 6.70212766 1.06382979 6.70212766 -2 9 C-2.66 9 -3.32 9 -4 9 C-3.47557578 5.2241456 -2.67345333 2.77627845 0 0 Z " fill="#2AFA2A" transform="translate(54,278)"/>
<path d="M0 0 C0.99 0 1.98 0 3 0 C1.98823563 3.40320742 1.35156418 4.75725331 -1.625 6.8125 C-2.40875 7.204375 -3.1925 7.59625 -4 8 C-2.87548273 5.0280615 -1.77706209 2.66559313 0 0 Z " fill="#43FD43" transform="translate(59,270)"/>
</svg>
