<?xml version="1.0" encoding="UTF-8"?>
<svg id="Layer_2" data-name="Layer 2" xmlns="http://www.w3.org/2000/svg" viewBox="0 0 120.27 87.31">
  <defs>
    <style>
      .cls-1 {
        fill: none;
        stroke: #231f20;
        stroke-miterlimit: 10;
      }

      .cls-2 {
        fill: #dcdbdb;
      }
    </style>
  </defs>
  <g id="Layer_1-2" data-name="Layer 1">
    <path class="cls-2" d="M120.27,43.66c0,10.9-.9,20.56-2.28,26.6,1.43,1.79,2.28,4.06,2.28,6.53,0,5.81-4.71,10.52-10.51,10.52-4.06,0-7.59-2.3-9.34-5.68-9.06,1.92-23.37,3.15-39.47,3.15-16.99,0-31.99-1.37-40.93-3.47-1.69,3.55-5.31,6-9.5,6-5.81,0-10.52-4.71-10.52-10.52,0-2.47.86-4.75,2.29-6.54-1.39-6.04-2.29-15.7-2.29-26.59s.9-20.55,2.29-26.59c-1.43-1.79-2.29-4.08-2.29-6.55C0,4.71,4.71,0,10.52,0c3.26,0,6.18,1.49,8.11,3.82C27.36,1.53,43.04,0,60.95,0s32.04,1.38,40.98,3.49c1.93-2.14,4.72-3.49,7.83-3.49,5.8,0,10.51,4.71,10.51,10.52,0,2.47-.85,4.75-2.28,6.54,1.38,6.03,2.28,15.7,2.28,26.6Z"/>
    <path class="cls-1" d="M17.54,17.52s-9.91,31.15,0,52.79"/>
  </g>
</svg>