<?xml version="1.0" encoding="UTF-8"?>
<svg id="Layer_2" data-name="Layer 2" xmlns="http://www.w3.org/2000/svg" viewBox="0 0 56.03 96.53">
  <defs>
    <style>
      .cls-1, .cls-2, .cls-3 {
        stroke: #231f20;
        stroke-miterlimit: 10;
      }

      .cls-1, .cls-4 {
        fill: #60c8d3;
      }

      .cls-5 {
        fill: #91cfa3;
      }

      .cls-2 {
        fill: none;
      }

      .cls-3 {
        fill: #8fc5c6;
      }
    </style>
  </defs>
  <g id="Layer_1-2" data-name="Layer 1">
    <g id="uuid-a5e2150f-764c-4a31-b0a4-3be15047eab1" data-name="Layer 1-2">
      <path class="cls-4" d="M37.55,26.2c0,.68-.07,1.35-.21,2-.55,2.61-2.17,4.84-4.37,6.18-.49.3-1,.56-1.54.77-1.09.43-2.27.66-3.5.66-1.11,0-2.18-.18-3.17-.54-.62-.21-1.2-.49-1.75-.81-2.26-1.34-3.91-3.58-4.49-6.24-.14-.65-.21-1.34-.21-2.04,0-.94.14-1.85.39-2.7.72-2.43,2.36-4.47,4.53-5.68,1.39-.78,3-1.23,4.7-1.23s3.42.48,4.84,1.3c2.1,1.23,3.71,3.24,4.39,5.64.25.85.38,1.75.38,2.66h0Z"/>
      <path class="cls-5" d="M23.23,17.81c-2.17,1.21-3.81,3.24-4.53,5.68-3.17-.76-7.37-3.36-11.24-7.23C1.39,10.17-1.58,3.28.85.85s9.31.54,15.4,6.63c3.51,3.51,5.99,7.3,6.98,10.34h0Z"/>
      <path class="cls-5" d="M48.56,16.25c-3.93,3.93-8.2,6.55-11.39,7.27-.69-2.4-2.29-4.41-4.39-5.64.97-3.05,3.46-6.87,7-10.42C45.87,1.38,52.76-1.58,55.19.85c2.42,2.42-.54,9.32-6.62,15.41h0Z"/>
      <path class="cls-5" d="M23.02,34.46c-1.11,2.93-3.48,6.45-6.77,9.74-6.09,6.08-12.98,9.04-15.4,6.62-2.43-2.42.54-9.32,6.62-15.4,3.81-3.81,7.91-6.39,11.07-7.19.58,2.65,2.23,4.89,4.49,6.24h0Z"/>
      <path class="cls-5" d="M55.19,50.83c-2.42,2.43-9.31-.54-15.4-6.62-3.32-3.32-5.71-6.88-6.8-9.83,2.2-1.35,3.81-3.58,4.37-6.18,3.17.77,7.35,3.36,11.22,7.23,6.08,6.08,9.04,12.98,6.62,15.4h0Z"/>
      <line class="cls-2" x1="31.44" y1="35.15" x2="31.44" y2="35.03"/>
      <line class="cls-2" x1="24.77" y1="35.27" x2="24.77" y2="35.03"/>
      <path class="cls-1" d="M40.46,87.55c0,.81-.68,1.55-1.85,2.19-2.21,1.21-6.16,2-10.68,2s-8.48-.8-10.68-2c-1.17-.64-1.85-1.38-1.85-2.19,0-1.94,3.97-3.58,9.36-4.05v-48.13c.99.35,2.06.54,3.17.54,1.24,0,2.42-.23,3.5-.66l.19,48.31c5.11.52,8.83,2.12,8.83,4h0Z"/>
      <path class="cls-3" d="M40.46,87.45v4.38c0,2.32-5.61,4.2-12.53,4.2s-12.53-1.88-12.53-4.2v-4.38c0,.81.68,1.55,1.85,2.19,2.21,1.21,6.16,2,10.68,2s8.48-.8,10.68-2c1.17-.64,1.85-1.38,1.85-2.19h-.01Z"/>
      <g>
        <line class="cls-2" x1="31.65" y1="87.15" x2="31.63" y2="83.45"/>
        <line class="cls-2" x1="24.77" y1="87.15" x2="24.77" y2="83.4"/>
      </g>
    </g>
  </g>
</svg>