<?xml version="1.0" encoding="UTF-8"?>
<svg id="Layer_2" data-name="Layer 2" xmlns="http://www.w3.org/2000/svg" viewBox="0 0 62.17 88.71">
  <defs>
    <style>
      .cls-1 {
        fill: none;
        stroke: #000;
      }

      .cls-1, .cls-2 {
        stroke-miterlimit: 10;
      }

      .cls-3 {
        fill: #eb3594;
      }

      .cls-2 {
        stroke: #050606;
      }

      .cls-2, .cls-4 {
        fill: #e99224;
      }

      .cls-5 {
        fill: #f8971d;
      }

      .cls-6 {
        fill: #5099d3;
      }
    </style>
  </defs>
  <g id="Dimensions">
    <path class="cls-4" d="M32.09,82.47H10.62c-4.17,0-7.55-3.38-7.55-7.55l8.32-41.3h19.92l8.32,41.3c0,4.17-3.38,7.55-7.55,7.55Z"/>
    <path class="cls-5" d="M29.32,1.82l9.3,10.43,1.48-9.85c.12-.81-.55-1.53-1.37-1.45l-9.4.87h0Z"/>
    <circle class="cls-5" cx="21.35" cy="18.28" r="18.28"/>
    <path class="cls-5" d="M13.38,1.82L4.09,12.26,2.61,2.41c-.12-.81.55-1.53,1.37-1.45l9.4.87h0Z"/>
    <path class="cls-3" d="M11.89,3.15l-6.72,7.54-1.07-7.12c-.09-.59.4-1.1.99-1.05l6.79.63h0Z"/>
    <path class="cls-3" d="M30.82,3.15l6.72,7.54,1.07-7.12c.09-.59-.4-1.1-.99-1.05l-6.79.63h0Z"/>
    <circle class="cls-6" cx="13.38" cy="12.26" r="1.99"/>
    <circle class="cls-6" cx="30.82" cy="12.26" r="1.99"/>
    <path d="M20.74,20.94l-.37-.34c-.29-.26-.51-.58-.67-.94h0c-.24-.55.11-1.17.7-1.27l.53-.08c.28-.04.56-.04.84,0l.53.08c.59.09.94.72.7,1.27h0c-.15.36-.38.67-.67.94l-.37.34c-.35.32-.88.32-1.23,0Z"/>
    <path class="cls-1" d="M21.35,21.25v4.26s-2.67,5.3-7.97,0"/>
    <path class="cls-1" d="M21.35,21.25v4.26s2.67,5.3,7.97,0"/>
    <line class="cls-1" x1="15.37" y1="19.56" x2=".12" y2="15.63"/>
    <line class="cls-1" x1="15.37" y1="21.25" x2=".12" y2="21.25"/>
    <line class="cls-1" x1="15.37" y1="22.95" x2=".12" y2="26.26"/>
    <line class="cls-1" x1="27.33" y1="19.87" x2="42.58" y2="15.94"/>
    <line class="cls-1" x1="27.33" y1="21.57" x2="42.58" y2="21.57"/>
    <line class="cls-1" x1="27.33" y1="23.26" x2="42.58" y2="26.57"/>
    <path class="cls-2" d="M19.47,88.2h0c-2.5,0-3.44-.93-3.44-3.43l-3.29-26.73c0-2.5,5.31-3.8,7.81-3.8h0c2.5,0,4.53,2.03,1.15,5.05l-.25,21.9c-.02,1.69.2,3.36.32,5.04.1,1.43-2.48,2.05-2.31,1.96Z"/>
    <path class="cls-2" d="M25.38,88.2h0c2.5,0,3.44-.93,3.44-3.43l3.29-26.73c0-2.5-5.31-3.8-7.81-3.8h0c-2.5,0-4.53,2.03-1.15,5.05l.25,21.9c.02,1.69-.2,3.36-.32,5.04-.1,1.43,2.48,2.05,2.31,1.96Z"/>
    <rect class="cls-4" x="8.84" y="52.78" width="25.02" height="8.14"/>
    <path class="cls-4" d="M39.64,74.92s6.72,8.86,11-3.69,9.56-9.76,9.56-9.76c0,0,4.08-.7.5-2.99s-12.15,3.98-11.95,8.86-3.14,11.34-9.63,4.97"/>
  </g>
</svg>