<?xml version="1.0" encoding="UTF-8"?>
<svg id="Layer_2" data-name="Layer 2" xmlns="http://www.w3.org/2000/svg" viewBox="0 0 100.1 172.07">
  <defs>
    <style>
      .cls-1 {
        fill: #5fc7d3;
      }

      .cls-2 {
        fill: #5ec7d3;
      }

      .cls-2, .cls-3, .cls-4 {
        stroke: #231f20;
        stroke-miterlimit: 10;
      }

      .cls-5 {
        fill: #91cea2;
      }

      .cls-3 {
        fill: none;
      }

      .cls-4 {
        fill: #8ec4c6;
      }
    </style>
  </defs>
  <g id="Layer_1-2" data-name="Layer 1">
    <path class="cls-1" d="M67.08,46.8c0,1.22-.12,2.42-.37,3.57-.99,4.67-3.87,8.64-7.8,11.05-.87.54-1.79,1-2.75,1.37-1.94.77-4.05,1.18-6.26,1.18-1.98,0-3.89-.33-5.66-.96-1.1-.37-2.14-.87-3.12-1.44-4.04-2.4-6.99-6.4-8.02-11.14-.25-1.17-.38-2.39-.38-3.64,0-1.68.25-3.3.69-4.83,1.28-4.35,4.22-7.98,8.09-10.15,2.49-1.4,5.36-2.2,8.4-2.2s6.11.85,8.65,2.33c3.76,2.2,6.62,5.79,7.85,10.08.44,1.51.67,3.12.67,4.76Z"/>
    <path class="cls-5" d="M41.5,31.82c-3.87,2.17-6.81,5.79-8.09,10.15-5.66-1.36-13.16-6-20.08-12.92C2.48,18.17-2.82,5.85,1.52,1.51c4.33-4.33,16.64.96,27.52,11.84,6.28,6.28,10.7,13.05,12.47,18.47Z"/>
    <path class="cls-5" d="M86.76,29.04c-7.03,7.03-14.65,11.71-20.35,12.99-1.24-4.28-4.09-7.88-7.85-10.08,1.74-5.45,6.18-12.28,12.51-18.61C81.94,2.47,94.26-2.82,98.59,1.51s-.96,16.66-11.82,27.53Z"/>
    <path class="cls-5" d="M41.13,61.57c-1.98,5.23-6.22,11.53-12.1,17.41-10.88,10.86-23.19,16.16-27.52,11.82-4.34-4.33.96-16.66,11.82-27.52,6.8-6.8,14.14-11.41,19.77-12.85,1.03,4.74,3.98,8.73,8.02,11.14Z"/>
    <path class="cls-5" d="M98.59,90.81c-4.33,4.34-16.64-.96-27.52-11.82-5.93-5.93-10.2-12.3-12.15-17.56,3.93-2.42,6.81-6.39,7.8-11.05,5.66,1.37,13.14,6.01,20.05,12.92,10.86,10.86,16.16,23.19,11.82,27.52Z"/>
    <line class="cls-3" x1="56.17" y1="62.79" x2="56.17" y2="62.58"/>
    <line class="cls-3" x1="44.25" y1="63.01" x2="44.25" y2="62.58"/>
    <path class="cls-2" d="M72.29,156.41c0,1.44-1.21,2.77-3.3,3.91-3.94,2.16-11.01,3.58-19.09,3.58s-15.15-1.43-19.09-3.58c-2.09-1.14-3.3-2.47-3.3-3.91,0-3.47,7.1-6.4,16.73-7.24V63.18c1.77.63,3.68.96,5.66.96,2.21,0,4.33-.41,6.26-1.18l.34,86.31c9.13.93,15.78,3.78,15.78,7.14Z"/>
    <path class="cls-4" d="M72.29,156.24v7.83c0,4.15-10.02,7.5-22.38,7.5s-22.38-3.35-22.38-7.5v-7.83c0,1.44,1.21,2.77,3.3,3.91,3.94,2.16,11.01,3.58,19.09,3.58s15.15-1.43,19.09-3.58c2.09-1.14,3.3-2.47,3.3-3.91Z"/>
    <g>
      <line class="cls-3" x1="56.54" y1="155.7" x2="56.51" y2="149.1"/>
      <line class="cls-3" x1="44.25" y1="155.7" x2="44.25" y2="149"/>
    </g>
  </g>
</svg>