<?xml version="1.0" encoding="UTF-8"?>
<svg id="Layer_2" data-name="Layer 2" xmlns="http://www.w3.org/2000/svg" viewBox="0 0 108.81 107.82">
  <defs>
    <style>
      .cls-1 {
        fill: #6ebe45;
      }

      .cls-2 {
        fill: #fff;
      }

      .cls-3, .cls-4 {
        stroke: #231f20;
        stroke-miterlimit: 10;
      }

      .cls-3, .cls-5 {
        fill: #e7e633;
      }

      .cls-4, .cls-6 {
        fill: #010101;
      }

      .cls-7 {
        fill: #6bcce4;
      }
    </style>
  </defs>
  <g id="Layer_1-2" data-name="Layer 1">
    <g id="uuid-b2bce665-465f-4570-8da1-79169fffc687" data-name="Layer 1-2">
      <rect class="cls-7" width="108.81" height="68.63" rx="9.3" ry="9.3"/>
      <rect class="cls-6" x="9.02" y="6.42" width="90.78" height="55.79" rx="9.3" ry="9.3"/>
      <rect class="cls-3" x="25.03" y="39.91" width="56.06" height="3.71"/>
      <rect class="cls-3" x="25.03" y="46.62" width="56.06" height="3.71"/>
      <rect class="cls-3" x="25.03" y="53.32" width="56.06" height="3.71"/>
      <circle class="cls-7" cx="34.33" cy="22.76" r="9.31"/>
      <circle class="cls-2" cx="34.33" cy="22.76" r="7.6"/>
      <circle class="cls-7" cx="71.78" cy="22.9" r="9.31"/>
      <circle class="cls-2" cx="71.78" cy="22.9" r="7.6"/>
      <circle class="cls-4" cx="71.78" cy="26.15" r="3.25"/>
      <circle class="cls-4" cx="35.45" cy="19.66" r="3.25"/>
      <rect class="cls-1" x="27.3" y="68.63" width="7.03" height="29.68"/>
      <rect class="cls-1" x="71.78" y="68.63" width="7.03" height="29.68"/>
      <rect class="cls-5" x="16.27" y="98.31" width="22.06" height="9.51" rx="4.75" ry="4.75"/>
      <rect class="cls-5" x="67.78" y="98.31" width="22.06" height="9.51" rx="4.75" ry="4.75"/>
    </g>
  </g>
</svg>