<?xml version="1.0" encoding="UTF-8"?>
<svg id="Layer_2" data-name="Layer 2" xmlns="http://www.w3.org/2000/svg" xmlns:xlink="http://www.w3.org/1999/xlink" viewBox="0 0 104.66 80.78">
  <defs>
    <style>
      .cls-1 {
        fill: url(#linear-gradient-2);
      }

      .cls-2 {
        fill: #fff;
      }

      .cls-3 {
        fill: url(#linear-gradient-4);
      }

      .cls-4 {
        fill: url(#linear-gradient-3);
      }

      .cls-5 {
        fill: #5f491f;
      }

      .cls-6 {
        fill: #565555;
      }

      .cls-7 {
        fill: url(#linear-gradient);
      }
    </style>
    <linearGradient id="linear-gradient" x1="52.48" y1="14.66" x2="52.48" y2="29.47" gradientUnits="userSpaceOnUse">
      <stop offset="0" stop-color="#565555"/>
      <stop offset="1" stop-color="#231f20"/>
    </linearGradient>
    <linearGradient id="linear-gradient-2" x1="27.63" y1="20.16" x2="27.63" y2="48.13" xlink:href="#linear-gradient"/>
    <linearGradient id="linear-gradient-3" x1="76.32" y1="20.16" x2="76.32" y2="48.13" xlink:href="#linear-gradient"/>
    <linearGradient id="linear-gradient-4" x1="52.33" y1="29.32" x2="52.33" y2="48.13" xlink:href="#linear-gradient"/>
  </defs>
  <g id="Layer_1-2" data-name="Layer 1">
    <rect class="cls-7" x="43.42" y="14.66" width="18.13" height="14.81"/>
    <rect class="cls-1" x="21.89" y="20.16" width="11.47" height="27.97"/>
    <rect class="cls-4" x="70.59" y="20.16" width="11.47" height="27.97"/>
    <rect class="cls-3" x="39.72" y="29.32" width="25.23" height="18.81"/>
    <rect class="cls-6" x="69.24" y="5.86" width="2.78" height="3.34"/>
    <rect class="cls-6" x="73.04" y="5.86" width="2.78" height="9.75"/>
    <rect class="cls-6" x="76.83" y="5.86" width="2.78" height="9.75"/>
    <rect class="cls-6" x="80.62" y="5.86" width="2.78" height="3.34"/>
    <g>
      <rect class="cls-6" x="41.61" width="2.78" height="3.34"/>
      <rect class="cls-6" x="45.41" width="2.78" height="9.75"/>
      <rect class="cls-6" x="49.2" width="2.78" height="9.75"/>
      <rect class="cls-6" x="52.99" width="2.78" height="9.75"/>
      <rect class="cls-6" x="56.78" width="2.78" height="9.75"/>
      <rect class="cls-6" x="60.58" width="2.78" height="3.34"/>
      <rect class="cls-6" x="41.61" y="3.13" width="21.74" height="6.81"/>
    </g>
    <g>
      <rect class="cls-6" x="39.72" y="26.06" width="2.78" height="3.34"/>
      <rect class="cls-6" x="43.51" y="26.06" width="2.78" height="9.75"/>
      <rect class="cls-6" x="47.3" y="26.06" width="2.78" height="9.75"/>
      <rect class="cls-6" x="51.09" y="26.06" width="2.78" height="9.75"/>
      <rect class="cls-6" x="54.89" y="26.06" width="2.78" height="9.75"/>
      <rect class="cls-6" x="62.17" y="26.06" width="2.78" height="9.75"/>
      <rect class="cls-6" x="58.68" y="26.06" width="2.78" height="3.34"/>
    </g>
    <g>
      <rect class="cls-6" x="90.51" y="16.09" width="2.78" height="3.34"/>
      <rect class="cls-6" x="94.3" y="16.09" width="2.78" height="9.75"/>
      <rect class="cls-6" x="98.09" y="16.09" width="2.78" height="9.75"/>
      <rect class="cls-6" x="101.89" y="16.09" width="2.78" height="3.34"/>
      <rect class="cls-6" x="90.51" y="19.42" width="14.15" height="6.6"/>
    </g>
    <g>
      <rect class="cls-6" x="31.93" y="5.86" width="2.78" height="3.34" transform="translate(66.64 15.06) rotate(-180)"/>
      <rect class="cls-6" x="28.14" y="5.86" width="2.78" height="9.75" transform="translate(59.05 21.47) rotate(-180)"/>
      <rect class="cls-6" x="24.35" y="5.86" width="2.78" height="9.75" transform="translate(51.47 21.47) rotate(-180)"/>
      <rect class="cls-6" x="20.55" y="5.86" width="2.78" height="3.34" transform="translate(43.88 15.06) rotate(-180)"/>
    </g>
    <g>
      <rect class="cls-6" x="11.38" y="16.21" width="2.78" height="3.34" transform="translate(25.53 35.76) rotate(-180)"/>
      <rect class="cls-6" x="7.58" y="16.21" width="2.78" height="9.75" transform="translate(17.95 42.18) rotate(-180)"/>
      <rect class="cls-6" x="3.79" y="16.21" width="2.78" height="9.75" transform="translate(10.36 42.18) rotate(-180)"/>
      <rect class="cls-6" x="0" y="16.21" width="2.78" height="3.34" transform="translate(2.78 35.76) rotate(-180)"/>
      <rect class="cls-6" x="0" y="19.55" width="14.15" height="6.6" transform="translate(14.15 45.7) rotate(-180)"/>
    </g>
    <polygon class="cls-6" points="13 30.46 1.15 30.46 0 26.48 14.15 26.48 13 30.46"/>
    <polygon class="cls-6" points="33.56 19.88 21.7 19.88 20.55 15.9 34.71 15.9 33.56 19.88"/>
    <polygon class="cls-6" points="61.58 14.32 43.38 14.32 41.61 10.34 63.35 10.34 61.58 14.32"/>
    <polygon class="cls-6" points="91.66 30.49 103.51 30.49 104.66 26.51 90.51 26.51 91.66 30.49"/>
    <polygon class="cls-6" points="70.4 19.88 82.25 19.88 83.4 15.9 69.24 15.9 70.4 19.88"/>
    <rect class="cls-6" x="20.55" y="9.2" width="14.15" height="6.42"/>
    <rect class="cls-6" x="69.24" y="9.18" width="14.15" height="6.43"/>
    <rect class="cls-6" x="1.39" y="30.94" width="11.38" height="49.84"/>
    <rect class="cls-6" x="91.9" y="30.94" width="11.38" height="49.84"/>
    <rect class="cls-6" x="12.77" y="48.13" width="79.13" height="32.65"/>
    <g>
      <rect class="cls-6" x="13.48" y="44.75" width="2.78" height="3.38"/>
      <rect class="cls-6" x="17.27" y="44.75" width="2.78" height="9.75"/>
      <rect class="cls-6" x="21.06" y="44.75" width="2.78" height="9.75"/>
      <rect class="cls-6" x="24.85" y="44.75" width="2.78" height="9.75"/>
      <rect class="cls-6" x="28.65" y="44.75" width="2.78" height="9.75"/>
      <rect class="cls-6" x="32.44" y="44.75" width="2.78" height="3.38"/>
    </g>
    <g>
      <rect class="cls-6" x="35.93" y="44.75" width="2.78" height="3.38"/>
      <rect class="cls-6" x="39.72" y="44.75" width="2.78" height="9.75"/>
      <rect class="cls-6" x="43.51" y="44.75" width="2.78" height="9.75"/>
      <rect class="cls-6" x="47.3" y="44.75" width="2.78" height="9.75"/>
      <rect class="cls-6" x="51.09" y="44.75" width="2.78" height="9.75"/>
      <rect class="cls-6" x="54.89" y="44.75" width="2.78" height="3.38"/>
    </g>
    <g>
      <rect class="cls-6" x="58.37" y="44.75" width="2.78" height="3.38"/>
      <rect class="cls-6" x="62.17" y="44.75" width="2.78" height="9.75"/>
      <rect class="cls-6" x="65.96" y="44.75" width="2.78" height="9.75"/>
      <rect class="cls-6" x="69.75" y="44.75" width="2.78" height="9.75"/>
      <rect class="cls-6" x="73.54" y="44.75" width="2.78" height="9.75"/>
      <rect class="cls-6" x="77.34" y="44.75" width="2.78" height="3.38"/>
    </g>
    <g>
      <rect class="cls-6" x="80.82" y="44.75" width="2.78" height="3.38"/>
      <rect class="cls-6" x="84.62" y="44.75" width="2.78" height="9.75"/>
      <rect class="cls-6" x="88.41" y="44.75" width="2.78" height="9.75"/>
    </g>
    <rect class="cls-2" x="14.42" y="57.58" width="8.47" height="10.84"/>
    <circle class="cls-2" cx="18.66" cy="57.58" r="4.23"/>
    <rect class="cls-2" x="81.77" y="57.58" width="8.47" height="10.84"/>
    <circle class="cls-2" cx="86" cy="57.58" r="4.23"/>
    <rect class="cls-2" x="46.79" y="35.02" width="11.38" height="6.85"/>
    <ellipse class="cls-2" cx="52.48" cy="35.02" rx="5.69" ry="2.68"/>
    <rect class="cls-5" x="46.79" y="62.36" width="11.58" height="18.42"/>
  </g>
</svg>