<?xml version="1.0" encoding="UTF-8"?>
<svg id="Layer_2" data-name="Layer 2" xmlns="http://www.w3.org/2000/svg" viewBox="0 0 146.22 95.46">
  <defs>
    <style>
      .cls-1 {
        fill: #e9e8e8;
      }
    </style>
  </defs>
  <g id="Layer_1-2" data-name="Layer 1">
    <g id="uuid-13217b0d-b69c-4797-8c5b-dd4f384ca92e" data-name="Layer 1-2">
      <path class="cls-1" d="M146.22,69.35c0,13.27-10.76,24.02-24.02,24.02-7.04,0-13.37-3.03-17.76-7.84-3.68,5.22-9.76,8.62-16.64,8.62s-12.49-3.15-16.2-8.03c-5.14,5.73-12.6,9.34-20.9,9.34-6.84,0-13.12-2.45-17.98-6.52-1.31.38-2.7.59-4.13.59-8.04,0-14.56-6.52-14.56-14.56,0-.27.01-.53.02-.8C5.81,70.87,0,62.81,0,53.39c0-11,7.94-20.15,18.41-22.02.81-9.71,8.95-17.35,18.88-17.35,4.14,0,7.97,1.33,11.09,3.59C50.02,7.62,58.68,0,69.13,0c9.16,0,16.95,5.86,19.84,14.04,7.63.35,13.94,5.72,15.71,12.89,2.84-1.49,6.07-2.33,9.5-2.33,11.37,0,20.59,9.21,20.59,20.58,0,1.2-.1,2.38-.31,3.52,7.04,4.18,11.76,11.86,11.76,20.65Z"/>
    </g>
  </g>
</svg>