<?xml version="1.0" encoding="UTF-8"?>
<svg id="Layer_2" data-name="Layer 2" xmlns="http://www.w3.org/2000/svg" viewBox="0 0 70.83 104.84">
  <defs>
    <style>
      .cls-1 {
        fill: #231f20;
      }

      .cls-2 {
        fill: #ddd;
      }
    </style>
  </defs>
  <g id="Layer_1-2" data-name="Layer 1">
    <path class="cls-2" d="M70.83,35v61.95c0,4.36-3.54,7.89-7.9,7.89s-7.9-3.53-7.9-7.89c0-3.24-2.63-5.86-5.86-5.86s-5.86,2.62-5.86,5.86c0,4.36-3.54,7.89-7.9,7.89s-7.9-3.53-7.9-7.89c0-3.24-2.63-5.86-5.86-5.86s-5.86,2.62-5.86,5.86c0,4.36-3.53,7.89-7.9,7.89s-7.9-3.53-7.9-7.89v-61.95C.09,15.65,15.91,0,35.41,0s35.32,15.65,35.41,35Z"/>
    <circle class="cls-1" cx="19.32" cy="35.65" r="8.49"/>
    <circle class="cls-1" cx="51.54" cy="35.65" r="8.49"/>
    <path class="cls-1" d="M48.62,70.29c2.94,1.26,5.93-1.72,4.67-4.66-2.12-4.93-6.93-10.32-17.88-10.32s-15.76,5.39-17.88,10.32c-1.26,2.94,1.73,5.93,4.67,4.66,3.62-1.56,8.39-3.08,13.21-3.08s9.59,1.52,13.21,3.08Z"/>
  </g>
</svg>